/* XPM */
static char *_9f2bf771cd640e6e558eabf9dac44dcdC2VlAMVSfHfDSqI[] = {
/* columns rows colors chars-per-pixel */
"64 64 197 2 ",
"   c None",
".  c #26733F",
"X  c #1E584D",
"o  c #174951",
"O  c #174A51",
"+  c #1F5C51",
"@  c #1B5351",
"#  c #215E4F",
"$  c #215D52",
"%  c #22614E",
"&  c #256A46",
"*  c #2C7A43",
"=  c #2D744C",
"-  c #2C7A45",
";  c #33754C",
":  c #307E4D",
">  c #226351",
",  c #2C6C53",
"<  c #266A51",
"1  c #2B7351",
"2  c #2F7C52",
"3  c #357553",
"4  c #3E7851",
"5  c #56AE3D",
"6  c #58AF3B",
"7  c #5EB434",
"8  c #5AB03A",
"9  c #60B634",
"0  c #66BA3A",
"q  c #6ABD3B",
"w  c #62B73B",
"e  c #6DC13A",
"r  c #71C23E",
"t  c #33824B",
"y  c #388849",
"u  c #3E914D",
"i  c #348454",
"p  c #3C8351",
"a  c #378C54",
"s  c #3A8D52",
"d  c #3D845B",
"f  c #3A8F59",
"g  c #3A9455",
"h  c #3E9856",
"j  c #3A9459",
"k  c #3E8E6B",
"l  c #42954E",
"z  c #4D934E",
"x  c #449D4F",
"c  c #4A9C41",
"v  c #439C51",
"b  c #439C5C",
"n  c #489F5C",
"m  c #4EA645",
"M  c #4BA349",
"N  c #47A04C",
"B  c #51A942",
"V  c #53A94C",
"C  c #59A740",
"Z  c #5DB243",
"A  c #4DA454",
"S  c #45A158",
"D  c #4DA55A",
"F  c #4DA95C",
"G  c #47A050",
"H  c #52A754",
"J  c #53A65A",
"K  c #52AE5F",
"L  c #5AAB5B",
"P  c #58A552",
"I  c #5EB153",
"U  c #54B05F",
"Y  c #59B05B",
"T  c #61B540",
"R  c #6DBD42",
"E  c #6AB94A",
"W  c #71BB4B",
"Q  c #61A850",
"!  c #62BC5E",
"~  c #69B752",
"^  c #78BE50",
"/  c #449F60",
"(  c #47977E",
")  c #4B9C7A",
"_  c #49A564",
"`  c #4DAD62",
"'  c #48A568",
"]  c #51A664",
"[  c #51A769",
"{  c #54AA6B",
"}  c #57AB67",
"|  c #5AB465",
" . c #59AF73",
".. c #56AA75",
"X. c #5CB474",
"o. c #5AB07C",
"O. c #62AF6E",
"+. c #64B665",
"@. c #64BE7D",
"#. c #62B475",
"$. c #76B574",
"%. c #6EC041",
"&. c #74C244",
"*. c #7BC945",
"=. c #73C34B",
"-. c #79C74F",
";. c #7AC751",
":. c #7ECA52",
">. c #77C552",
",. c #59C778",
"<. c #65C265",
"1. c #6BC666",
"2. c #6DC769",
"3. c #6CCB6B",
"4. c #71CC6D",
"5. c #72CE64",
"6. c #6FD06C",
"7. c #74D46A",
"8. c #7AD86B",
"9. c #63CE77",
"0. c #67C27E",
"q. c #68C37F",
"w. c #65D178",
"e. c #7CDE73",
"r. c #78D874",
"t. c #7EE073",
"y. c #7FEA7F",
"u. c #81CD4A",
"i. c #84D149",
"p. c #89D44E",
"a. c #83CB55",
"s. c #8AD351",
"d. c #87D050",
"f. c #96D75D",
"g. c #97D85E",
"h. c #99D95F",
"j. c #9DDC61",
"k. c #93D367",
"l. c #80E06F",
"z. c #81E272",
"x. c #86E874",
"c. c #85EC7A",
"v. c #8CF37E",
"b. c #95FA7E",
"n. c #95F97C",
"m. c #52A78B",
"M. c #5EB483",
"N. c #5FB78A",
"B. c #57B081",
"V. c #52A694",
"C. c #53A896",
"Z. c #54A898",
"A. c #61B986",
"S. c #62BA8C",
"D. c #60B78A",
"F. c #7CBE8A",
"G. c #63BD98",
"H. c #68BF93",
"J. c #59B0A0",
"K. c #63BDB5",
"L. c #65BFB8",
"P. c #5ED383",
"I. c #69C482",
"U. c #6AC38B",
"Y. c #66C18C",
"T. c #6CDD81",
"R. c #60D584",
"E. c #6ECB96",
"W. c #6CC896",
"Q. c #70CD97",
"!. c #71CE9C",
"~. c #74E381",
"^. c #79E781",
"/. c #66C1AF",
"(. c #69C4AC",
"). c #69C5A4",
"_. c #74C8AF",
"`. c #78D7AE",
"'. c #6AC6B3",
"]. c #6DC9B3",
"[. c #67C3B4",
"{. c #7BDABF",
"}. c #6CCAC3",
"|. c #70CFC1",
" X c #75D5CA",
".X c #7FDFC4",
"XX c #78D7D0",
"oX c #B2C683",
"OX c #B4C98A",
"+X c #8BF480",
"@X c #80DFD4",
"#X c #80E0C6",
"$X c #82E3CC",
"%X c #82E2D4",
"&X c #87E8D9",
"*X c #86E7DF",
"=X c #87E9E8",
/* pixels */
"                                                                                                                                ",
"                                                                                                                                ",
"                                                                                                                                ",
"                                                                                                                                ",
"                                                                                                                                ",
"                                                                                                                                ",
"                                                                                                                                ",
"                                                                                                                                ",
"                                                                                                                                ",
"                                                                                                                                ",
"                                    q.q.q.q.q.q.                                                                                ",
"                                    !.!.!.!.W.W.                                                                                ",
"                                @.!.#X&X*X.X X].A...) (                                                                         ",
"                                q.Q.{.*X=X=X X(.M.o.m.V.                                                                        ",
"                                I.I.U.(.XX X).B. .M.K.K.C.(                                                                     ",
"                                I.@.X.M.(._.F.$.O.S.|.'.C.(                                                                     ",
"                                I.A.X. .M.F.OXoX$.N.}.}.C.(                                                                     ",
"                                q.0.X.X. .$.oXOXF.G.[.K.V.(                                                                     ",
"                                    0.@.X.O.$.F._.[.Z.V.                                                                        ",
"                                    I.@.X. .[ B.[.[.Z.(                                                                         ",
"                                            / / m.C.                                                                            ",
"                                            s k k k                                                                             ",
"                                R.~.+Xt.U y t t : : - *                                                                         ",
"                                ,.w.t.6.F g u u l l t *                                                                         ",
"                        b.b.b.t.| F ` F h S ! 5.8.<.u .                                                                         ",
"                        e.t.z.7.` g g g g D ! 7.c.t.L l                                                                         ",
"                        K K K K     g g     u D ,.y.t.1.l *                 q.q.I.I.I.@.X. .    7 7 7 7                         ",
"                        g g g g     / `     = i _ 9.c.t.Y l                 !.W.I.0.0.@.A.D.    q q q q                         ",
"                                    ,.9.y.4.3 > t F 7.x.l.1.l *         q.!.#X#XQ.@.O.A.(.'.D.+.;.u.u.*.q 7                     ",
"                                    T.y.v.r.d # & t J 1.e.2.l &         q.Q.#X$X`.Q.S.G.].(.D.+.>.u.*.*.q 7                     ",
"                                P.T.y.v.b.e._ = # $ , d D b , #         I.U.Q.`.$X%X X(.G.D. .| E q q q                         ",
"                                T.^.v.n.x.6.K i + o o + 2 2 $ O         X.X.X.U.{.@X XK.o.] [ K Z 9 7 7                         ",
"                                v.v.+Xx.<.F S i $ o     $ >             _ b S [ A.H.S.o.' b b b                                 ",
"                                t.z.z.4.S i i i 3 4     $ O             L L D D _ [ [ ] J H H V                                 ",
"                                ` K ` S i < > 3 P ^ i.a.            7 %.k.k.a.~ J b b D ~ ;.;.W 0 7                             ",
"                                g h j a 1 + @ ; E i.u.u.            &.:.j.j.s.=.V x G I =.u.i.*.q 7                             ",
"                                    h g     $ ; 5 q q q 0 7     7 &.f.j.u.%.q 0 8 Z =.=.%.q q q                                 ",
"                                    H A     > ; c 5 6 8 8 9     7 &.f.f.&.7 7 w 0 r *.*.q 7 7 7                                 ",
"                                9 q =.~ p % > 1 u x z M 8 9 9 9     &.&.    7 0 &.*.r q                                         ",
"                                q q W Q p , 1 2 a h v M B 8 7 9     7 7     7 q s.s.q 7                                         ",
"                            7 q *.W z p i a a a j v B B M x                 7 &.j.j.&.7                                         ",
"                            7 q *.W z 4 g h h h v m 8 8 M x                 7 &.f.f.&.7                                         ",
"                                0 q W ~ A j j v B 8 w 7 6 m v v 5 9             &.&.                                            ",
"                                0 r u.=.A h v M B 5 5 8 0 w M M 6 9             7 7                                             ",
"                            7 q *.*.r Z G v B B M v v V =.*.T 8 8 9                                                             ",
"                            7 q *.*.w B v N 8 8 M v A I :.u.q 9 9 7                                                             ",
"                                q T M v     7 7 6 Z =.:.d.u.q 7 7 7                                                             ",
"                                7 5 x j     9 7 7 0 *.i.s.*.q 7 7 9                                                             ",
"                                                7 w 0 r u.u.q 7                                                                 ",
"                                                9 7 7 q u.u.q 9                                                                 ",
"                                                                                                                                ",
"                                                                                                                                ",
"                                                                                                                                ",
"                                                                                                                                ",
"                                                                                                                                ",
"                                                                                                                                ",
"                                                                                                                                ",
"                                                                                                                                ",
"                                                                                                                                ",
"                                                                                                                                ",
"                                                                                                                                ",
"                                                                                                                                ",
"                                                                                                                                ",
"                                                                                                                                "
};
