/* XPM */
static char *f6e938f5207e4b2595e1ac24da99b5f6HUPdiOWoWzY7qkoY[] = {
/* columns rows colors chars-per-pixel */
"32 32 18 1 ",
"  c None",
". c #1B5051",
"X c #2D7B43",
"o c #256750",
"O c #5FB535",
"+ c #3D9756",
"@ c #5AAE71",
"# c #7EDD69",
"$ c #8AD44F",
"% c #93F77C",
"& c #B8EC76",
"* c #489981",
"= c #4FA2A2",
"- c #68C381",
"; c #61D582",
": c #75D5D5",
"> c #EAD691",
", c #8FF2F2",
/* pixels */
"                                ",
"                                ",
"                                ",
"                                ",
"                                ",
"      ---@                      ",
"     -,,:@**                    ",
"     -@:@=@:*                   ",
"     -,@=>@:*                   ",
"      -:=@:*                    ",
"       @,+*          --         ",
"      ;%@*XX        -,:@        ",
"      %++%%#%X     -,>>:@       ",
"      %+ +XX;%X     -,:@OO      ",
"      +   + X#%X    +@@$$$O     ",
"        ;%+. .+.  -- +@@OO      ",
"       ;%%+X. .   ++++++        ",
"       %%+ +.$   O&$++$$O       ",
"       ++oX.OOO O&OOO$OO        ",
"        O$Xo++OO O O$O          ",
"       O$oo++O+    O&O          ",
"        O$++OOO+O   O           ",
"       O$O+O++$OO               ",
"        O+ OO$$OO               ",
"            OO$O                ",
"                                ",
"                                ",
"                                ",
"                                ",
"                                ",
"                                ",
"                                "
};
