/* XPM */
static char *b2532d5bfde544abf6b731d40e81bbefkUAqBXgL0QEuDnyN[] = {
/* columns rows colors chars-per-pixel */
"64 64 167 2 ",
"   c #090708",
".  c #0D0C0C",
"X  c #110D0D",
"o  c #0B130B",
"O  c #0D1C08",
"+  c #0D1307",
"@  c #11120D",
"#  c #0F0E10",
"$  c #110D11",
"%  c #151611",
"&  c #151B12",
"*  c #181D13",
"=  c #1A1F18",
"-  c #2B1A0B",
";  c #092703",
":  c #0E2E05",
">  c #14260E",
",  c #0F3409",
"<  c #103806",
"1  c #18380F",
"2  c #1A2316",
"3  c #1B2319",
"4  c #1B3C14",
"5  c #222506",
"6  c #222E1C",
"7  c #212316",
"8  c #352D16",
"9  c #25331E",
"0  c #273420",
"q  c #283720",
"w  c #2C3A23",
"e  c #323F25",
"r  c #4F2B07",
"t  c #592E0B",
"y  c #5B3109",
"u  c #6F3A08",
"i  c #723D09",
"p  c #703B05",
"a  c #0E4404",
"s  c #0C4C02",
"d  c #104905",
"f  c #14460B",
"g  c #0D5502",
"h  c #125705",
"j  c #0F6501",
"k  c #0F6D00",
"l  c #116403",
"z  c #116A01",
"x  c #127E00",
"c  c #286919",
"v  c #2D4125",
"b  c #314529",
"n  c #374B2F",
"m  c #354322",
"M  c #365029",
"N  c #305D24",
"B  c #3E5A32",
"V  c #5A501F",
"C  c #634717",
"Z  c #615A26",
"A  c #456138",
"S  c #456536",
"D  c #4F753C",
"F  c #61612B",
"G  c #575656",
"H  c #585756",
"J  c #595957",
"K  c #595758",
"L  c #5A5C58",
"P  c #557E42",
"I  c #5F645B",
"U  c #616759",
"Y  c #636E5D",
"T  c #66735F",
"R  c #68765F",
"E  c #677961",
"W  c #9F4F06",
"Q  c #904B06",
"!  c #B45B05",
"~  c #B8670B",
"^  c #B46E11",
"/  c #C66204",
"(  c #CE6703",
")  c #CC6C06",
"_  c #C66F0E",
"`  c #D16702",
"'  c #D66B02",
"]  c #DD6D02",
"[  c #DE7104",
"{  c #DD7108",
"}  c #D27F15",
"|  c #E16E03",
" . c #E36F08",
".. c #E07004",
"X. c #E3740C",
"o. c #E5780F",
"O. c #E97A0F",
"+. c #E47610",
"@. c #E67B13",
"#. c #EA7C15",
"$. c #E77D19",
"%. c #EC7D18",
"&. c #128001",
"*. c #1E880A",
"=. c #218B0F",
"-. c #2F971A",
";. c #288915",
":. c #479F31",
">. c #4A9337",
",. c #5A8449",
"<. c #63924E",
"1. c #6D9F56",
"2. c #6BA357",
"3. c #71A959",
"4. c #77B25E",
"5. c #698063",
"6. c #6E8863",
"7. c #749267",
"8. c #799967",
"9. c #759569",
"0. c #789B69",
"q. c #759969",
"w. c #7CA56C",
"e. c #7FAD6D",
"r. c #7DBC63",
"t. c #7FC263",
"y. c #E58016",
"u. c #EA801C",
"i. c #81AB6B",
"p. c #84B471",
"a. c #89BE74",
"s. c #85BE71",
"d. c #80C164",
"f. c #89CF6D",
"g. c #88D06C",
"h. c #87C174",
"j. c #8ECE76",
"k. c #8BC173",
"l. c #90CE78",
"z. c #8EDA72",
"x. c #93DE74",
"c. c #95D779",
"v. c #95E375",
"b. c #97E778",
"n. c #99E17D",
"m. c #9EEC7D",
"M. c #9FF27E",
"N. c #A0F57E",
"B. c #A6FE7F",
"V. c #A4F782",
"C. c #A6FE83",
"Z. c #A7FF82",
"A. c #A6FF81",
"S. c #A5FF84",
"D. c #A6FE84",
"F. c #A7FF84",
"G. c #A7FF85",
"H. c #A6FF84",
"J. c #A7FF84",
"K. c #A8FF83",
"L. c #A9FE82",
"P. c #A9FF84",
"I. c #A8FF85",
"U. c #AAFF85",
"Y. c #A8FF86",
"T. c #A9FF84",
"R. c #A8FF88",
/* pixels */
"F.F.F.F.F.F.F.F.F.F.F.F.F.F.F.F.F.F.F.F.F.F.F.F.F.F.F.C.F.F.F.F.F.F.F.F.F.F.F.F.F.F.F.F.F.F.F.F.F.F.F.F.F.F.F.F.F.F.F.F.F.F.F.F.",
"F.F.F.F.F.F.F.F.F.F.F.F.F.F.F.F.F.F.F.F.F.F.F.F.C.F.C.C.K.C.F.F.C.C.C.C.F.F.F.F.F.F.F.F.F.F.F.F.F.F.F.F.F.F.F.F.F.F.F.F.F.F.F.F.",
"F.F.F.F.F.F.F.F.F.F.F.F.F.F.F.F.F.F.F.F.F.F.F.F.F.C.C.F.C.Y.C.F.F.F.K.C.Y.F.C.C.F.F.F.F.F.F.F.F.F.F.F.F.F.F.F.F.F.F.F.F.F.F.F.F.",
"F.F.F.F.F.F.F.F.F.F.F.F.F.F.F.F.F.F.F.F.F.F.F.F.C.F.F.F.Y.C.C.F.C.C.C.F.C.C.C.C.F.F.F.F.F.F.F.F.F.F.F.F.F.F.F.F.F.F.F.F.F.F.F.F.",
"F.F.F.F.F.F.F.F.F.F.F.F.F.F.F.F.F.F.F.F.F.F.F.F.F.C.d.d.x.V.F.Y.F.F.K.C.C.K.F.F.F.F.F.F.F.F.F.F.F.F.F.F.F.F.F.F.F.F.F.F.F.F.F.F.",
"F.F.F.F.F.F.F.F.F.F.F.F.F.F.F.F.F.F.F.F.F.F.F.F.C.2 @ 2 3 & & & 2.F.F.K.Y.C.Y.C.F.F.F.F.F.F.F.F.F.F.F.F.F.F.F.F.F.F.F.F.F.F.F.F.",
"F.F.F.F.F.F.F.F.F.F.F.F.F.F.F.F.F.F.F.F.F.F.F.F.F.3.@ x &.x &.;.9 % r.F.C.F.K.C.F.F.F.F.F.F.F.F.F.F.F.F.F.F.F.F.F.F.F.F.F.F.F.F.",
"F.F.F.F.F.F.F.F.F.F.F.F.F.F.F.F.F.F.F.F.F.F.F.F.C.3.o x &.&.&.&.&.&.9 S C.F.F.F.F.F.F.F.F.F.F.F.F.F.F.F.F.F.F.F.F.F.F.F.F.F.F.F.",
"F.F.F.F.F.F.F.F.F.F.F.F.F.F.F.F.F.C.F.F.F.F.F.F.F.z.. &.&.x x >.*.&.&.9 2.Y.K.F.F.C.K.Y.K.C.C.F.F.F.F.F.F.F.F.F.F.F.F.F.F.F.F.F.",
"F.F.F.F.F.F.F.F.F.F.F.F.F.F.F.F.F.F.F.C.F.Y.F.C.F.S.. *.&.x &.< 2 % &.&.b C.F.F.F.Y.C.K.Y.C.K.F.F.F.F.F.F.F.F.F.F.F.F.F.F.F.F.F.",
"F.F.F.F.F.F.F.F.F.F.F.F.F.F.F.F.F.F.C.F.F.Y.K.K.F.F.& & x &.x x &.D % &.l P Y.Y.3.X . . . * K.Y.F.F.F.F.F.F.F.F.F.F.F.F.F.F.F.F.",
"F.F.F.F.F.F.F.F.F.F.F.F.F.F.F.F.K.C.Y.C.F.C.K.F.F.F.S.. v x x x &.&.s o . f d.o X h z x N   F.C.F.F.F.F.F.F.F.F.F.F.F.F.F.F.F.F.",
"F.F.F.F.F.F.F.F.F.F.F.F.F.F.F.F.F.F.R.F.K.Y.Y.C.C.F.S.F.. & &.x x x x ; . j 3 -.l l x x . F.F.Y.F.F.F.F.F.F.F.F.F.F.F.F.F.F.F.F.",
"F.F.F.F.F.F.F.F.F.F.F.F.F.F.F.F.F.F.C.K.Y.K.C.C.F.S.V.C.C.. . . 4 h :.; . x 4 . + O , a . F.F.C.F.F.F.F.F.F.F.F.F.F.F.F.F.F.F.F.",
"F.F.F.F.F.F.F.F.F.F.F.F.F.F.F.F.F.F.Y.F.K.C.F.Y.K.K.,.% ~ ..| Q . .   . @ . 4 g g x &.. M.F.C.C.F.F.F.F.F.F.F.F.F.F.F.F.F.F.F.F.",
"F.F.F.F.F.F.F.F.F.F.F.F.F.F.F.F.F.F.K.C.C.Y.F.d.X X X { [ [ ] ..( O j g g g   . . . . ^ e F.Y.C.F.F.F.F.F.F.F.F.F.F.F.F.F.F.F.F.",
"F.F.F.F.F.F.F.F.C.K.C.C.Y.C.F.F.F.F.Y.C.F.. . . / ] | ] ' ' ` @ . z z k k k j z a k g ] % . F.F.F.F.F.F.Y.K.K.F.F.F.F.F.F.F.F.F.",
"F.F.F.F.F.F.F.F.Y.K.F.F.C.F.K.K.C.Y.F.<.. p ' ] ' ] ] ] ] ` r . . . 5 o k k c < j 2 ' ..| Z X Y.F.C.C.C.Y.K.F.F.F.F.F.F.F.F.F.F.",
"F.F.F.F.F.F.F.F.B.C.C.C.Y.C.C.K.K.Y.. . ] ' ] ] ] ] ] ' ] ] ] ' / ( ' . k k ; > @ . ] | { [ ^ . C.F.Y.C.C.C.F.F.F.F.F.F.F.F.F.F.",
"F.F.F.F.F.F.F.F.C.C.C.F.C.Y.K.Y.C.. m ] ' ] ] ] | ] | ] ] | | ] #.%.] i # o M ( ` ( ..' ] ] | } . Y.F.B.C.C.C.C.F.F.F.F.F.F.F.F.",
"F.F.F.F.F.F.F.F.F.F.F.F.C.C.F.C.. W | ' ] ] | | ] | | ..| ] | ] %...] [ . 9 ) ] ..] ] ' ' ] ] ] 8 . K.C.C.K.F.C.F.F.F.F.F.F.F.F.",
"F.F.F.F.F.F.F.F.F.C.F.F.C.K.Y.. i | ] '  .] | ] [ #.#.' [ | { ] ] ] ] ] ....| ] | ] ....#.#.' | ... g.C.C.K.F.C.F.F.F.F.F.F.F.F.",
"F.F.F.F.F.F.F.F.C.K.C.Y.C.C.. 9 | ] ' | ..| ..] | ] %.#.] ] ] ] ..| ] ..] ] ] ' ] | ] ..] #.X.' ] ] . K.C.C.B.K.F.F.F.F.F.F.F.F.",
"F.F.F.F.F.F.F.F.Y.K.Y.K.Y.4.X | | X.X.] | ] ..| ..| X.+.@.' ] ] ] [ | ] | ] | ] ' ' ] | ] ] ' ] ....@ B C.K.K.C.F.F.F.F.F.F.F.F.",
"F.F.F.F.F.F.F.F.F.Y.F.F.F.. ] | ' %.%.....' ..| ] ....| | o.y.] ] ] ......] | ....] ..| ] ' ' ' ' ..| . F.C.C.F.F.F.F.F.F.F.F.F.",
"F.F.F.F.F.F.F.F.F.F.Y.Y.3 3 ] ] ] ] #...] [ ..] ..o.#.#...] +.%.#.X.| ] [ | ] ..] ] ] ..| ] ] ] ' | [ X r.K.Y.Y.F.F.F.F.F.F.F.F.",
"F.F.F.F.F.F.F.F.F.F.C.F.. [ | [ [ ..| ] | ] ....$.u.#.#.| | [ { @.X.' ] ] ] ..#.@.%.| [ | ' ' ] ] ] ] ! . C.Y.K.F.F.F.F.F.F.F.F.",
"F.F.F.F.F.F.F.F.Y.F.F.F.. ] ] | | ] | | ....] | | { | ' #.#.] ] ' ] ] { ..| ....#.#.] { ] | ..| ..| | | . Y.F.F.F.F.F.F.F.F.F.F.",
"F.F.F.F.F.F.F.F.C.Y.K.F.. ' ] ] | ] [ | ] ] ] ] [ | ..| ' ] $.#.#...[ [ ] ....| O.....] [ | ..| ] ' ] ' . K.F.F.F.F.F.F.F.F.F.F.",
"F.F.F.F.F.F.F.F.K.C.C.C.. ] ] | ..] | ..[ | ] | | | | | X.#.] #...] ] | | ] | [ ] ] ..] | [ | ] ..] ..] . K.F.F.F.F.F.F.F.F.F.F.",
"F.F.F.F.F.F.F.F.F.F.F.F.. ' ' | | ..] | ....| ] [ | | ] ..#.%.#.] | [ | ] ..| [ ....[ ] ] ' ....{ X.{ ] . v.K.Y.F.F.F.F.F.F.F.F.",
"F.F.F.F.F.F.F.F.F.F.C.C.. ] ] | [ | | [ ] | ] ] { | [ ..[ #.#.] ..| ] | ] ] | ] ] | | | | ] ] | ] | ] | . x.Y.Y.F.F.F.F.F.F.F.F.",
"F.F.F.F.F.F.F.F.F.K.F.K.  ] ' ] ....' | #.#.| ] [ [ | ........] | [ | | [ ] ] [ | ] | | ' %.#.+.#.| ' | . x.F.F.F.F.F.F.F.F.F.F.",
"F.F.F.F.F.F.F.F.F.C.Y.Y.. ' ] ] | ..' | #.%...] ] | [ ] ..' ] | ] | | | | ] ] ] | | { ' ] +. .#.#.| | | . F.F.F.F.F.F.F.F.F.F.F.",
"F.F.F.F.F.F.F.F.F.F.Y.K.A $ ] ' | ] ] ' X.#.o.] ' ] ........[ | ....#.%.| | ] ] | ' | ] ' ] | ] ] ] ] ] . F.C.Y.F.F.F.F.F.F.F.F.",
"F.F.F.F.F.F.F.F.F.F.V.U.U.. ' ' ] ] ] ] ] | | | | ] ] ] | [ | | | ] [ #.] ] ] ' ' | ] ' ] | ' ] ] ' | - 3 F.K.C.F.F.F.F.F.F.F.F.",
"F.F.F.F.F.F.F.F.Y.Y.Y.C.Y.X ! ] ] ] ' ] ] ` ] ] [ ] ] ] ] ] ] ] | ] ] @.] ] | ..' | | ] ] ' ] ' ' ] ' . Y.Y.F.C.F.F.F.F.F.F.F.F.",
"F.F.F.F.F.F.F.F.Y.C.K.Y.C.C.. ] ] ] | ' ] ' ' ] ] | | ] ] ] ] [ | | [ ] ] ] ] | | ] ' ' ' ] ' ] ] ] t X Y.K.Y.C.F.F.F.F.F.F.F.F.",
"F.F.F.F.F.F.F.F.C.F.F.F.Y.C.. F ] | ] | ] ] ' ] ..] | ] ..] ] ] | ] | ] ] ..] ] | | | ' ' | ' | ] ] . F.C.K.Y.Y.F.F.F.F.F.F.F.F.",
"F.F.F.F.F.F.F.F.F.F.C.F.C.Y.F.. ' ] | ] ] ] ] ] | | [ ..| | ] ' ] [ ] | ] ] ] | ] | | | ' ' | ] ] . w C.K.Y.C.Y.F.F.F.F.F.F.F.F.",
"F.F.F.F.F.F.F.F.Y.F.F.F.F.F.F.z.. ' ] | ] | ] | ] X.$.| | ] ] ] ] ' ..| | ' ' ] ] | | ] ] ] ] ] 3 . Y.C.F.F.F.F.F.F.F.F.F.F.F.F.",
"F.F.F.F.F.F.F.F.C.F.F.C.Y.F.F.C.3.. ' ' ' ] | ] ] ] O.' ' | ..] [ ' ] ' | ' ' ] ' ' ' | ] ] ' C . K.C.C.Y.F.F.F.F.F.F.F.F.F.F.F.",
"F.F.F.F.F.F.F.F.F.F.F.F.C.K.F.F.C.1.. ` ' ] ] | | ] ] ] ' ] ' ] ' ' ] ] ' ] ' ] ] ' ' ' ] ] . . C.F.F.F.F.F.F.F.F.F.F.F.F.F.F.F.",
"F.F.F.F.F.F.F.F.F.F.F.F.C.C.Y.C.C.C.C.# . ' ] | ] ] ' ] | | | ' ] ' ] ] ] ' ' ' ' ] ' | - . n C.F.F.Y.F.F.F.F.F.F.F.F.F.F.F.F.F.",
"F.F.F.F.F.F.F.F.F.F.F.K.F.F.F.F.C.F.K.C.<.. . i ] | ] ] ] ' ' ' ' ' ] ' ' ] ] ] ] | % . 6 F.C.F.Y.Y.C.Y.F.F.F.C.F.F.F.F.F.F.F.F.",
"F.F.F.F.F.F.F.F.F.F.F.F.F.F.F.F.F.K.C.K.V.Y.b.@ . . . y ~ / ' ] ] ' ' _ V @ . . . . ,.V.F.F.F.F.F.C.C.C.F.F.F.F.F.F.F.F.F.F.F.F.",
"F.F.F.F.F.F.F.F.F.F.F.F.F.F.F.F.F.F.F.Y.C.Y.Y.F.F.F.f.7 X $ . . . X . X 3 3.v.Y.V.V.U.U.F.F.F.F.C.F.C.F.F.F.F.F.F.F.F.F.F.F.F.F.",
"F.F.F.F.F.F.F.F.C.F.F.F.F.F.C.F.Y.F.F.F.F.F.F.F.F.F.F.C.F.F.F.F.V.U.V.Y.Y.F.Y.Y.U.R.U.U.F.F.F.F.F.F.F.F.F.F.F.F.F.F.F.F.F.F.F.F.",
"F.F.F.F.F.F.F.F.F.F.F.F.F.F.F.F.F.F.Y.Y.K.C.F.F.F.F.F.Y.Y.C.K.F.F.F.F.F.Y.V.F.F.F.F.F.C.C.Y.C.C.F.F.F.F.F.F.F.F.F.F.F.F.F.F.F.F.",
"F.F.F.F.F.F.F.F.F.F.F.F.F.F.F.F.F.F.C.K.F.C.F.C.F.F.Y.K.Y.C.F.F.F.F.F.Y.Y.U.U.F.Y.F.F.F.K.K.Y.F.F.F.F.F.F.F.F.F.F.F.F.F.F.F.F.F.",
"F.F.F.F.F.F.F.F.F.F.F.F.F.F.F.F.F.F.C.C.F.Y.F.K.F.C.K.Y.F.C.C.C.F.F.C.K.Y.Y.R.F.F.Y.F.F.Y.C.Y.C.F.F.F.F.F.F.F.F.F.F.F.F.F.F.F.F.",
"F.F.F.F.F.F.F.F.F.F.F.F.F.F.F.F.C.K.C.C.Y.C.Y.K.C.C.C.K.K.K.K.K.C.C.C.C.Y.K.V.V.C.C.F.F.C.K.K.F.F.F.F.F.F.F.F.F.F.F.F.F.F.F.F.F.",
"F.F.F.F.F.F.F.F.F.F.F.F.F.F.F.F.F.F.C.Y.C.K.K.C.V.j.h.l.a.p.i.w.9.7.q.i.V.V.V.V.V.C.F.S.Y.C.C.Y.F.F.F.F.F.F.F.F.F.F.F.F.F.F.F.F.",
"F.F.F.F.F.F.F.F.F.F.F.F.F.F.F.F.K.C.K.C.F.m.8.J J K G G K G K K G H G H K G G G J H I p.C.C.C.C.F.F.F.F.F.F.F.F.F.F.F.F.F.F.F.F.",
"F.F.F.F.F.F.F.F.F.F.F.F.F.F.F.F.C.Y.6.L L I G H G H J K H H J J K K G K G G J H H G H I T k.C.C.F.F.F.F.F.F.F.F.F.F.F.F.F.F.F.F.",
"F.F.F.F.F.F.F.F.F.F.F.F.F.F.F.F.Y.K.7.Y Y L J H H H G G K H G J J J K G G G J H H H H E Y 5.R 0.F.F.F.F.F.F.F.F.F.F.F.F.F.F.F.F.",
"F.F.F.F.F.F.F.F.F.F.F.F.F.F.F.F.F.F.V.w.0.0.9.T J J J K H G K K J J J J J K J U Y Y Y Y E 0.j.K.F.F.F.F.F.F.F.F.F.F.F.F.F.F.F.F.",
"F.F.F.F.F.F.F.F.F.F.F.F.F.F.F.F.C.Y.C.Y.C.V.N.V.V.V.N.n.s.i.9.7.9.w.a.c.n.m.V.K.C.Y.Y.C.C.F.C.F.F.F.F.F.F.F.F.F.F.F.F.F.F.F.F.F.",
"F.F.F.F.F.F.F.F.F.F.F.F.F.F.F.F.F.F.F.F.K.C.K.C.K.C.F.F.C.C.Y.K.C.F.C.K.C.Y.C.K.F.F.F.C.F.Y.F.F.F.F.F.F.F.F.F.F.F.F.F.F.F.F.F.F.",
"F.F.F.F.F.F.F.F.F.F.F.F.F.F.F.F.F.F.V.F.C.K.C.F.C.F.C.K.K.C.K.Y.F.Y.C.C.Y.F.F.F.F.F.F.F.F.C.C.F.F.F.F.F.F.F.F.F.F.F.F.F.F.F.F.F.",
"F.F.F.F.F.F.F.F.F.F.F.F.F.F.F.F.F.F.F.F.K.Y.Y.K.Y.C.F.F.F.F.F.C.C.F.F.C.C.Y.C.K.F.F.F.F.C.F.C.Y.F.F.F.F.F.F.F.F.F.F.F.F.F.F.F.F.",
"F.F.F.F.F.F.F.F.F.F.F.F.F.F.F.F.F.F.F.F.F.K.F.Y.C.Y.B.Y.Y.F.C.C.C.K.K.B.F.F.C.Y.F.K.F.F.F.K.C.C.F.F.F.F.F.F.F.F.F.F.F.F.F.F.F.F.",
"F.F.F.F.F.F.F.F.F.F.F.F.F.F.F.F.F.Y.F.F.F.F.Y.C.Y.C.Y.K.K.F.C.F.F.F.C.C.C.Y.K.F.F.C.F.F.F.F.F.Y.F.F.F.F.F.F.F.F.F.F.F.F.F.F.F.F.",
"F.F.F.F.F.F.F.F.F.F.F.F.F.F.F.F.F.F.F.F.F.F.C.C.C.C.C.C.C.Y.C.F.F.F.C.Y.C.C.C.C.F.F.F.F.F.F.C.C.F.F.F.F.F.F.F.F.F.F.F.F.F.F.F.F."
};
