/* XPM */
static char *_ff10d985f964df790afc219e06755e3LMU19ekedsFYPSrs[] = {
/* columns rows colors chars-per-pixel */
"64 64 158 2 ",
"   c #0D0C0C",
".  c #0C0B07",
"X  c #100D0E",
"o  c #0B1806",
"O  c #0D120C",
"+  c #0D1F09",
"@  c #12110C",
"#  c #10180D",
"$  c #0F0A10",
"%  c #141511",
"&  c #151B12",
"*  c #2C1A0C",
"=  c #331E0B",
"-  c #0D2709",
";  c #0F2A0B",
":  c #0C2F05",
">  c #19240D",
",  c #0C3106",
"<  c #0F3C06",
"1  c #14380C",
"2  c #1A2216",
"3  c #1C2418",
"4  c #1B3514",
"5  c #1B3915",
"6  c #3F2407",
"7  c #262E1F",
"8  c #2B2412",
"9  c #37371D",
"0  c #3C381B",
"q  c #273420",
"w  c #293B23",
"e  c #41260B",
"r  c #43280B",
"t  c #4E2A0A",
"y  c #552F0A",
"u  c #6F3C07",
"i  c #6A3F0C",
"p  c #753C06",
"a  c #723A08",
"s  c #0D4503",
"d  c #0C4C02",
"f  c #104406",
"g  c #124E08",
"h  c #134908",
"j  c #0D5501",
"k  c #0F5B01",
"l  c #115105",
"z  c #125E06",
"x  c #1D5911",
"c  c #0F6402",
"v  c #0F6C00",
"b  c #126502",
"n  c #116C02",
"m  c #1C6E0C",
"M  c #127E00",
"N  c #276818",
"B  c #334326",
"V  c #35472B",
"C  c #35492B",
"Z  c #394E2F",
"A  c #3A4525",
"S  c #315C24",
"D  c #3F5831",
"F  c #3B7C2A",
"G  c #59481C",
"H  c #7A460A",
"J  c #634717",
"K  c #6F4713",
"L  c #4C552A",
"P  c #5C5622",
"I  c #615928",
"U  c #48673B",
"Y  c #476839",
"T  c #4F743E",
"R  c #786322",
"E  c #575656",
"W  c #585657",
"Q  c #585659",
"!  c #517643",
"~  c #527943",
"^  c #617B54",
"/  c #8D4807",
"(  c #8B4B09",
")  c #9F4F06",
"_  c #9E5006",
"`  c #814F12",
"'  c #A55305",
"]  c #A45508",
"[  c #AE5908",
"{  c #AB5606",
"}  c #B65C04",
"|  c #B0640E",
" . c #BC690D",
".. c #B26B11",
"X. c #CF6A04",
"o. c #C96303",
"O. c #D36702",
"+. c #D66B02",
"@. c #DD6D02",
"#. c #D57006",
"$. c #DE7004",
"%. c #DF720A",
"&. c #E16E03",
"*. c #E36F0A",
"=. c #E07004",
"-. c #E3750C",
";. c #E47611",
":. c #E67A12",
">. c #E97C15",
",. c #EA7D19",
"<. c #138102",
"1. c #278814",
"2. c #288915",
"3. c #2F971A",
"4. c #449D2F",
"5. c #558146",
"6. c #5A8547",
"7. c #5B864A",
"8. c #5C884D",
"9. c #63904E",
"0. c #669551",
"q. c #679B53",
"w. c #6BA255",
"e. c #6FAA5A",
"r. c #71AA5A",
"t. c #75B35E",
"y. c #6E8863",
"u. c #738E66",
"i. c #7DBB65",
"p. c #7FC261",
"a. c #E58016",
"s. c #C88B21",
"d. c #ABAC44",
"f. c #84B66F",
"g. c #80C366",
"h. c #85C867",
"j. c #8BD36E",
"k. c #8FD86F",
"l. c #99D166",
"z. c #8BC475",
"x. c #8CD670",
"c. c #91D077",
"v. c #92DC73",
"b. c #96E276",
"n. c #99E777",
"m. c #9BE77C",
"M. c #9CEA7B",
"N. c #9EF17F",
"B. c #A1F17E",
"V. c #A6FF7F",
"C. c #A7FF84",
"Z. c #A7FF84",
"A. c #A9FF82",
"S. c #A9FF84",
"D. c #A8FF85",
"F. c #AAFF85",
"G. c #A9FE85",
"H. c #A9FF84",
/* pixels */
"C.C.C.C.C.Z.C.C.Z.C.C.Z.C.C.Z.C.C.C.C.C.C.C.C.C.C.C.C.C.C.C.C.C.C.C.C.C.C.C.C.C.C.C.C.C.C.C.C.S.C.C.C.C.S.C.C.Z.C.C.Z.C.C.Z.C.C.",
"C.C.C.C.C.C.C.C.C.C.C.C.C.C.C.C.C.C.C.C.C.C.C.C.C.C.C.C.C.C.C.C.C.C.C.C.C.C.C.C.C.Z.Z.C.C.Z.C.Z.C.Z.Z.C.Z.C.C.C.C.C.C.C.C.C.C.C.",
"C.C.C.C.Z.C.C.Z.C.C.C.C.Z.C.C.Z.C.C.C.C.C.C.C.C.C.S.C.C.C.C.C.C.C.C.C.C.C.C.C.C.C.C.C.C.C.Z.C.C.C.C.C.C.C.C.C.C.Z.C.C.C.C.Z.Z.C.",
"C.C.C.C.C.C.C.C.Z.C.C.Z.C.C.C.C.C.C.C.C.C.C.C.C.C.C.C.C.C.C.C.C.C.C.C.C.C.C.C.C.C.C.Z.C.C.C.C.C.C.Z.C.C.C.Z.C.C.C.C.Z.C.C.C.C.C.",
"C.C.C.C.C.C.C.C.C.C.C.C.C.Z.S.C.C.C.C.C.C.C.C.C.C.C.C.C.C.C.C.C.C.C.C.C.C.C.C.C.C.C.C.C.C.Z.C.C.C.Z.C.C.Z.C.C.Z.C.C.C.C.C.C.C.C.",
"C.C.C.C.C.C.C.Z.C.Z.C.C.C.C.C.C.C.C.C.C.C.C.C.C.C.C.C.C.C.C.C.C.C.C.C.C.C.C.C.S.Z.C.C.Z.C.C.C.S.C.C.C.C.C.C.C.C.C.C.Z.S.C.Z.Z.C.",
"C.C.C.C.C.C.S.C.C.Z.C.Z.Z.C.C.Z.C.C.C.C.C.C.C.C.C.C.C.C.C.C.C.C.C.C.C.C.C.C.C.C.C.C.C.C.C.C.C.Z.C.C.C.Z.C.C.C.C.Z.C.C.C.C.C.C.C.",
"C.C.C.C.C.Z.C.C.C.C.C.C.C.C.C.C.C.C.C.C.C.C.C.C.C.C.C.C.C.C.C.C.C.C.C.C.C.C.C.C.C.Z.C.C.C.Z.C.C.C.Z.C.C.Z.C.C.Z.C.C.Z.C.C.Z.C.C.",
"C.C.C.C.C.A.C.C.C.C.C.C.C.C.C.C.C.C.C.C.C.C.C.C.C.C.C.C.C.C.C.C.C.C.C.C.C.C.C.S.C.C.C.C.C.C.C.C.C.S.C.C.C.C.C.C.C.Z.C.C.Z.C.C.Z.",
"C.C.C.C.C.C.C.Z.C.Z.C.Z.Z.C.C.Z.C.C.C.C.C.C.C.C.C.C.C.C.C.C.C.C.C.C.C.C.C.C.C.C.C.C.C.C.Z.C.C.Z.C.C.Z.C.C.Z.C.C.C.C.C.C.C.C.C.C.",
"C.C.C.C.C.C.C.C.C.Z.C.C.C.S.C.C.C.C.C.C.C.C.C.C.C.C.C.C.C.C.C.C.C.C.C.C.C.C.C.C.C.C.C.C.C.C.C.C.C.Z.Z.C.C.Z.C.Z.C.C.C.Z.C.C.C.C.",
"C.C.C.C.C.C.C.C.C.C.C.C.C.C.Z.C.C.C.C.C.S.C.C.C.C.C.C.C.C.C.C.C.C.C.C.C.C.C.C.C.C.C.C.C.C.Z.C.C.C.C.C.C.C.C.C.C.C.Z.C.C.Z.C.C.Z.",
"C.C.C.C.Z.C.C.Z.C.C.Z.C.C.C.C.C.C.C.C.C.C.C.C.C.C.C.C.C.C.C.C.C.C.C.C.C.C.C.C.C.C.C.C.C.Z.C.C.Z.C.C.C.C.C.C.C.C.Z.C.C.Z.C.C.Z.C.",
"C.C.C.C.C.C.C.C.Z.C.C.C.Z.C.C.Z.C.C.C.C.C.C.C.C.C.C.C.C.C.C.C.C.C.C.C.C.C.C.C.C.C.C.C.C.C.C.C.C.C.Z.Z.C.Z.C.C.Z.C.C.C.C.C.C.C.C.",
"C.C.C.C.C.C.C.C.C.C.C.C.C.C.C.C.C.C.C.C.C.C.C.C.C.C.C.C.C.C.C.C.C.C.C.C.C.C.C.C.C.C.C.C.C.C.C.C.C.C.C.C.C.C.C.C.C.C.C.C.Z.C.C.Z.",
"C.C.C.C.Z.C.C.Z.C.C.Z.C.C.C.Z.C.C.C.C.C.C.C.C.C.C.C.C.C.C.C.C.C.C.C.C.C.C.C.C.C.C.C.C.C.Z.C.C.Z.C.Z.C.C.C.Z.C.C.Z.C.C.C.S.C.C.C.",
"C.C.C.C.C.C.C.C.Z.C.C.Z.C.C.Z.C.C.C.C.C.C.S.C.C.C.C.C.C.C.C.C.G.Z.Z.Z.Z.C.Z.Z.Z.Z.Z.C.Z.C.S.C.C.C.C.C.C.C.C.C.C.C.C.C.C.C.C.C.C.",
"C.C.C.C.C.C.C.C.C.C.C.C.C.C.C.C.Z.C.Z.C.C.Z.C.C.C.C.C.C.C.C.G.C.Z.Z.Z.G.Z.Z.Z.Z.Z.Z.C.C.C.C.C.C.Z.C.C.Z.Z.C.C.Z.Z.C.Z.C.C.Z.Z.C.",
"C.C.C.C.C.C.C.C.C.C.C.C.Z.C.C.C.C.C.Z.C.C.Z.Z.C.C.C.m.C.Z.C.C.C.C.C.G.Z.Z.Z.Z.Z.Z.Z.C.C.C.C.C.C.C.C.C.C.C.C.C.C.C.C.Z.C.C.C.C.C.",
"C.C.C.C.C.C.C.C.Z.C.C.Z.C.C.Z.C.C.C.C.C.C.C.C.C.0.& 3 3 p.C.G.C.Z.Z.Z.G.Z.Z.Z.Z.Z.Z.C.G.C.C.C.C.C.C.Z.C.C.Z.C.C.C.C.C.C.S.Z.C.C.",
"C.C.C.C.C.C.C.C.C.Z.C.C.C.C.Z.C.C.C.C.C.C.C.C.C.e.% M <.M M 1.w.Z.Z.G.Z.A.C.C.Z.G.Z.Z.Z.C.C.C.C.Z.C.C.Z.C.C.C.Z.C.C.Z.C.C.C.C.C.",
"C.C.Z.C.C.Z.Z.C.C.S.C.C.Z.C.C.C.C.C.Z.C.C.Z.Z.C.e.O M <.M <.1.w.Z.V.Z.V.C.C.C.C.Z.Z.Z.Z.C.C.C.C.C.C.C.C.C.C.C.C.Z.C.C.C.C.Z.Z.C.",
"Z.C.Z.C.C.Z.S.C.C.C.C.C.C.C.C.C.Z.C.Z.C.C.C.C.C.v.  M M <.M <.M M 7 Y Z.A.C.C.Z.Z.Z.Z.Z.x.x.Z.Z.C.C.C.C.Z.C.C.C.C.C.C.C.C.C.C.C.",
"C.C.C.C.C.C.C.C.Z.C.C.Z.C.C.Z.C.C.C.C.C.C.Z.C.C.C.. M M M M F m b M x T C.C.Z.k.  $ . $ & w Z.Z.Z.C.C.Z.S.C.C.Z.C.C.Z.C.C.Z.C.C.",
"C.C.C.C.Z.C.C.Z.C.C.Z.C.C.C.Z.C.C.C.C.S.C.C.S.C.C.C.  M <.M <.M T % M b ~ C.C.  g n M S V C.Z.Z.C.C.V.C.C.C.S.A.Z.C.C.Z.C.C.C.Z.",
"Z.C.C.Z.C.C.C.C.C.C.C.C.C.C.C.C.Z.Z.C.C.C.C.C.C.C.C.C.  M <.<.M M d O . h q.3.b b M M - V C.Z.Z.C.C.C.C.C.C.C.C.C.C.C.C.C.C.C.C.",
"C.C.C.C.C.C.C.C.Z.C.C.Z.C.Z.Z.C.Z.C.C.Z.C.C.C.S.C.Z.Z.C.X f M M M M -   b 4 O O + < M -   Z.Z.Z.C.Z.C.C.C.C.C.C.C.C.C.C.C.C.C.C.",
"C.C.Z.C.Z.C.C.Z.C.C.C.C.C.C.C.C.C.C.C.C.C.C.C.S.C.v.Z  .&.&.t 1 z 4.- O $ 5 d s , ; 1 . Z.Z.Z.Z.C.Z.C.C.C.C.C.C.Z.C.C.Z.C.C.S.Z.",
"C.Z.C.C.Z.C.C.C.C.C.S.C.C.C.C.C.C.Z.Z.Z.Z.A.C.N.Z.e.A +.$.$.$._ o c j j j 4 g j v M c ..w C.C.C.C.Z.Z.Z.C.C.Z.Z.C.Z.C.C.Z.C.C.Z.",
"C.C.C.C.C.S.C.C.Z.C.Z.C.Z.C.Z.C.G.Z.C e.Z.      X   r &.#.@./ y ; v k k j , .     . : @.&   C S.Z.Z.Z.Z.C.Z.C.Z.C.C.C.Z.C.C.C.C.",
"C.C.C.Z.C.C.C.Z.C.C.Z.C.C.C.Z.C.Z.i.A |   / +.@.o.&.&.@.@.+.u   < n v v v c c v s c +.&.&.I i l.S.A.Z.Z.C.C.Z.Z.C.C.C.C.C.C.C.C.",
"C.Z.C.C.C.Z.C.C.C.C.C.C.C.C.C.C.p.  A +.+.@.&.&.&.+.@.+.+.+.6   . @ > + v v N s c 2 $.&.@.%.] K   0.M.Z.C.C.Z.Z.C.Z.C.C.Z.C.C.Z.",
"C.C.C.C.C.C.C.C.C.C.C.C.C.C.S.X e ) &.+.+.&.&.=.&.@.@.+.@.=.=.+.o.o.' . v v + > @ O.&.+.@.+.&.&.( 8 O v.Z.C.C.C.C.C.C.C.C.C.C.C.",
"C.C.C.C.C.C.C.C.C.C.C.C.C.S.  q a &.@.+.&.$.&.@.&.-.&.&.=.&.&.=.,.;.=.( . % P X.+.@.&.@.,.@.+.+.@.&.    C.C.C.C.C.C.C.C.C.C.C.C.",
"C.C.C.C.C.C.C.C.C.S.C.C.C.M.  &.&.+.@.@.&.&.&.$.&.&.,.@.@.=.$.@.=.=.@.@.p ` #.@.@.@.$.&.-.>.-.-.+.&.=.@ 5.C.Z.C.C.C.C.C.C.C.C.C.",
"C.C.C.C.C.C.C.C.C.C.C.C.h.t.  @.@.-.-.@.@.&.$.&.=.$.,.:.+.@.=.&.=.$.@.&.&.$.@.@.@.@.$.$.=.-.:.+.+.&.&.&.D C.C.C.C.C.C.C.C.C.C.C.",
"C.C.C.C.C.C.C.C.C.C.C.C.C [ @.&.@.>.,.-.@.@.@.&.&.-.@.:.>.+.+.+.@.@.&.=.$.@.&.$.@.=.&.&.&.&.+.+.@.+.=.@.  v.C.C.C.C.C.C.C.C.C.C.",
"C.C.C.C.C.C.C.C.C.C.C.C.V &.&.@.@.@.-.&.@.@.&.=.&.;.,.;.&.:.>.@.+.@.-.=.@.=.@.&.&.=.@.&.=.&.+.@.+.@.+.=.X i.C.C.C.C.C.C.C.C.C.C.",
"C.C.C.C.C.C.C.C.C.C.C.C.V +.@.@.=.@.=.&.=.&.&.=.,.a.>.,.=.@.-.,.,.-.$.@.&.=.=.,.>.,.=.&.&.$.+.@.@.@.@.&.}   C.C.C.C.C.C.C.C.C.C.",
"C.C.C.C.C.C.C.C.C.C.C.C.V @.@.&.=.@.&.$.=.@.=.@.@.=.&.@.>.;.$.$.;.-.+.@.=.@.=.=.>.>.,.+.=.@.@.&.&.&.@.@.@.  S.S.C.C.C.C.C.C.C.C.",
"C.C.C.C.C.C.C.C.C.Z.Z.C.7.+.@.&.=.@.&.$.&.&.@.=.@.&.$.@.@.+.,.-.-.@.@.=.=.&.@.=.-.=.=.@.@.&.@.=.@.=.-.@.$.  n.C.C.C.C.C.C.C.C.C.",
"C.C.C.C.C.C.C.C.C.C.Z.Z.7.+.+.&.&.=.@.$.&.@.@.@.=.@.=.@.-.,.$.,.$.@.@.&.$.=.=.@.=.=.@.=.@.@.@.&.&.=.$.+.@.  m.C.C.C.C.C.C.S.C.C.",
"C.C.C.C.C.C.C.C.C.C.Z.C.7.@.@.@.$.@.=.&.&.&.@.@.$.=.=.=.=.>.,.>.=.@.&.$.@.@.&.$.=.=.=.=.&.&.+.&.$.=.=.@.@.X n.C.C.C.C.C.C.C.C.C.",
"C.C.C.C.C.C.C.C.C.C.C.Z.7.+.+.+.@.&.@.@.>.,.$.&.@.$.&.@.&.-.:.@.=.=.@.&.@.&.@.@.@.=.&.@.@.@.:.>.:.,.@.$.=.  C.C.C.C.C.C.C.C.C.C.",
"C.C.C.C.C.C.C.C.C.C.C.C.k.X @.+.@.@.@.@.>.>.;.@.@.@.@.=.@.@.@.=.&.&.=.=.=.&.@.&.@.=.@.&.+.@.@.@.,.@.@.@.$.3 9.C.C.C.C.C.C.C.C.C.",
"C.C.C.C.C.C.C.C.C.C.C.Z.A.w +.@.&.@.+.&.-.-.$.@.&.@.=.=.$.&.&.$.&.&.a.>.&.&.@.+.+.@.=.&.@.+.&.+.@.@.+.&.* L Z.C.C.C.Z.C.C.C.C.C.",
"C.C.C.C.C.C.C.C.S.Z.Z.S.A.d.O.@.@.+.&.@.@.+.@.&.=.@.@.=.@.$.&.=.&.=.@.>.+.&.=.@.@.+.&.&.+.&.+.@.+.@.&.+.p   S.Z.Z.C.Z.C.C.Z.Z.C.",
"C.C.S.C.C.C.C.C.Z.Z.Z.C.C.U +.+.&.&.@.@.+.@.@.@.&.@.=.@.&.@.@.@.@.@.=.-.=.+.@.&.&.=.&.+.+.@.@.+.&.&.@.' = C C.C.C.C.C.C.C.C.C.C.",
"C.C.C.C.C.C.C.C.C.C.S.C.Z.j.9 +.&.@.&.&.@.+.@.&.@.&.@.@.&.@.=.@.&.@.&.@.@.@.@.&.&.&.&.@.+.@.+.@.&.+.' X U C.C.C.C.C.C.C.C.C.C.C.",
"C.C.C.C.C.C.C.C.Z.C.C.C.Z.Z.g.R +.@.@.$.&.@.+.&.&.@.&.=.&.&.@.@.@.&.@.&.+.@.&.&.@.@.&.&.@.+.&.&.+.H & X C.Z.C.S.C.C.C.C.C.C.C.C.",
"C.C.C.C.C.C.C.C.Z.C.C.Z.G.Z.S.S.~ ] @.+.@.@.&.@.;.,.,.$.&.@.@.+.@.@.&.&.&.+.+.@.+.&.@.+.@.&.&.+.J G C F.Z.Z.C.C.C.C.C.C.C.C.C.C.",
"C.C.C.C.C.C.C.C.A.S.C.C.Z.G.Z.Z.A.V a +.+.@.@.&.&.@.&.@.@.+.&.@.+.+.@.O.@.@.+.@.+.@.+.@.@.+.+.X   C S.S.Z.Z.C.C.C.C.C.C.C.C.C.C.",
"C.C.C.C.C.C.C.C.G.V.Z.Z.Z.V.S.C.Z.C.C.C +.+.@.@.@.@.&.@.&.&.&.@.@.+.@.+.+.@.@.+.@.+.@.@.+.0 6.~ S.C.C.C.A.C.C.S.C.C.C.C.C.C.C.C.",
"C.C.C.C.C.C.C.C.Z.Z.Z.Z.Z.G.V.G.Z.C.S.b.i.B r { &.+.@.@.+.+.+.+.@.+.@.+.@.+.+.s.+.@.&.7.Q Q Z.S.C.C.S.Z.C.C.C.C.C.C.C.C.C.C.C.C.",
"C.C.C.C.C.C.C.C.Z.Z.Z.Z.Z.Z.Z.Z.Z.C.C.z.Q Q W W W E 6.T ~ ~ ! ! ~ ! ! ^ W W W W Q W Q Q W W Z.Z.C.Z.Z.V.S.C.C.C.C.C.C.C.C.C.C.C.",
"C.C.C.C.C.C.C.C.Z.Z.Z.Z.Z.Z.Z.Z.C.C.C.C.C.C.m.c.u.W W W W W W W Q W W Q W W W Q W y.u.f.m.C.S.A.Z.Z.Z.Z.C.C.C.C.C.C.C.C.C.C.C.C.",
"C.C.C.C.C.C.C.C.Z.Z.Z.Z.Z.Z.Z.Z.Z.C.C.C.Z.C.C.Z.C.C.S.C.C.C.C.C.S.S.C.C.C.C.C.C.C.C.C.C.C.C.C.C.C.C.Z.C.C.C.C.C.C.C.C.C.C.C.C.Z.",
"Z.C.C.C.C.C.C.C.Z.Z.Z.Z.Z.Z.C.C.C.C.C.C.C.C.C.C.C.Z.C.C.C.Z.C.C.C.C.C.C.C.C.C.C.C.Z.Z.C.C.Z.C.Z.Z.C.C.C.C.C.Z.C.C.C.C.C.C.C.C.C.",
"C.C.C.C.C.C.C.C.Z.Z.Z.Z.C.C.C.C.C.C.C.C.C.C.C.C.C.Z.Z.C.C.Z.C.Z.C.C.C.C.C.C.C.C.C.C.C.C.C.Z.C.C.C.C.C.C.Z.C.Z.C.C.C.C.C.C.C.C.C.",
"C.C.C.C.C.C.C.C.Z.Z.Z.Z.C.C.C.C.Z.C.C.S.Z.C.C.Z.C.C.C.C.C.C.C.C.C.C.C.C.C.C.Z.C.C.C.Z.C.C.C.C.C.C.C.Z.C.C.C.C.C.C.C.C.C.Z.C.C.Z.",
"Z.C.C.Z.C.C.C.C.C.C.C.C.C.C.C.C.Z.C.C.Z.C.C.Z.C.C.C.C.C.C.C.C.C.Z.C.C.Z.Z.C.C.Z.C.C.C.C.Z.C.C.S.Z.C.C.Z.C.S.C.C.C.C.C.C.C.C.Z.C.",
"C.C.C.C.C.C.C.C.C.C.C.C.C.C.C.C.C.C.C.C.Z.C.C.C.C.Z.Z.C.Z.C.C.Z.C.C.C.C.C.C.C.C.Z.C.C.Z.C.C.C.Z.C.C.C.C.C.C.Z.C.C.Z.C.C.C.C.C.C.",
"C.S.C.C.C.C.C.C.C.C.C.C.C.C.C.C.C.C.C.C.C.C.C.C.C.C.C.C.C.C.C.C.C.C.C.C.C.C.C.C.C.C.C.C.C.C.C.C.C.C.C.C.C.Z.Z.C.C.Z.C.Z.Z.C.C.Z.",
"C.C.C.Z.C.C.C.C.C.C.C.C.S.C.C.C.Z.C.C.Z.C.C.Z.C.C.Z.C.C.C.Z.C.C.Z.C.C.Z.C.C.S.Z.C.Z.C.C.Z.C.C.C.Z.C.C.Z.C.C.C.C.C.C.C.C.C.C.C.C."
};
