/* XPM */
static char *_e5503b345e846cbfcc3cf4fec2afcc8WXkyvAiCdABqhuG3[] = {
/* columns rows colors chars-per-pixel */
"64 64 162 2 ",
"   c #15110E",
".  c #151610",
"X  c #161A14",
"o  c #1E1C15",
"O  c #191E18",
"+  c #241B13",
"@  c #2A1E15",
"#  c #1D2317",
"$  c #1E2318",
"%  c #1D2818",
"&  c #2D2216",
"*  c #222B1C",
"=  c #342416",
"-  c #352619",
";  c #392719",
":  c #372A19",
">  c #3C2B1A",
",  c #24311F",
"<  c #273420",
"1  c #283523",
"2  c #2C3C23",
"3  c #303320",
"4  c #422E1B",
"5  c #45311C",
"6  c #4A341D",
"7  c #51391F",
"8  c #4E3720",
"9  c #4A3C22",
"0  c #543B22",
"q  c #5B3F23",
"w  c #2F4126",
"e  c #304327",
"r  c #33462A",
"t  c #364B2B",
"y  c #37512C",
"u  c #39522E",
"i  c #3B5432",
"p  c #3F5A33",
"a  c #5C4123",
"s  c #405C33",
"d  c #634425",
"f  c #664826",
"g  c #6D4C26",
"h  c #6D4B29",
"j  c #724F29",
"k  c #6D512A",
"l  c #7A542C",
"z  c #7D582B",
"x  c #436236",
"c  c #476738",
"v  c #48693A",
"b  c #4D723D",
"n  c #51743E",
"m  c #4F7440",
"M  c #517740",
"N  c #547C43",
"B  c #845A2E",
"V  c #845E30",
"C  c #895E31",
"Z  c #8D622F",
"A  c #8E6231",
"S  c #956635",
"D  c #9F6E35",
"F  c #9F6D38",
"G  c #A16E35",
"H  c #A47037",
"J  c #A97337",
"K  c #A67239",
"L  c #AB7439",
"P  c #AC7B3D",
"I  c #B47B3C",
"U  c #BA7E3E",
"Y  c #568346",
"T  c #5A8545",
"R  c #568348",
"E  c #5F8D4D",
"W  c #65994F",
"Q  c #689751",
"!  c #688648",
"~  c #6BAA4F",
"^  c #6CA357",
"/  c #6DA659",
"(  c #76BC5C",
")  c #79B85F",
"_  c #77B660",
"`  c #7DBD63",
"'  c #7EC262",
"]  c #BD813E",
"[  c #C3853F",
"{  c #C5883F",
"}  c #BF8340",
"|  c #C38541",
" . c #C98742",
".. c #C78842",
"X. c #CC8B43",
"o. c #D08C45",
"O. c #83C667",
"+. c #85C867",
"@. c #84CA68",
"#. c #8EDC6F",
"$. c #8ED970",
"%. c #90DB72",
"&. c #95F66E",
"*. c #96F96E",
"=. c #94E376",
"-. c #97ED75",
";. c #98E877",
":. c #99E779",
">. c #9CEE7B",
",. c #95F771",
"<. c #99F774",
"1. c #96F972",
"2. c #9BF975",
"3. c #9EF27B",
"4. c #9EFB7A",
"5. c #A0F977",
"6. c #A1F47E",
"7. c #A2FD7C",
"8. c #A1FD7E",
"9. c #A0FC7F",
"0. c #A3FC7E",
"q. c #A2FD7E",
"w. c #A3FE7F",
"e. c #A1FC7D",
"r. c #A4FD7F",
"t. c #A5FE7E",
"y. c #A2FC7C",
"u. c #A3FB80",
"i. c #A1FD80",
"p. c #A3FD81",
"a. c #A3FE82",
"s. c #A4FC81",
"d. c #A4FF80",
"f. c #A5FE80",
"g. c #A6FF81",
"h. c #A5FD82",
"j. c #A4FC82",
"k. c #A7FD82",
"l. c #A4FE82",
"z. c #A5FF83",
"x. c #A4FE83",
"c. c #A7FF82",
"v. c #A6FE83",
"b. c #A5FF84",
"n. c #A6FE84",
"m. c #A6FF84",
"M. c #A7FF84",
"N. c #A7FF85",
"B. c #A6FF85",
"V. c #A7FF87",
"C. c #A7FF84",
"Z. c #A8FE81",
"A. c #A8FE83",
"S. c #A9FF82",
"D. c #A9FF84",
"F. c #A9FE85",
"G. c #A8FF85",
"H. c #AAFF85",
"J. c #A8FF86",
"K. c #AAFF86",
"L. c #A8FD84",
"P. c #A9FF84",
/* pixels */
"M.M.M.M.M.M.M.M.M.M.M.M.M.M.M.M.M.M.M.M.M.M.M.M.M.M.M.M.M.M.M.M.M.M.M.M.M.M.M.M.M.M.M.M.M.M.M.M.M.M.M.M.M.M.M.M.h.M.M.M.M.M.h.M.",
"M.A.M.M.M.M.h.M.M.M.M.M.M.M.M.M.M.M.M.M.M.M.M.M.M.M.M.M.M.M.M.M.M.M.M.M.M.M.M.M.M.M.M.M.M.M.M.M.M.M.M.M.M.M.M.M.M.M.M.M.M.M.M.M.",
"M.M.M.M.M.M.M.M.M.M.M.M.M.M.M.M.M.M.M.M.M.M.M.M.M.M.M.M.M.M.M.M.M.M.M.M.M.M.M.M.M.M.M.M.M.M.M.M.M.M.M.M.M.M.M.M.M.h.M.M.D.M.M.h.",
"M.M.M.D.M.M.D.M.M.M.M.M.M.M.M.M.M.M.M.M.M.M.M.M.M.M.M.M.M.M.M.M.M.M.M.M.M.M.M.M.M.M.M.M.M.M.M.M.M.M.M.M.M.M.M.M.M.M.M.M.M.M.M.D.",
"M.D.D.n.n.M.h.M.M.M.M.M.M.M.M.M.M.M.M.M.M.M.M.M.M.M.M.M.M.M.M.M.M.M.M.M.M.M.M.M.M.M.M.M.M.M.M.M.M.M.M.M.M.M.M.M.h.M.h.M.M.M.M.h.",
"M.M.M.M.n.M.D.M.M.M.M.M.M.M.M.M.M.M.M.M.M.M.M.M.M.M.M.M.M.M.M.M.M.M.M.M.M.M.M.M.M.M.M.M.M.M.M.M.M.M.M.M.M.M.M.M.D.M.M.M.q.M.M.M.",
"M.D.M.M.M.h.4.q.M.M.M.M.M.M.M.M.M.M.M.M.M.M.M.M.M.M.M.M.M.M.M.M.M.M.M.M.M.M.M.M.M.M.M.M.M.M.M.M.M.M.M.M.M.M.M.M.M.M.h.M.1.M.A.M.",
"M.M.D.M.h.2.2.M.M.M.M.M.M.M.M.M.M.M.M.M.M.M.M.D.M.M.M.M.M.M.M.M.M.M.M.M.M.M.M.M.M.M.M.M.M.M.M.M.M.M.M.M.M.M.M.M.M.M.D.&.j.M.M.M.",
"M.D.M.M.h.4.x.M.M.h.M.M.M.M.M.M.M.M.M.M.M.M.M.h.M.M.n.M.M.M.M.M.M.M.M.M.M.M.M.M.D.M.M.M.j.M.M.M.M.M.h.h.x.D.h.M.M.M.4.2.M.M.M.M.",
"M.h.M.A.h.D.M.D.J.M.M.V.D.M.M.M.M.M.M.M.M.M.M.M.h.M.M.M.M.M.D.M.M.M.M.M.M.M.M.M.M.M.M.M.M.M.M.M.M.D.h.q.h.D.M.M.h.h.h.h.M.M.M.M.",
"M.M.M.h.M.M.M.M.M.M.M.M.M.h.M.x.h.M.M.M.M.n.D.M.M.M.D.M.D.h.M.D.M.M.M.M.M.M.M.M.M.M.M.M.M.M.D.D.h.2.<.q.2.h.h.h.h.h.h.h.h.M.D.M.",
"M.M.h.M.M.M.M.M.h.M.M.M.M.M.x.M.M.M.M.M.M.M.M.M.M.h.M.D.M.h.D.D.j.M.M.M.M.M.M.M.M.M.M.M.M.M.M.D.2.2.2.2.2.2.2.q.9.M.h.M.A.M.M.M.",
"M.h.D.M.h.h.D.D.M.M.h.M.M.A.h.q.M.h.M.M.M.M.M.M.M.M.M.M.M.n.n.7.M.h.M.M.M.M.M.M.M.V.n.M.M.M.7.2.4.4.2.2.<.&.2.1.h.h.4.2.2.M.h.A.",
"M.M.M.M.M.h.h.h.D.2.M.D.h.D.2.1.M.M.M.M.M.M.M.M.M.M.h.M.M.M.j.9.M.M.M.M.M.M.M.M.M.M.M.M.M.M.j.9.h.7.x.&.x.M.D.M.h.4.&.1.q.9.h.h.",
"M.M.D.7.2.&.7.9.9.9.h.q.h.4.2.2.h.4.h.D.M.M.M.M.M.D.D.h.M.L.4.M.M.M.M.M.M.M.M.M.n.M.M.n.M.V.M.M.M.h.x.x.M.M.M.M.A.*.1.7.x.D.D.h.",
"M.M.M.2.&.h.7.h.7.q.x.4.M.2.2.x.4.j.M.4.M.M.D.M.M.M.M.M.M.4.M.h.M.M.M.M.M.M.M.M.M.n.M.M.n.M.M.n.D.M.M.A.M.M.M.M.4.4.M.h.h.h.h.D.",
"x.h.M.&.1.h.2.h.q.q.7.4.4.1.7.7.4.h.4.h.M.M.D.M.>.$.M.M.M.M.M.M.M.h.M.M.A.M.h.x.4.x.x.x.x.x.M.M.M.M.M.M.M.M.M.M.M.h.M.M.h.M.M.M.",
"M.D.&.1.1.2.q.q.i.q.1.q.1.4.7.t.7.2.q.M.D.M.D.:.x W M.M.M.D.D.D.x.M.;.M.3.$.' ( ~ x t e y p p i s m M.h.M.D.M.M.M.M.M.M.M.M.M.M.",
"h.M.1.1.2.7.q.q.4.7.<.1.2.h.9.7.2.2.h.M.D.D.x.y 2 % # # O O # 9 k X   + o + & o + @ & & & & & & @ * ` h.h.h.M.M.M.M.M.M.M.M.M.M.",
"V.M.4.<.x.q.q.q.x.4.*.4.x.7.9.2.1.h.M.M.D.h.6 5 z > f g G U } ] [ 5 Z ] X.{ X.X.X.X.X.X.X.X.o.X.4 , T A.M.M.M.D.M.M.M.M.M.M.M.M.",
"M.V.M.M.4.0.9.D.2.2.h.h.q.q.2.,.j.M.M.D.M.i > X.X.X.X.X.X.X.{ | ] 0 X.X.X.X.X.X.X.X.X.X.{ ..X.9 4 n Y h.A.h.M.A.M.M.M.h.M.M.M.M.",
"M.M.M.M.q.q.h.A.2.j.7.h.M.M.1.<.M.M.M.M.r > ..X.X.X.X.X.X.{ [ 5 : ..X.X.X.X.X.X.X.X.X.X.X.X.a > { 0 b 7.M.h.h.M.M.M.M.M.M.M.D.M.",
"x.M.h.M.h.D.h.M.M.j.M.M.M.M.x.7.M.M.D.r > X.X.X.X.{ X...| | a - ..X.o.X.X.X.X.X.X.X.X.X.X.A 5 P X.4 N h.h.M.q.q.M.M.M.M.M.M.M.M.",
"M.M.M.M.M.D.h.h.h.M.M.M.M.M.M.D.M.h.t : X.X.X.| X.X.X.| [ J = S X.o.o.X.X.X.X.X.X.X.X.X.] > g o.o.; ' 7.7.7.4.2.j.h.M.h.M.M.M.M.",
"M.M.M.M.M.M.M.M.M.n.n.h.A.h.A.h.h.5 ; X.X.X.X.X.X.X.| | U - d X.X.X.X.X.X.X.X.X.X.o.X.X.4 a X.X.X.& -.6.4.M.M.4.j.h.M.M.M.M.M.M.",
"M.M.M.M.n.M.M.M.n.M.M.h.h.A.D.h.t - X.X.X.X.| X.X.| { X.- 6 X.X.X.X.X.o.X.X.X.o.X.X.X.6 0 X.X.X.X.@ -.4.M.M.M.M.M.M.M.M.h.M.M.M.",
"M.M.M.M.M.M.M.M.M.h.M.M.h.h.h.i - { X.X.| X.| X.X.| X.7 : X...X.X.X.X.X.X.o.o.o.{ X.a 9 X.X.X.X...+ u.n.n.h.M.h.h.M.M.h.M.M.M.M.",
"M.M.x.M.M.M.M.M.M.M.M.h.h.A.v = | X.|  .X.X. .X.[ { | ; I { X.X.X.X.....X.X.o.} X.a 0 X.X.o.o.X.| % M.M.M.M.M.M.D.M.h.M.h.M.M.M.",
"M.M.M.M.M.M.M.h.M.M.M.M.h.b - U X.X.| | | | | ..| X.5 8 X.X...X...| | X.X...X.X.f a ..X.{ o.X.o. .* k.A.M.M.M.M.M.M.M.M.M.M.M.M.",
"M.M.M.n.M.M.M.M.j.M.M.M.` t L | | X. .{ X.o.X.X.X.g 4 X.X.X.X...| { ....X.X.X.B 0 { X.X.o.X.X.X.X., j.D.h.M.D.M.M.M.M.M.M.M.M.M.",
"M.M.M.M.n.M.n.j.M.x.h.:.p ! ] ] J D G ] | X.X.X.I 4 K X.X.| X.[ X.X.X.| X.X.| 0 L X.o.o.X.{ X.{ [ * A.A.h.M.M.M.M.M.M.M.M.M.M.M.",
"M.M.M.M.n.n.n.M.h.M.h.w + 6 4 4 4 4 > > : > : > o % d K X.X.X.X.X.X.X...X.] 0 A o.o.{ { o.o.{ o.U * h.h.M.h.x.M.M.M.M.M.M.M.M.M.",
"M.M.M.M.M.M.M.M.M.M.M.M Z X.X.X.X.X.X.X.X.|  .L q 0 4 > > ; > 4 5 6 l a 0 0 P X.X.X.X.| X.X.....K * M.M.M.M.h.q.A.h.M.M.M.D.M.V.",
"M.M.M.M.M.M.M.M.M.h.M.Y a X.o.X.X.X.| X.X. .{ {  . .| .. .o. .} [ [ ] [ ..| h ] X...X.X.X.X.X.| I < M.M.h.h.x.x.M.M.M.M.M.M.D.h.",
"M.M.M.M.M.M.M.M.M.D.M.E 5 X.X.X.X.X.X.o.X.X.{ X.X.X.X.o.X.X... .[ ..{ X.X.X.h H X.X.[ X.X.X.X.} I * j.j.q.h.M.M.M.M.M.h.M.M.M.M.",
"M.M.M.M.M.M.M.M.M.h.J.' > X.X.X.X.X.o.o.X.X.o.o.X.X.X...o. .X...X.{ | | X...a S X.X.X...o.X.| | | X $.9.D.h.h.D.M.M.M.M.M.M.M.M.",
"M.M.M.M.M.M.M.M.h.M.D.=.- X.X.X.X.o.X.X.{ o.o.o.X. .X.X.X.o.o. .U |  . .X.[ q V X.X.X.X.X. .| } U r h.A.A.h.7.A.q.5.M.A.M.D.M.M.",
"M.M.M.M.M.M.M.M.M.M.M.M.= X.X.X.X.X.X.X.X.o.{ o.X.o. .o.o.X.X. .X.X.X.{ | [ 0 B X.| [ X.X.} } G * M.h.A.x.5.1.4.q.7.h.D.q.M.J.M.",
"M.M.M.M.M.M.M.M.M.M.h.M.= { { o.X.X.X.X.o.X.o.X.o.X.X.o.X.o. . .X.X.| { | } 6 z X.X.| X.| | l + ) h.h.7.1.2.2.h.x.4.h.2.2.h.D.M.",
"M.M.M.M.M.M.M.M.M.M.M.M., { X.{ X.X.X.X.X.X.o.o.X.X.X.o.o.o.| ..o. .{ | [ | 5 l X.[ | | ] ] + N j.9.2.,.<.*.5.2.<.4.2.2.2.M.M.M.",
"h.h.M.M.M.M.M.h.M.M.M.M.1 U o.o.o.X. .X.X.o.o.X.o.X.o. .X.|  .X.| | [ | } } > j X.| | | | & 2 x.4.2.&.&.&.<.<.2.2.5.4.4.2.h.A.M.",
"D.M.D.M.M.M.M.D.D.h.M.M.1 | X.o.X. .X.X.o.X.o.X.X.X.X.o.[ | X.|  .| | | } | : V X.| | | j @ 6.M.L.9.7.1.2.2.7.4.2.4.<.<.A.A.M.M.",
"D.D.M.M.h.D.7.<.2.2.2.3.2 P X.o.X.X.X.| X.X. .o.X.X. .| [ o. . .| | | ] | | - A | | | | & v h.M.7.h.4.j.h.D.4.4.1.*.2.H.M.D.M.M.",
"h.h.h.M.M.x.&.4.4.2.4.2.w A o.{ X. .X.|  .| [ X.| | } } X.X.|  .| ] [ | } ..& L |  .| > t h.M.4.5.9.M.M.V.7.2.4.1.7.A.M.D.M.D.h.",
"D.M.D.D.M.4.M.h.7.<.9.4.e 6 X.X...o.| | | [ | ] } I [ X.| } | ] } | | | |  .@ } X. .a - j.h.M.M.D.h.h.h.M.M.x.h.M.h.h.A.M.M.M.M.",
"D.M.M.h.M.M.M.M.j.n.M.M.t > X.o...| .. .| | | | | ] | | | | | | [ ] | | | X.& }  .I : _ h.M.M.M.M.M.M.D.M.M.h.D.M.A.M.M.M.M.M.M.",
"M.M.M.h.M.D.M.M.M.h.M.n.s = ....X.......| | ] | | | | } | | | | | X.| | | X.+ } X.5 v M.D.M.h.M.M.M.M.h.D.D.D.h.M.h.M.D.M.h.M.M.",
"M.M.M.M.D.M.D.h.M.M.M.V.O.= 0 0 q j G | | ......| | | | X.X.X.X.X.X.X.[ | X.+ K g 0 h.M.h.M.M.M.M.D.h.M.D.h.h.M.M.h.h.M.M.M.h.M.",
"M.M.M.M.M.M.M.M.M.M.h.M.M.` Q R N v p s i i 4 > > > > > > > ; > - ; - > C X.+ s b 6.h.h.M.M.M.M.h.M.h.M.M.M.M.h.M.M.M.M.M.M.M.M.",
"M.M.M.M.M.M.M.h.M.M.M.M.M.M.M.D.M.M.M.M.h.D.M.3.3.` / / / _ @._ T R M i & = . u +.M.M.A.M.M.M.M.D.h.M.M.h.M.M.M.M.M.M.M.M.M.M.M.",
"M.M.M.M.M.M.M.h.M.M.M.M.M.M.M.h.M.M.A.D.D.M.M.M.M.M.D.D.D.M.D.D.J.M.M.D.V.R * ^ M.M.h.M.M.M.h.h.M.M.M.M.h.M.M.V.M.M.M.h.M.M.M.M.",
"M.M.M.M.M.M.M.M.M.M.M.M.h.D.M.M.h.D.M.M.h.D.h.M.M.M.M.M.M.D.D.M.M.V.K.L.D.D.n.M.M.M.M.M.M.M.D.h.M.M.M.D.M.M.M.M.M.M.M.h.M.h.M.M.",
"M.M.M.M.M.M.h.M.M.M.h.M.D.D.h.M.h.M.h.h.A.h.D.h.M.M.x.h.A.M.M.M.D.M.M.M.M.D.D.M.M.M.M.M.M.D.M.M.M.M.M.M.M.h.M.h.h.M.M.M.M.j.M.h.",
"M.M.M.M.M.M.M.M.M.h.M.h.h.h.M.h.A.A.h.h.M.M.M.M.M.D.h.M.M.D.M.M.M.M.M.M.M.M.n.M.M.M.V.M.M.M.M.M.M.M.M.h.M.M.M.M.M.M.M.h.h.M.M.M.",
"M.M.M.M.M.M.M.M.M.M.M.M.h.M.M.h.x.h.M.h.D.h.h.M.M.h.D.M.M.M.h.D.M.M.M.M.M.M.D.h.M.M.h.D.j.D.M.n.M.M.M.M.M.M.M.M.M.h.M.h.h.M.M.M.",
"M.M.M.M.M.M.M.M.h.j.h.h.D.h.h.h.x.M.M.h.h.M.M.h.M.h.M.M.M.M.M.h.M.M.M.M.h.M.M.M.M.M.M.D.M.n.n.M.M.M.M.x.M.M.M.M.h.M.M.M.M.D.M.M.",
"M.M.A.A.h.h.M.M.h.M.h.h.h.7.M.h.x.x.0.j.x.h.q.M.M.7.h.h.D.n.D.M.M.M.M.M.M.M.M.n.M.M.j.M.M.M.M.n.M.M.M.h.h.M.h.M.M.M.M.h.D.M.M.M.",
"M.M.M.A.M.x.x.h.x.q.7.h.h.h.h.h.q.q.7.4.4.4.4.4.2.4.7.h.<.2.M.D.j.M.M.M.M.M.M.M.M.M.M.M.V.M.M.M.M.M.M.M.M.D.h.M.M.M.M.M.D.M.M.M.",
"M.h.A.h.M.2.M.1.2.1.9.D.7.4.4.4.M.4.1.j.<.4.2.2.4.2.2.1.h.M.M.M.M.j.M.M.M.M.n.M.M.M.M.M.M.M.M.n.h.M.h.M.M.M.h.D.M.M.D.M.M.h.M.n.",
"D.A.A.h.A.h.D.M.M.M.h.D.M.q.7.h.M.4.h.M.2.5.h.4.4.,.9.h.M.M.M.M.M.M.M.M.M.M.j.M.h.n.M.n.V.M.M.M.M.M.M.M.M.x.h.x.x.h.M.x.h.h.h.x.",
"M.M.M.M.M.M.M.M.D.h.D.h.D.M.M.M.M.h.M.M.M.M.h.M.h.D.A.D.M.n.M.M.M.M.M.M.M.M.M.M.M.M.j.n.M.j.M.n.x.h.M.M.x.h.h.x.h.9.h.4.4.q.M.M.",
"M.M.M.M.x.M.M.D.M.D.h.M.M.M.M.M.M.M.M.M.h.M.M.M.M.h.h.h.V.M.D.M.n.M.M.M.M.M.V.M.M.M.M.M.j.n.n.M.M.M.h.x.M.M.M.M.D.M.M.M.D.D.h.D.",
"M.M.M.h.M.M.M.M.D.M.D.M.M.M.M.M.M.M.M.M.M.M.M.M.M.M.M.M.M.n.M.M.M.M.M.M.M.M.M.M.M.M.M.M.M.h.M.M.M.M.M.D.M.M.V.M.M.D.M.M.M.M.M.M.",
"M.M.M.M.M.M.M.M.D.V.M.M.M.M.h.M.M.h.M.M.M.M.M.M.M.M.M.M.M.M.M.M.M.M.M.M.M.M.M.M.M.M.M.M.M.M.M.M.M.M.M.D.M.M.M.M.M.M.M.D.M.M.M.M."
};
