/* XPM */
static char *_6fa9aaaf00743ed930c08d0a420fa1aJWlmRf2mnfCGdVfs[] = {
/* columns rows colors chars-per-pixel */
"64 64 170 2 ",
"   c #050505",
".  c #070906",
"X  c #0C0A06",
"o  c #0E0C0D",
"O  c #110E0E",
"+  c #0D120C",
"@  c #13120E",
"#  c #1B140C",
"$  c #0D0C11",
"%  c #131511",
"&  c #1C1712",
"*  c #161C13",
"=  c #1A1A14",
"-  c #241B13",
";  c #172213",
":  c #1B2516",
">  c #1C2918",
",  c #2D2215",
"<  c #202E17",
"1  c #222D1D",
"2  c #2E2B1A",
"3  c #352416",
"4  c #362619",
"5  c #342B1A",
"6  c #3C2B1A",
"7  c #26331E",
"8  c #263A1F",
"9  c #35331C",
"0  c #2B3622",
"q  c #2B3B23",
"w  c #412D1B",
"e  c #45311C",
"r  c #4B351D",
"t  c #533A1D",
"y  c #5D3E1F",
"u  c #543B21",
"i  c #5C3E22",
"p  c #2D4225",
"a  c #314927",
"s  c #344629",
"d  c #364C2C",
"f  c #384B2B",
"g  c #37532B",
"h  c #3B502F",
"j  c #3D5931",
"k  c #3C5432",
"l  c #5F411F",
"z  c #5C4123",
"x  c #425D35",
"c  c #654521",
"v  c #694722",
"b  c #674A22",
"n  c #6B4923",
"m  c #6A4928",
"M  c #724D25",
"N  c #794F25",
"B  c #714E29",
"V  c #755226",
"C  c #795227",
"Z  c #76512B",
"A  c #7A542A",
"S  c #7D592B",
"D  c #436034",
"F  c #466639",
"G  c #476C38",
"H  c #486839",
"J  c #4D723E",
"K  c #557C45",
"L  c #80572B",
"P  c #83592C",
"I  c #8B5F2E",
"U  c #895E32",
"Y  c #8E602F",
"T  c #866530",
"R  c #8E6331",
"E  c #956534",
"W  c #A26E35",
"Q  c #A47037",
"!  c #A57138",
"~  c #AB763A",
"^  c #A07A3C",
"/  c #AF793C",
"(  c #B47A3C",
")  c #568746",
"_  c #65944E",
"`  c #689A51",
"'  c #6EA955",
"]  c #74AF5B",
"[  c #77B760",
"{  c #7AB962",
"}  c #7EC063",
"|  c #BE823E",
" . c #C3843F",
".. c #CD8B3F",
"X. c #A58645",
"o. c #BF8441",
"O. c #BF9C4B",
"+. c #B9A050",
"@. c #C38541",
"#. c #C88742",
"$. c #C68841",
"%. c #CC8B43",
"&. c #D08C45",
"*. c #CA9147",
"=. c #CB9348",
"-. c #C8984C",
";. c #C4A552",
":. c #85C769",
">. c #88D06C",
",. c #90DC70",
"<. c #95F66E",
"1. c #95F96E",
"2. c #95EB72",
"3. c #99EE75",
"4. c #9BED7B",
"5. c #94E274",
"6. c #96F771",
"7. c #99F773",
"8. c #96F972",
"9. c #9BF975",
"0. c #9EF27C",
"q. c #9EFB7A",
"w. c #A1F57E",
"e. c #A0FC7D",
"r. c #A1FD7E",
"t. c #A0FC7F",
"y. c #A2FD7E",
"u. c #A3FC7E",
"i. c #A3FE7F",
"p. c #A2FD7C",
"a. c #A4FD7F",
"s. c #A5FE7E",
"d. c #A2FC7C",
"f. c #A2F681",
"g. c #A3FB80",
"h. c #A3F883",
"j. c #A1FD80",
"k. c #A3FD81",
"l. c #A3FD82",
"z. c #A4FF80",
"x. c #A5FE80",
"c. c #A6FF81",
"v. c #A5FD82",
"b. c #A4FC82",
"n. c #A7FD82",
"m. c #A4FE82",
"M. c #A5FF83",
"N. c #A4FE83",
"B. c #A7FF82",
"V. c #A6FE83",
"C. c #A5FC81",
"Z. c #A5FF84",
"A. c #A6FE84",
"S. c #A6FF84",
"D. c #A7FF84",
"F. c #A7FF85",
"G. c #A6FF85",
"H. c #A7FF87",
"J. c #A7FF84",
"K. c #A8FE83",
"L. c #A9FF82",
"P. c #A8FE81",
"I. c #A9FF84",
"U. c #A9FE85",
"Y. c #A8FF85",
"T. c #AAFF85",
"R. c #AAFF86",
"E. c #A8FE85",
"W. c #A9FF84",
"Q. c #A8FF88",
/* pixels */
"D.D.D.D.D.D.D.D.D.D.D.D.D.D.D.D.D.D.D.D.D.D.D.D.D.D.D.D.D.D.D.D.D.D.D.D.D.D.D.D.D.D.D.D.D.D.D.D.D.D.D.D.D.D.D.D.b.b.D.D.D.D.b.D.",
"D.K.D.D.D.D.b.D.D.D.D.D.D.D.D.D.D.D.D.D.D.D.D.D.D.D.D.D.D.D.D.D.D.D.D.D.D.D.D.D.D.D.D.D.D.D.D.D.D.D.D.D.D.D.D.D.D.D.D.D.D.D.D.D.",
"D.D.D.D.D.D.D.D.D.D.D.D.D.D.D.D.D.D.D.D.D.D.D.D.D.D.D.D.D.D.D.D.D.D.D.D.D.D.D.D.D.D.D.D.D.D.D.D.D.D.D.D.D.D.D.D.D.b.I.D.I.D.D.b.",
"D.D.D.I.D.D.I.D.D.D.D.D.D.D.D.D.D.D.D.D.D.D.D.D.D.D.D.D.D.D.D.D.D.D.D.D.D.D.D.D.D.D.D.D.D.D.D.D.D.D.D.D.D.D.D.D.D.D.D.D.D.D.I.I.",
"D.I.I.b.I.D.b.D.D.D.D.D.D.D.D.D.D.D.D.D.D.D.D.D.D.D.D.D.D.D.D.D.D.D.D.D.D.D.D.D.D.D.D.D.D.D.D.D.D.D.D.D.D.D.D.D.K.b.D.D.D.D.D.b.",
"D.D.D.D.D.D.I.D.D.D.D.D.D.D.D.D.D.D.D.D.D.D.D.D.D.D.D.D.D.D.D.D.D.D.D.D.D.D.D.D.D.D.D.D.D.D.D.D.D.D.D.D.D.D.D.D.D.D.D.D.r.D.I.b.",
"D.I.D.D.D.D.q.k.D.D.D.D.D.D.D.D.D.D.D.D.D.D.D.D.D.D.D.D.D.D.D.D.D.D.D.D.D.D.D.D.D.D.D.D.D.D.D.D.D.D.D.D.D.D.D.D.D.D.b.I.8.D.K.I.",
"D.D.I.D.b.9.8.D.D.D.D.D.D.D.D.D.D.D.D.D.D.D.D.D.D.D.D.D.D.D.D.D.D.D.D.D.D.D.D.D.D.D.D.D.D.D.D.D.D.D.D.D.D.D.D.D.D.D.b.<.b.D.D.D.",
"D.D.I.b.b.r.b.D.D.b.D.D.D.D.D.D.D.D.D.D.D.D.D.D.D.D.D.b.D.D.D.D.D.D.D.D.D.D.D.D.I.D.D.D.D.D.D.D.I.I.b.b.k.D.b.D.D.b.q.9.I.D.D.D.",
"D.b.I.K.b.I.b.I.I.I.D.H.I.D.D.D.D.D.D.D.D.D.D.D.b.D.D.D.b.D.I.D.D.D.D.D.D.D.D.D.D.D.D.D.D.D.D.D.D.K.b.a.D.I.I.I.I.b.b.b.D.I.D.D.",
"D.D.I.K.b.K.D.D.D.D.D.D.D.D.D.N.b.b.D.D.I.D.I.D.I.D.I.D.I.b.D.I.D.D.D.D.D.D.D.D.D.D.D.D.b.I.D.I.b.9.7.r.9.b.b.b.b.b.b.b.b.D.D.D.",
"D.D.b.D.b.K.I.b.b.D.D.D.D.D.k.D.D.I.D.D.D.D.D.D.D.b.I.I.I.b.I.I.b.b.D.D.D.D.D.D.D.D.D.D.D.I.b.I.9.9.9.9.9.9.7.d.r.D.a.I.I.K.D.D.",
"D.b.I.I.b.K.I.K.D.D.b.D.D.K.b.b.D.b.D.D.D.D.D.D.D.D.D.D.K.D.b.a.D.b.b.I.D.D.D.D.D.H.D.D.D.D.b.9.q.q.9.9.9.8.9.8.b.b.9.9.9.D.b.K.",
"D.D.b.D.b.b.b.K.I.9.I.I.k.I.9.8.D.D.D.D.D.D.D.D.D.D.b.D.I.K.k.r.D.I.D.D.D.D.D.D.D.D.D.D.D.H.b.q.b.d.r.<.r.D.I.D.K.q.8.<.r.t.b.K.",
"D.D.I.r.9.<.r.u.t.t.D.r.b.q.9.9.b.q.b.I.D.b.D.D.D.I.I.b.b.I.d.b.D.D.D.D.D.D.D.D.D.D.D.N.D.D.H.D.D.b.b.b.D.D.D.D.a.1.8.b.r.K.D.b.",
"D.D.D.9.1.b.d.b.d.r.k.q.I.9.9.k.q.b.I.q.D.D.I.D.D.D.I.D.b.d.b.b.D.D.D.D.D.D.D.D.D.D.D.D.D.D.D.D.I.D.I.I.D.D.D.D.q.r.I.b.D.b.K.K.",
"D.b.D.<.8.b.9.b.r.u.d.9.q.9.d.d.q.b.d.b.K.D.I.D.b.K.I.I.I.I.K.K.D.D.D.D.D.D.D.D.t.D.r.b.b.N.D.k.D.D.D.K.I.D.D.D.D.D.D.D.D.D.D.D.",
"D.I.<.8.8.9.r.a.r.r.8.a.8.q.p.a.9.d.d.I.D.D.D.b.t.b.b.b.t.f.b.b.w.f.b.I.D.f.h.9.<.3.2.2.2.0.0.f.f.w.D.I.b.D.D.D.D.D.D.D.D.D.D.D.",
"b.D.8.8.9.d.r.r.d.r.8.9.q.b.u.p.9.9.b.I.K.I.k.j * @ @ O O O o O & % % % % % & % % O @ - 6 2 , 2 9 q :.b.b.D.I.I.D.D.D.D.D.D.D.D.",
"D.D.q.7.k.a.r.p.t.q.8.q.r.r.t.9.1.b.K.K.I.b.e o @ O n c v c v v n v v n v n n v n n v v v n v n c 1 < K.D.D.D.b.D.D.D.D.D.D.D.D.",
"D.H.D.D.r.u.a.I.9.9.b.a.a.r.9.6.k.D.D.I.D.h $ & n @ n n v n v n n v v v v v v v v v n c v n v n e X.+ o b.b.D.b.D.D.D.b.D.D.D.D.",
"D.D.D.D.r.r.b.K.9.b.a.a.D.D.8.8.D.I.D.D.p o c C c O A n v v v v v v v v v v n v v v v n v v A 6 #.%...@ > b.D.I.D.D.D.D.D.D.D.D.",
"D.D.b.D.b.K.b.b.b.b.D.D.D.D.k.b.D.D.I.O o u n n c o M n N I n n C M v v v v c c c n n c v b v ~ %.&.%.%.. 4.a.r.b.D.D.D.D.D.D.D.",
"D.D.I.b.I.K.b.K.D.D.D.D.I.b.D.D.D.D.= $ B n n n c o M P n c M v v v v v c n n v n N S n v v m %.%.&.%.&.*.  . 9.b.D.D.b.D.D.D.D.",
"D.D.D.D.D.D.D.D.b.D.b.D.I.D.D.D.b.@ o P v n C v v o n v n n n v v v n n n v v v n v n n v i %.$.%.%.%.&.&.*.)   . b.D.D.D.D.D.D.",
"D.N.D.D.D.b.D.D.D.D.D.D.b.I.D.I.= o n n n n v n c o n v c n c v v n n n v v v M n v v n u %.*.%.%.%.=.&.%.%.&.;.. ` D.b.D.D.I.D.",
"D.D.D.D.D.D.D.D.D.D.b.b.b.b.K.q o M n v v v v v c O n n c n n v n n v n n n n v v n b t %.%.%.%.%.&.=.%.%.%.&.%.-.o ] b.b.D.I.D.",
"D.D.D.D.D.D.D.D.b.b.D.b.b.b.F o Z n n n v v v v y O n n v n n n v v n n n n v v b v u %.%.%.%.%.&.&.%.%.%.&.%.&.&.a g I.D.D.b.D.",
"D.D.H.D.D.D.D.D.D.D.K.T.K.7 o M v n v v n v v v r O n c n n n n M v n v n v v v v u $.%.%.%.%.%.%.%.%.%.%.%.=.%.%.5 D.D.I.D.I.D.",
"D.D.D.D.D.D.D.b.D.D.b.b.a o n v v n v v v v v v t O c v n v n v v v v v M v v v r ..%.%.%.%.%.%.&.%.%.=.%.&.%.*.: >.D.D.I.D.D.D.",
"D.D.b.D.D.D.D.D.b.b.b.p o P v v v n n n v v v v n O v n n v v n v n n v n v M u ! *.%.%.%.%.%.%.%.%.&.%.&.%.%.+.; b.D.D.D.D.D.D.",
"D.D.D.D.b.D.b.D.D.0.* o # o o o o o o o o o o o o o o o o o o o o O o o O o O C %.%.%...%.%.#.%.%.&.%.&.%.%.%.; D.b.D.D.D.Q.D.D.",
"D.I.D.K.D.D.D.I.w.X t 8 . $.%.#.%.%.%.%.%.@.@.~ i t R S 6 6 6 4 r r B z z u S # # v #. .%.*.%.%.%.%.&...%.%.> ' I.I.D.D.D.I.H.D.",
"D.D.I.b.D.I.D.b.X r %.  z %.%.%.%.%.$.%.%.$.@...$.$.@.%.%.%.#. .@.@.@.$.#.$.M ( E X   3 %.&.%.&.%.&.%.&.%.T G b.D.D.D.I.D.D.I.D.",
"D.I.D.D.D.D.I.p , ..  p e %.%.=.%.%.&.%.%.#...#.#.%.%.%.%.%.#.#.@.$. .#.%.%.m W %.#.$..   Y %.&.%.%.%.&.@.p D.I.D.D.D.b.D.D.D.D.",
"b.D.D.D.I.b.j & &.X   { w %.%.%.%.%.&.%.%.*.&.&.%.%.%.$.$...#.$.#.#. .$.%.$.c E %.%.%.#.%.  e %.%.%.#.-.1 D.b.I.D.D.D.D.D.D.D.D.",
"D.D.I.D.D.D.j V     K.5.5 %.%.#.%.%.%.%.%.%.&.%.&.#.#.&.%.&.%... .$.#.@.$.@.i U #.%.%.%.%.@.    V ^ c   [ D.r.b.d.d.D.K.D.I.D.D.",
"D.D.D.D.D.b.+ + 8 K.b.K.3 %.%.#.%.%.%.%.%.%.%.%.%.%.#.%.%...&...#.%.#. .$.o.u L %.$.$.$.%.o.@.W     X 3.b.q.9.d.r.d.b.I.r.D.I.D.",
"D.D.D.D.D.D.,.> D.D.K.I., @...%.&.%.$.$.&.%.&.&.%.%.%.&.%.&.#.#.%.%. .$.@.@.r S %.$. .#.@.@.Z - { * } q.8.q.7.b.r.d.b.9.9.b.I.D.",
"D.D.D.D.D.D.D.D.D.D.D.D.7 $.#.&.%.%.#.%.%.%.%.%.&.%.&.%.%.%. .#.%.#.@.$.@.@.r Z %.@.$.@.o.| - K b.r.1.9.8.8.9.9.7.d.9.9.9.D.D.D.",
"b.I.D.D.D.I.D.b.D.b.b.D.0 | &.%.%.%.#.%.%.&.%.%.&.&.#.&.%. .#.&.$.#. .@.o.o.6 Z %.@.$.@.@.3 q r.d.9.1.<.8.7.9.9.9.9.9.9.q.b.I.I.",
"D.D.I.D.D.D.D.D.I.b.I.D.0 | %.&.%.#.%.%.&.%.%.&.&.&.&.#. . .%.$.#.|  .o.o.@.4 P %.o.$.o.B - f.D.K.d.q.7.d.9.9.q.9.9.9.9.K.K.D.D.",
"I.D.D.I.b.I.d.9.9.9.9.q.q / %.%.%.%.%.#.#.%.&.%.&.#.#.@. .&.#.#.@.@.@.@.@.@.3 R #.@.@.@., H b.b.d.b.t.r.b.n.q.q.9.1.9.T.D.I.D.D.",
"D.b.b.b.I.r.1.q.9.9.q.9.p R %.%.%.%.#.@.%. . .%.#.| | @.&.#.#. .@.o.o. .o.$., ( $. .@.6 g b.I.r.d.r.K.b.b.a.q.9.9.d.b.b.I.D.I.b.",
"I.D.I.I.D.q.D.b.q.8.t.0.p e %.%. .%.#. . .@.o.@.@.( o.#.#.o.@.| @.@.o.@.@.%.- @.#.#.z 4 b.b.D.D.D.b.K.K.b.D.b.K.I.b.b.K.D.D.D.D.",
"I.D.D.b.D.D.D.D.D.D.D.D.d 6 %.%.#.#. .#.$.@.@.o.@.o.@.@.@.o.$.$.@.| @.@.@.%.- @.%./ 6 [ b.b.b.D.b.b.K.b.D.D.b.I.b.K.K.D.D.D.D.D.",
"D.D.D.b.D.I.D.I.D.k.D.D.D , %.%.%.%. .#. .@.o.o.@.@.o.o. .@. .| $.&.@.@.@.%.- @.%.w H I.I.b.b.D.D.I.K.b.I.I.I.b.I.D.D.I.D.b.D.D.",
"D.D.D.D.I.D.D.D.D.D.D.D.:.3 r e e # & O & r u e @ & r r r r u u r u E ~ U L O ! n u K.I.b.I.I.D.D.K.K.b.I.b.K.D.b.b.b.D.D.D.b.D.",
"D.D.D.D.D.D.D.D.D.D.D.D.D.} : % o 1 1 k q 1 % 0 _ x j x f s = = = * o o $ o O x J w.b.D.b.D.b.D.b.b.b.I.D.D.D.b.I.D.D.D.D.D.D.D.",
"D.D.D.D.D.D.D.b.D.D.D.D.D.D.D.D.b.I.I.I.D.Q.D.I.I.D.I.b.D.D.D.D.K.K.b.b.I.D.I.D.D.D.D.D.D.D.I.D.I.b.I.D.b.D.D.D.D.D.D.I.D.D.D.D.",
"D.D.D.D.D.D.I.b.b.D.D.D.D.D.b.D.D.D.I.b.D.D.D.D.D.D.D.D.D.D.D.D.D.b.D.D.D.D.D.D.D.D.D.D.b.I.I.D.D.D.D.D.b.D.D.H.D.D.b.b.D.D.D.D.",
"D.D.D.D.D.D.I.b.D.b.D.I.D.n.D.D.D.D.I.b.D.I.D.D.b.D.b.D.D.D.b.D.b.I.D.K.D.D.b.D.D.D.b.D.D.D.D.I.D.D.D.I.D.D.D.I.D.D.D.b.b.b.D.D.",
"D.D.D.D.D.D.D.D.D.D.b.b.D.D.D.D.D.b.b.I.K.b.K.b.D.D.b.b.b.K.I.I.I.K.b.I.D.D.D.D.D.D.D.I.b.D.D.b.D.D.D.D.D.b.D.b.b.D.b.D.I.b.b.b.",
"D.D.D.D.D.D.b.D.D.D.I.D.b.b.D.b.I.b.D.b.D.b.D.K.D.D.b.D.K.b.b.D.b.I.D.K.I.b.D.D.D.D.D.D.D.D.D.D.D.D.D.k.D.D.D.D.I.D.D.b.D.D.D.I.",
"D.D.D.D.D.D.D.D.D.D.D.b.I.D.b.I.D.b.D.I.b.I.b.K.D.I.H.b.K.D.I.D.D.D.D.D.D.D.D.D.b.D.D.D.D.D.D.D.D.D.D.D.D.D.D.D.D.b.I.D.b.D.D.D.",
"D.D.D.D.D.D.D.D.b.b.k.k.D.b.D.b.b.b.b.D.b.b.D.b.D.D.D.D.K.I.D.D.I.D.D.D.D.D.D.D.D.D.D.D.D.b.D.b.D.D.D.D.D.D.D.D.D.b.b.D.D.I.D.D.",
"D.D.K.K.D.D.D.D.b.b.b.b.a.a.D.b.b.k.b.b.r.b.b.b.b.a.b.b.I.b.I.D.D.D.D.D.D.D.D.D.D.D.b.D.D.D.D.D.D.D.D.b.b.b.b.D.D.D.D.b.I.D.D.D.",
"D.I.I.K.D.b.k.b.b.r.a.b.b.a.b.a.r.r.d.r.9.q.q.9.9.9.r.I.9.q.D.I.b.D.D.D.D.D.D.D.D.D.D.D.H.D.D.D.D.D.D.D.I.I.K.D.D.D.I.D.I.D.D.D.",
"D.b.b.b.D.9.D.8.9.9.q.K.a.d.d.q.D.q.8.k.9.9.9.9.d.9.9.8.k.b.D.D.D.b.I.D.D.D.D.D.D.D.D.D.D.D.D.b.b.D.b.D.D.D.D.D.D.I.I.D.D.D.D.D.",
"b.K.K.K.b.b.I.D.D.I.D.Q.b.r.d.a.D.q.b.D.9.d.K.d.q.1.r.b.D.D.D.D.b.D.D.D.D.b.b.D.D.b.D.D.H.D.D.D.D.D.D.D.D.b.b.b.b.b.b.b.b.b.k.D.",
"I.D.D.D.D.D.D.D.I.K.I.b.K.b.I.D.D.K.b.D.D.D.b.D.b.I.K.I.D.D.D.D.D.D.D.D.D.I.D.D.D.D.b.N.D.b.D.D.k.b.I.D.k.D.b.k.b.r.b.q.q.r.I.D.",
"I.D.D.H.N.D.D.I.b.I.b.D.b.I.D.D.D.D.I.D.b.D.I.D.D.b.b.b.D.D.D.D.D.H.D.D.D.D.D.D.D.D.D.D.b.b.D.D.D.I.D.k.D.D.D.D.I.D.D.D.I.D.b.I.",
"D.D.D.b.D.D.D.D.I.I.D.D.D.D.D.D.D.D.D.D.D.D.D.D.D.D.K.D.D.D.D.D.D.D.D.D.D.D.D.D.D.D.D.D.D.b.D.D.D.D.D.I.D.D.D.D.I.I.D.D.D.D.b.I.",
"b.D.D.D.D.D.D.D.I.D.D.D.D.D.K.D.D.b.D.D.D.D.D.D.D.D.D.D.D.D.D.D.D.D.D.D.D.D.D.D.D.D.D.D.D.D.D.D.D.H.I.D.H.D.D.D.D.D.D.I.D.D.D.D."
};
