/* XPM */
static char *f717e462885444c2f6846b4db6e1be87yG0SFoV50IyH5bxP[] = {
/* columns rows colors chars-per-pixel */
"64 64 144 2 ",
"   c None",
".  c #040304",
"X  c #080607",
"o  c #090907",
"O  c #060609",
"+  c #090708",
"@  c #0A0A0A",
"#  c #100E0F",
"$  c #131414",
"%  c #1D1C1D",
"&  c #271604",
"*  c #211F20",
"=  c #232323",
"-  c #292927",
";  c #26262A",
":  c #29272A",
">  c #2B2B2B",
",  c #302E2F",
"<  c #2D2E30",
"1  c #312F30",
"2  c #333333",
"3  c #393738",
"4  c #3B3B3B",
"5  c #433F3E",
"6  c #40403E",
"7  c #444444",
"8  c #484647",
"9  c #494748",
"0  c #4B4B4B",
"q  c #524E4D",
"w  c #53524F",
"e  c #545353",
"r  c #585754",
"t  c #5A5956",
"y  c #595758",
"u  c #5D5C5A",
"i  c #605F5D",
"p  c #62615E",
"a  c #615F60",
"s  c #646463",
"d  c #686765",
"f  c #696866",
"g  c #6C6C6C",
"h  c #716E6D",
"j  c #73716F",
"k  c #747473",
"l  c #7A7776",
"z  c #7A7876",
"x  c #7B7B7A",
"c  c #807F7D",
"v  c #F55C7E",
"b  c #83817E",
"n  c #817E80",
"m  c #848483",
"M  c #898685",
"N  c #8A8986",
"B  c #8C8B8A",
"V  c #918E8C",
"C  c #8D9387",
"Z  c #92918E",
"A  c #949392",
"S  c #999694",
"D  c #9A9997",
"F  c #9D9C9B",
"G  c #A19E9D",
"H  c #A2A19E",
"J  c #A19FA0",
"K  c #A5A4A2",
"L  c #A9A6A5",
"P  c #AAA9A6",
"I  c #ADACAB",
"U  c #B1AFAC",
"Y  c #AFB0AB",
"T  c #B2B1AE",
"R  c #AFAEB1",
"E  c #AFB1B0",
"W  c #B4B4B3",
"Q  c #B8B7B6",
"!  c #B6B8B7",
"~  c #B9B8B6",
"^  c #BAB9B7",
"/  c #BAB9B7",
"(  c #B7B5B8",
")  c #B9B7B8",
"_  c #B8B8B8",
"`  c #BBBBBB",
"'  c #BABAB8",
"]  c gray74",
"[  c #BDBCBB",
"{  c #DA82B4",
"}  c #E189BB",
"|  c #E188B8",
" . c #C0BFBD",
".. c #C2C1BF",
"X. c #BFBFC1",
"o. c #EC8BC0",
"O. c #EA8CC0",
"+. c #F08FC4",
"@. c #C1BFC0",
"#. c #C3C3C3",
"$. c #C4C3C1",
"%. c #C6C5C3",
"&. c #C7C5C6",
"*. c #C7C6C4",
"=. c #C4C4C4",
"-. c #C9C9CB",
";. c #CBCAC8",
":. c #CECECE",
">. c #CCCBCC",
",. c #D0CFCD",
"<. c #D0D0CE",
"1. c #D1CFD0",
"2. c #D1D1D1",
"3. c LightGray",
"4. c #D5D5D7",
"5. c #D7D5D6",
"6. c gray83",
"7. c #D3D3D3",
"8. c #DBDBDD",
"9. c #DDDDDD",
"0. c #E0DFDD",
"q. c #DFDFE1",
"w. c #E2E2E2",
"e. c #E3E2E2",
"r. c #E9E7E6",
"t. c #EAE9E7",
"y. c #E7E7E9",
"u. c #EEEEEE",
"i. c #ECEBEB",
"p. c #F1EEEF",
"a. c #EFEFF1",
"s. c #F4F4F4",
"d. c #F8F6F7",
"f. c #F8FAF7",
"g. c #F9F7F8",
"h. c #F9F9F9",
"j. c #FDFCFA",
"k. c #FDFDFD",
"l. c #FFFFFD",
"z. c #FDFDFF",
"x. c #FEFEFE",
"c. c white",
"v. c #FCFEFD",
"b. c #FCFCFC",
/* pixels */
"                                                                                                                                ",
"                                                                                                                                ",
"                %                                                                                                               ",
"                I 4.$                                                                                                           ",
"                h p A b o                                                                                                       ",
"                f s h k M o                                                                                       o             ",
"                = i N m K ( o                                                           X . .                   . %             ",
"                  u F H m f h                                                         . ( W _ X X               . W o           ",
"                  X I h s f ;.>                                                       O W +.O.` X               $ ( I           ",
"                  ; - s s ~ ~ #.                                                      o F } { O.W X x.        f W W P .         ",
"                    2 l Q ~ ' W >                                                     @ k } { O.W K = o o O # @ @ * m @         ",
"                    4 Z ..*.T x $                                                   4.@ - m } ( W W K 0 y Z 0 m B W O O         ",
"                    x.3 U x p t $                                                   @ K O K P P B A I I e 8 I 9 E Y W @         ",
"                      = f f g p r                                                 @ @ M k W F F z x.3 . . t W q 0 h.X s         ",
"                      - d z ..U m                                                 @ l D F W F F W x.@ . . E E E u v.; #         ",
"                      - F ..*.W m                                               o t t t t d Y I F @ . . . W ( _ W 6 @ o         ",
"                      > B &.L l k                                               o p F V k s D S K . . . . E W ( E O . O @       ",
"                      4 e k f d u                                               6 r p A V B k s F O . $ X _ W W W . . O @       ",
"                      > 4 f k c N                                             # H A u b i F W F E Y ! W W W W W E W E W F o     ",
"                      : l Z ~ U n                                             o K A D ! l V W ] ! #.] 8.4.-.x.= . :.W W W O - $ ",
"                      - F ) W A 8                                               g l S . . . . 8 #.W u.j.x.( & . . x.e.@ . 1     ",
"                      - S t r t %                                               8 e p p W 1.7.. . @ 7 v.x.x.v.O b.x.2.> W #.    ",
"                      * y y r u $ x.                                            B N Z W W I W #._ v.v.b.v.b.j.o b.b.v.v.b.j @   ",
"                      $ u u L I 2 x.                                            3 M D W W 2.( #.s % @ v.v.x.] o 2 b.v.b.= X w.  ",
"                    9.= D Q R I = e i.          % X @ @ # # # o @ # @ # # ; O O # o z H  .' 7 X # b.= f o > o v % o o o * @ 0 @ ",
"                    m - W U W f z z - o t p k A H H j f b A B u i N A Z N 0 > 2 z j B x K X o ` a.a.h.x.s.b.b.x.h.7 % O       d.",
"                    > H U U L k k m u n i t h P I D s p K P p t s Z S F x A H F F F S W s o m =.a.u.a.r.. O X * o *             ",
"                    > K I U N f N g p K r t Z I Y V s h L L t r C F F S u f F D B G F F K K K [ t.u.a.a.s.F K G < s.            ",
"                    - A T P l D Z t b K t t K W I b d l K H i r Z A D N i g F F p H H F H F K 1.t.t.i.a.t.K L d %               ",
"                  r.$ L T z V I d p K P r p L Q T b p j H G u t N Z S S i h S G p N F K G F ` e.i.i.i.t.w.H b u 1               ",
"                  a % I b A U L t x L P t p I [ T V p g L H p t f S S D d p G K f d m L L G ` r.i.t.i.i.8.H K F                 ",
"                  % 4 f f Q U l u K P T u t H [ T F p s H H z t i D D F S u G K M d p V G G W r.i.i.i.i.$.K I -                 ",
"                  * L f T T T s d L I W b t x ~ W U d p H K K r i G Z Z G p d F L b u p A H I t.t.t.i.a.H K C =                 ",
"                f K U T T T T p b T W ~ [ i j ' ^ W Z g I P L d i G F M H N t F P K S i p G A 0.i.i.> s.A H s                   ",
"                % I T T W T U u Z W ~ ......b #.^ Q U f I I P V p S H N H H h b L K K G p p Z >.u.u.> 8.D K =                   ",
"                $ K U T T W H p Z ~ [ [ ....f K ~ T T d M P H L d j F G G H B g B G G J H j S r.s.s.> a.K H                     ",
"                = t.] R U W A p F ^ [ ..]  .j h W T T c s L H H M p S F H H V > r s G F F V *.u.s.:.> x.U :                     ",
"              7 = b.b.9.W W Z k H ~ ~ ^ ~ W P B ~ U L L i k H D S p s G H K P > e u r f V B K u.a.- -.x.5.                      ",
"              > = b.x.b.q.[ I F I I Q T I I d.b.#.L L L S p D D S D s G G G L 5 w f t t e M g p.s.- x.g.2                       ",
"              K = b.v.v.b.j.e.#.T I P B :.s.x.b.y.;.U H J z N V Z F V ~  . .U H - P x u s u u u.p.- b.W                         ",
"              x.1 v.b.b.x.b.b.s.f.j.x.4 x.b.j.b.b.x.b.x.b.x.b.x.j.v.b.x.b.b.b.s.- e K F s p 6.u.I 7 s.2                         ",
"              x.4 v.v.b.b.b.b.x.x.j.x.3 b.b.b.x.v.x.s.b.b.b.x.b.x.b.b.b.b.v.2 1 2 h J F S i.s.s.m 3 2                           ",
"              x.7 x.b.x.b.b.b.x.x.b.b.< b.D w < 4 b.x.x.b.x.b.x.x.x.b.k 2 2 M I ] 2 I K 2.s.s.s.L 3 b.                          ",
"              b.8 w.b.b.x.b.x.b.j.x.b.- 8 d s.s.                        s.a.4 7 a.1 s.y.s.s.s.h.d.0                             ",
"              x.b.2 v.b.b.b.b.b.x.x.> I                                     2 s.s.s < s.s.s.s.a.s.7                             ",
"              x.b.7 b.x.x.v.x.b.b.B <                                     2 D s.s.] 2 2 s.a.d.s.s.-                             ",
"              x.b.8 b.x.b.x.x.x.x.=                                       % d.s.d.b.d.2 7 g.g.d.s.s.                            ",
"              r 2 b.b.b.x.b.b.b.>                                         4 b.b.b.d.-   4 I s.s.s.s.0                           ",
"              > 2 x.b.x.b.x.6 =                                         = e.h.b.h.q       ; s.s.s.s.s                           ",
"              - b.v.b.x.Z ; > b.=                                       2 h.h.h.y -       * #.s.s.b.g                           ",
"                b.b.x.b.g m b.b.N                                       s h.h.h.=           % s.s.s.2                           ",
"                4 x.x.b.a = - v.x.%                                     > b.b.x 2           % s.b.s.7                           ",
"                  b.b.b.> d.v.9 b.b.                                  y d.h.b.%             = g h.s.4 e                         ",
"                  2 e.b.b.> x.k x.b.                                  0 b.b.= a               % b.b.s.;                         ",
"                    > b.v.4 f = < g.                                . m i.b.* x.              * s.s.b.-                         ",
"                    2 > b.v.< i.4.<                                 . 2.b.9 8                   7 b.s.s.>                       ",
"                      ; x.x.- k 4                                   . t.x.k =                   * #.s.d.i.3                     ",
"                      b.- b.b.h.;                                     s x.x.b.=                   a b.b.q.b.=                   ",
"                      3.q.m 9 > m                                     n 2 e 2 k                       % % *                     ",
"                    N g g l M E -.=.=.                                  k h k k x F                                             ",
"                  2.g s s s s k s s s s s f g F                           A M x g g g x m m x x z m M m x                       ",
"                v.R k k f g g x g g s g g k x m N A                           y.8.X.m g A k s s d x B k k k g h g k             ",
"              s.E B k x x g s s s s k D m m n m n x m m m B m m B N B N m n x l g g g g g g a a s g k k n m m m S               ",
"            #.n k g g g s a s a a a g m m m n x x k k x k k k j j g g g g k k x m F J g s s s s s s d s s f s s s N             "
};
