/* XPM */
static char *a34648e31c074f5ae4d6fc84747bef8aeZQvgFqT9RznIGuO[] = {
/* columns rows colors chars-per-pixel */
"64 64 205 2 ",
"   c #030302",
".  c #080607",
"X  c #060A06",
"o  c #080A06",
"O  c #0A0B0A",
"+  c #070908",
"@  c #0D120A",
"#  c #0C1407",
"$  c #121B0E",
"%  c #10150E",
"&  c #0F0F11",
"*  c #131313",
"=  c #161B14",
"-  c #1C1C1C",
";  c #181817",
":  c #141310",
">  c #182414",
",  c #1C2A17",
"<  c #1E2C19",
"1  c #1A2318",
"2  c #1F3119",
"3  c #23351B",
"4  c #27391F",
"5  c #1F2022",
"6  c #232222",
"7  c #2C2C2C",
"8  c #252A24",
"9  c #2C3527",
"0  c #353535",
"q  c #3D3D3C",
"w  c #373F34",
"e  c #313C2C",
"r  c #2A441F",
"t  c #2D4423",
"y  c #2F4925",
"u  c #334A29",
"i  c #39582E",
"p  c #365229",
"a  c #3D433A",
"s  c #3F5B31",
"d  c #3F513B",
"f  c #405C34",
"g  c #456939",
"h  c #4E753E",
"j  c #444343",
"k  c #4C4B4A",
"l  c #484A46",
"z  c #52514E",
"x  c #525D4D",
"c  c #555554",
"v  c #5A5957",
"b  c #5D5C5B",
"n  c #5B5756",
"m  c #4A5247",
"M  c #605F5D",
"N  c #547D42",
"B  c #53684B",
"V  c #62615E",
"C  c #5F5D60",
"Z  c #615F60",
"A  c #5F6160",
"S  c #646462",
"D  c #696765",
"F  c #666B64",
"G  c #696A66",
"H  c #6D6C6A",
"J  c #716E6F",
"K  c #6A7366",
"L  c #6D7A67",
"P  c #6D7B68",
"I  c #6C736A",
"U  c #71716E",
"Y  c #716F70",
"T  c #757472",
"R  c #7A7975",
"E  c #7D7C7A",
"W  c #787776",
"Q  c #817E7D",
"!  c #F85D7D",
"~  c #5A8849",
"^  c #659450",
"/  c #72AE59",
"(  c #6E8169",
")  c #72836A",
"_  c #758C6A",
"`  c #708066",
"'  c #76936C",
"]  c #7A9A6E",
"[  c #7A946F",
"{  c #7C9474",
"}  c #7CBC62",
"|  c #7EA470",
" . c #7CA16E",
".. c #7FC263",
"X. c #83827F",
"o. c #81A671",
"O. c #83AC70",
"+. c #89B876",
"@. c #81C666",
"#. c #8BD26E",
"$. c #8DD86F",
"%. c #8DC277",
"&. c #8EDA70",
"*. c #96DC7A",
"=. c #94D878",
"-. c #91CC7A",
";. c #95F46F",
":. c #96F86F",
">. c #95EB73",
",. c #9AE57C",
"<. c #9BEB7B",
"1. c #95E575",
"2. c #96F572",
"3. c #9AF675",
"4. c #97F871",
"5. c #9BF975",
"6. c #9EF47B",
"7. c #9EFB7A",
"8. c #93EC6E",
"9. c #A1EF7F",
"0. c #A1F67E",
"q. c #A2FC7E",
"w. c #858383",
"e. c #8B8987",
"r. c #8D8C8A",
"t. c #888785",
"y. c #918E8C",
"u. c #92918F",
"i. c #949493",
"p. c #999694",
"a. c #9A9996",
"s. c #9D9C9B",
"d. c #999798",
"f. c #8F908A",
"g. c #A09D9C",
"h. c #9FA09B",
"j. c #99AD94",
"k. c #9CA48D",
"l. c #A2A19E",
"z. c #9F9FA1",
"x. c #A19FA0",
"c. c #A5A4A2",
"v. c #A9A6A5",
"b. c #A6A9A3",
"n. c #AAA9A6",
"m. c #ADACAA",
"M. c #A7A8A9",
"N. c #B0AEAD",
"B. c #AEB3AA",
"V. c #B2B1AE",
"C. c #AFAFB1",
"Z. c #B1AFB0",
"A. c #B4B4B3",
"S. c #BABAB6",
"D. c #BCBBBA",
"F. c #B8B6B6",
"G. c #DA82B4",
"H. c #CA95B0",
"J. c #C0BDBC",
"K. c #9FD389",
"L. c #9EEC80",
"P. c #A0EF81",
"I. c #A3F582",
"U. c #A6FE83",
"Y. c #A8FD84",
"T. c #A9FF84",
"R. c #A8FF86",
"E. c #AAFE85",
"W. c #A9FE84",
"Q. c #AAFD8A",
"!. c #A6FB88",
"~. c #BEC0BD",
"^. c #BDF6A7",
"/. c #C2C1BF",
"(. c #CDEBB4",
"). c #FD9AD0",
"_. c #C3BFC0",
"`. c #F3ABCC",
"'. c #C4C4C3",
"]. c #CAC9C8",
"[. c #D0CFCD",
"{. c #CFCDD0",
"}. c #D4D4D4",
"|. c #DDDCDB",
" X c #D8D6D7",
".X c #E5F4DD",
"XX c #E3EEDE",
"oX c #E1DFE0",
"OX c #E3E3E3",
"+X c #E8E5E6",
"@X c #EDECEC",
"#X c #E7E9E5",
"$X c #F0EEEE",
"%X c #EFFAEB",
"&X c #ECF6E9",
"*X c #F1F0EE",
"=X c #F2FAED",
"-X c #EFEEF0",
";X c #F1EFF0",
":X c #EFF1F0",
">X c #F4F3F4",
",X c #F4F9F4",
"<X c #F9FCF7",
"1X c #FDFDFD",
"2X c #F7F7F8",
/* pixels */
"U.U.U.R.R.U.U.U.q.R.U.U.U.W.U.U.U.U.U.U.U.U.U.U.U.R.U.W.U.W.W.U.R.U.W.U.W.U.U.W.U.R.U.U.W.U.Y.U.U.W.U.W.U.U.U.W.U.U.U.U.U.U.U.U.",
"U.R.W.U.W.U.U.U.R.U.R.U.U.U.R.W.U.U.U.U.U.U.U.R.U.U.U.U.R.U.U.U.U.W.U.U.U.U.U.U.U.U.R.R.U.U.W.R.q.U.U.W.U.U.U.U.U.U.U.W.W.W.U.U.",
"q.W.U.U.U.U.W.U.R.U.q.R.W.U.W.U.W.R.U.U.U.U.U.U.U.R.W.U.U.W.U.U.W.R.U.U.U.U.U.U.U.U.U.I.q.I.U.q.I.U.W.U.Y.!.I.U.U.U.U.U.W.U.U.W.",
"R.R.U.U.U.U.U.W.W.R.U.R.U.U.W.U.R.R.U.U.U.U.U.U.W.U.R.R.U.W.U.W.U.U.U.R.U.R.U.U.U.U.U.U.U.U.I.U.U.U.U.U.q.Y.I.Y.Y.U.Y.U.U.U.U.U.",
"W.W.W.U.R.U.W.U.            U.U.U.R.U.U.R.U.U.W.U.U.W.U.U.U.U.U.U.R.R.U.U.U.U.U.R.W.U.U.Y.q.!.U.I.U.I.!.!.U.U.!.U.U.U.U.U.U.U.U.",
"W.U.q.U.U.U.W.$ u H Z Z H T   $.U.U.W.U.W.U.U.U.U.W.U.U.U.R.U.U.W.U.U.U.U.U.U.W.U.q.U.U.W.U.W.W.R.I.Y.I.0.I.I.U.U.h @.W.q.U.W.U.",
"U.U.U.U.U.W.7.  D V M e.d.J X.  R.R.U.U.U.U.U.U.U.R.U.W.U.U.U.R.U.U.W.U.U.W.U.U.I.U.U.U.U.U.R.R.R.U.I.Y.Y.I.U.Y.} X o R.:.U.R.W.",
"U.U.U.U.U.5.3.  q U S.S.S.A.v   a U.U.q.!.U.W.q.R.U.R.U.R.U.U.U.W.R.U.R.U.U.U.U.U.U.U.i 3 $ # = i Y.I.R.Y.U.I.Y.O X.X r q.U.U.R.",
"R.Y.I.U.q.q.q.U.  $ S.S.u.M M M   U.U.U.U.U.U.U.U.U.U.U.U.R.U.U.U.W.U.R.R.U.U.U.U.U.U.N x.v.H.A.i X U.U.q.U.U.U.X F.A.. U.U.U.U.",
"U.I.Y.U.U.W.R.W.R.f & n.Z M H d.  W.U.U.R.U.U.W.U.R.R.U.U.U.R.W.U.U.W.U.U.U.U.I.U.U.U.<.{ G.G.G.V.@   q.U.!.Y.l * F.H.. U.U.U.R.",
"Y.!.U.Y.U.U.q.W.U.Q.-.1 G v.d.s.X U.U.U.U.U.U.U.U.U.U.R.U.U.R.R.W.U.U.R.U.U.U.U.I.U.U.<.e Q G.G.A.j.            X A.G.X U.R.R.W.",
"U.I.W.I.U.U.Y.R.U.U.U.] /.'.m.Q O W.R.U.W.U.U.R.U.U.U.U.U.U.q.U.U.U.U.U.U.U.U.U.U.R.U.I.. 0 T V.A.B.l.e.v k k V b E + . Q.U.U.U.",
"Y.U.U.U.U.q.W.q.W.R.R.g N.E V M . U.U.U.U.R.U.U.R.U.R.U.R.U.U.q.U.U.R.U.U.q.R.U.U.U.#.+   0 O M.r.u.b.A.A.c.c d.b k i.. 3.U.U.W.",
"U.U.Y.q.W.U.q.Y.W.5.R.9 G D J M y U.R.U.R.q.W.W.U.U.U.R.U.R.U.q.U.W.U.U.W.R.U.U.U.$.+ q k k s.a.w.c.>X  + 0 m.D Z.k 2X1 q.q.U.U.",
"U.U.Y.6.3.:.7.q.q.q.9.l T E /.V.* 7.U.U.W.U.U.R.R.U.W.U.U.U.7.U.U.W.U.W.W.U.U.U.U.(.& d.d.C.a.d.A.A.1XX - + x.c w.b 1X5 q.R.U.I.",
"W.U.U.3.;.q.6.U.q.q.i v.V.'.'.m.= U.R.7.U.U.W.U.U.U.R.U.U.7.U.U.R.U.U.R.U.W.W.U.U.  j m l S c.M.C.i.X   . . A.F.A.A.0 . U.R.U.0.",
"U.U.U.2.;.U.3.U.q.q.9 '.].F.S * 1.Y.7.q.W.U.W.W.R.R.W.U.U.U.U.W.U.W.q.U.U.U.U.U.} + s.r.T c k i.C.A.+ 6 X + C.A.A.A.  8 U.U.U.U.",
"U.U.;.;.>.3.7.q.q.6.3 ~.l.V Z - 7.0.q.U.W.U.W.U.U.U.U.W.W.R.R.U.U.W.R.U.R.R.U.7.  z c a.r.w.T A m.A.c + . + m.A.C.A.  & O U.U.U.",
"Y.U.;.2.5.7.q.q.7.I.3 H A V T 8 3.5.W.U.U.U.U.U.R.U.U.U.U.R.R.U.q.W.U.R.U.U.q.2.q u.k k b h.A.A.C.A.F.A.A.A.A.F.A.A.A.A.F.y U.I.",
"U.U.5.3.U.q.q.q.q.3.> V F i.D.1 :.q.R.W.U.U.W.U.U.U.R.U.R.U.W.q.U.q.W.U.R.U.;.y z c.a.C.b k b . * F.D. X}.'.{.2X&   A.C.A.  N < ",
"Y.Y.Y.U.U.q.7.U.q.3., m.m.F.A.; 1.U.U.W.U.U.U.U.U.U.R.W.U.U.q.U.U.7.7.U.U.4.:.@ 0 t.a.A.B.z.d.z.~.+   z 1X1X2X+     oXC.    . I.",
"Y.I.U.U.7.I.I.U.3.0.u D d.v n c X W.W.U.W.W.W.U.U.W.W.U.U.U.U.U.7.q.7.5.q.2.7.l   V M v z.i.i.D.F. X1X    2X1X2XX S.1Xe.8 F.X Q.",
"!.Q.U.q.U.I.U.U.U.0.9.* n v v b   U.W.U.U.U.U.U.W.U.R.U.U.!.!.6.6.>.4.2.4.5.q.0.  t.u.l.E C D.~.F.1X1X1X2X2X2X2X. 2X1X1Xs.|.X !.",
"I.U.U.U.W.U.U.U.U.U.0.O b b v.m.  &.U.U.W.U.R.W.W.U.W.I.9.U.U.I.6.6.5.4.5.!.I.,.  * d.v.C.w.A.'.2X1X1XX + OX1XO :  X1X1X& . X I.",
"Y.I.U.U.W.U.!.I.R.U.U.g * F.V.m.X O ,.R.U.U.U.U.U.U.                U.U.9 m   = j * T x.J.S.A.A.2Xr.O e..   . O !   + + 1 $.@ I.",
"Y.!.U.U.W.U.I.U.W.W.Q.+.O V.A.D W T .               k H U s.u.v b W j             R H R n.A.c.. + * 2X2X2X$X1X2X>X@X2X  + U.I.U.",
"U.R.R.R.q.R.I.R.Y.Y.E.f 5 T n.T T X.v E v v J m.m.a.D V n.n.V n S p.p.h.R i.s.s.s.d.d.A.B.Z.m.'. X& = ;X>X>X*X.   X X N U.U.U.Q.",
"I.!.R.U.W.!.Y.R.Y.Q.P.. m.A.e.D e.H S v.n M u.V.V.r.S U n.v.b v u.d.l.i.S H a.c.e.s.s.g.M.v.v.D.@X;X>X@X>Xg.s.v.O (.U.6.6.U.U.7.",
"Y.Y.U.U.U.q.U.U.U.!.O D N.m.T s.i.b w.n.n b n.A.A.E S R v.c.b v u.p.p.e.b Y a.g.S g.g.g.v.x.c.{.;X-X@X>X@Xc.v.D o I.!.U.I.U.U.I.",
"Y.!.U.U.U.U.U.U.U.K.  v.m.R u.m.S b j.n.n M n.V.Z.w.V T l.g.b v e.u.a.p.b H a.g.S e.g.c.c.l./.@X;X;X;X;X+Xn.w.M X I.I.I.I.U.U.U.",
"I.I.U.U.W.U.U.U.U.% l.n.w.i.m.n.n E n.n.v Z m.A.A.u.V H v.l.V n G g.p.p.D M x.c.G D t.v.c.l.J.@X@X@X;X$XoXl.n.D X !.I.I.U.U.U.U.",
"Y.!.W.U.U.U.U.U.B 6 m.F D F.m.R V c.n.B.v b l.F.B.s.M S v.l.Q v n p.a.s.d.b l.v.t.D S f.c.l.A.@X@X>X$X>X].c.m.O } U.U.I.U.U.U.U.",
"U.U.U.W.W.W.U.U.* c.c.D V.A.m.D D b.N.F.X.b R S.F.N.D V l.v.v.n M g.u.u.g.M V g.c.w.b V E W m.@X:X@X>X>Xc.v.k.o U.Y.!.U.U.U.U.U.",
"I.U.U.R.U.R.q.*.: m.V.V.V.V.V.V X.N.F.S.J.M U J.S.A.u.J N.m.n.F V g.g.e.l.e.b Q n.c.d.V S V i.OX@X*X>X2Xa.c.S   I.U.U.U.U.U.U.U.",
"I.R.R.q.U.W.!.~ 8 c.B.A.A.V.m.b u.A.S._._.'.Q '.S.A.N.D m.m.m.r.V a.l.y.l.b.J V X.n.c.c.V M u.[.>X>X2XoXs.c.O g U.U.U.U.U.U.U.W.",
"I.R.U.R.U.U.U.s S x.s.l.v.F.c.V p.S.J.J.J./.G c.S.V.V.F e.m.n.v.G T a.g.l.l.e.H b d.l.c.l.U d.@X2X2X2XOXb.c.X I.!.U.U.U.U.U.U.U.",
"Y.R.R.W.W.U.U.s Q {.m.A.c.V.i.S d.S.S./.S.D.U U F.A.V.Q V b.c.c.t.S s.l.l.l.i.M v S Q l.s.u.].>X2X2Xi.;Xm.S.@ q.q.q.W.U.U.U.U.R.",
"I.U.R.U.U.R.U.^ V  X@XoXV.F.u.T c.F.S.S.S.A.n.r.F.V.m.b.V W l.s.p.S D g.l.n.m.y.S v v D i.r.c.>X>X>X  -X+X9 p 6.q.5.U.U.q.U.U.R.",
"Y.U.U.R.U.W.!.!.- -X@X@XoXS.m.g.V.m.A.V.n.m.OX+X/.m.v.v.a.V a.a.d.p.D g.l.l.l.n.n.U v b c R H >X2X$XO 2X,X  3.0.0.7.W.5.5.R.U.W.",
"Y.U.W.W.U.U.U.I.* >X>X>X*X#XOX'.A.m.n.V.[.@X@X@X#X].V.l.h.E r.i.i.s.y.J.'./.V.m.n.n.Q b S b C -X>X  >X2X1 X 3.3.3.5.5.4.7.U.U.U.",
"!.!.W.q.W.R.U.I.< 7 >X2X>X;X$X>X$X@X@X$XXX$XS.:X@X@X#X@X@X@XOXOXOX#X@X@X$X@Xx.@XS.n.c.Q A S  X2XX >X2X@X  3.2.2.5.6.5.5.5.U.W.W.",
"I.Y.W.R.W.U.Y.I.N   2X>X2X>X>X>X>X2X>X*X;X@XZ @X$X$X-X$X@X@X@X@X$X@X$X$X@Xb Z ;XoXV.x.y.d.>X'.    2X<X  3.3.7.5.5.5.3.;.U.R.U.W.",
"U.U.U.U.U.R.U.3.>.  *X2X>X2X<X>X>X>X>X*X2X>X  {.>X>X.X*X>X&X*X*X>X*XoXx t O ;X>X>X*XN.v.}.e.  a.1X1X  u U.q.7.7.5.:.5.!.U.U.U.W.",
"U.U.U.W.U.q.;.6.2.t   ,X&X=X2X2X2X2X>X<X>X*X      @ O # X O O O O O o > t  X;X;X>X>X2X;X<X  <X1X2X1X  @.W.q.7.5.5.q.U.U.U.U.R.U.",
"q.U.U.U.U.7.U.q.q.8.d 2X1X1X1X1X1X2X2X2X,X    I.U.0.2.<.I.7.I.U.I.I.!.<.1 2X2X1X2X2X<X%X  c.2X@X2X2X. R.U.U.q.U.q.U.W.U.U.U.U.W.",
"W.W.U.W.U.U.U.W.q.U.U.7 1X1X1X1X2X1X2X2X%X  U.U.U.0.!.U.!.I.U.I.I.I.I.t S 2X1X1X<X1X&X% @.  1X1X1X1X  q.W.q.U.U.U.U.U.U.U.W.U.W.",
"U.U.U.U.R.U.W.U.U.U.8   1X1X1X1X1X1X1X<X  } !.U.U.I.q.I.q.7.U.I.U.I.U.l OX1X1X2X1X1X  U.Y.  J 1X1X1Xc . U.U.W.W.U.q.U.U.q.U.U.U.",
"U.R.U.W.U.U.W.U.q.a q 1X1X1X1X1X1X1Xi.    U.U.U.I.U.U.q.!.U.I.q.q.!.x A.g.1X1X1X1X  0.U.U.Y.  1X1X1X2X  1.U.W.U.W.U.U.U.W.U.U.W.",
"U.R.W.U.U.U.R.U.> X.1X1X1X1X1X1X1X    7 $ U.U.U.W.U.U.U.U.U.I.U.U.U.0 1X1X1X1X&X= R.U.U.q.U.h   1X1X1X X  U.U.U.U.U.U.W.U.U.U.W.",
"U.U.U.W.U.W.U.W.@ 1X1X1X1X<X1X    n.1X  U.U.U.U.U.U.U.U.U.U.U.U.U.I.v 1X1X1X.X> >.U.U.U.U.Y.U.  8 1X1X1X% y U.R.U.U.U.U.U.U.U.U.",
"U.R.U.W.W.U.U.U.1 1X1XS.  6 7 }.1X1X  &.R.U.U.U.R.q.U.U.U.!.U.q.U.f V.@X1X1X> <.U.U.U.U.U.I.R.U.  1X1X1Xi.O U.U.q.U.U.U.U.U.W.U.",
"W.U.U.U.U.U.U.U.x 1X1X1XX 1X1X1XH O > q.U.U.W.U.U.U.U.U.U.q.!.U.U.X 1X1X1XA ~ U.U.Q.R.U.U.U.U.W.K.  1X1X*XX U.U.U.W.U.U.U.U.U.R.",
"U.U.U.R.W.U.U.U...O <X1X1X5 +X&X= U.U.U.U.U.U.U.W.U.U.R.W.U.U.U.^ = 1X1X2X$ U.U.U.U.U.R.U.U.U.U.!.  '.1X1X6 U.U.U.U.U.U.U.U.U.U.",
"U.U.U.W.R.U.U.W.U.< @ 1X1XF.    h U.U.U.W.U.q.U.U.U.U.U.U.U.R.U.X M.1X1Xb U.U.U.U.U.R.U.U.W.U.R.,.  +X1X1X7 U.U.U.U.U.U.U.W.U.W.",
"U.U.U.U.U.W.U.U.q.U.@   1X1X&Xl   U.U.U.U.U.U.U.U.U.U.U.U.W.q.W.o 1X1X1X, U.W.U.U.W.U.U.U.U.U.U.1 <.`.).1X3 R.U.U.q.U.U.U.W.U.W.",
"U.U.W.U.W.U.U.U.U.q.U.  <X1X1X1X  K   #.U.U.U.U.W.U.U.U.R.U.W.} v 1X1X. * p U.W.0.U.U.W.U.U.U.W.< ).7.(.a $.U.U.U.U.U.U.U.U.R.U.",
"U.U.U.R.U.U.U.R.U.q.U.6.  '.<X1X  1X:X  q.U.q.U.U.q.W.q.U.U.U.$ 1X1X1X/.1X1Xu U.q.U.W.R.W.W.W.R.t ~ ).9 g U.U.U.W.q.U.R.U.U.W.U.",
"U.U.U.U.U.q.U.q.U.q.q.q.U.- + 0 ; 1X1X  7.7.7.7.5.5.q.U.3.7.U.i b 1X1X1X1X1X< R.U.W.U.U.U.W.W.q.>.> 3 h U.U.U.U.U.U.R.U.W.U.R.U.",
"U.U.U.R.U.5.U.3.5.4.q.U.q.>.;   $ @ 9   3.7.5.7.7.4.5.3.q.W.U.#.g O O O X o I.U.U.U.R.U.U.W.q.W.W.U.U.U.U.U.U.U.U.q.U.U.q.U.U.U.",
"U.q.U.U.U.U.R.U.U.R.W.U.*.L I ) _ ' | L.4.7.q.7.q.4.q.W.W.W.U.U.,.) F K K ` ) O.I.U.U.U.q.W.R.R.U.0.L.I.P.6.U.q.q.U.U.U.U.U.U.U.",
"U.U.U.U.U.U.U.U.Q.U.U.U.<.L F F F S P %.I.U.U.U.R.U.U.U.W.U.W.U.,._ F K F F H F ( P.q.U.U.I.q.I.| F F F F ] I.U.U.q.q.q.7.q.R.R.",
"U.U.U.I.U.U.U.U.U.L.| | o._ _ F S S A P ] o.O.+.=.P.I.!.R.W.U.U.U.I.,.-.+.] ( F F +.I.I.6.!.I.I.L S S S D K  .I.0.I.U.W.W.U.R.U.",
"U.U.U.U.U.U.U.U.U.*.P F S S S S S S S S F F S K L L ) ' ] ] [ [ [ _ ( P K K K D S F K P P P P P K F F S S F L ' _ ] %.I.U.R.U.U.",
"U.U.U.U.U.U.U.U.U.U.P.| S A S S A S C S Z S S S S S S V S S S S S S S A S S A S S A S S S A S S S S S D D S S Z S S P <.U.R.U.R."
};
