/* XPM */
static char *_3a6612f73134418b1f84e7e4ed2e411GVtD2MfYTJ5qXRoL[] = {
/* columns rows colors chars-per-pixel */
"64 64 212 2 ",
"   c #040404",
".  c #060905",
"X  c #080A06",
"o  c #0A0C0A",
"O  c #080708",
"+  c #0E140A",
"@  c #131E0E",
"#  c #10100E",
"$  c #0F1110",
"%  c #121512",
"&  c #141C12",
"*  c #1C1C1B",
"=  c #191C17",
"-  c #201E1F",
";  c #281602",
":  c #15210F",
">  c #162212",
",  c #1A2414",
"<  c #1C2B15",
"1  c #1D221B",
"2  c #1E2B1A",
"3  c #1F321D",
"4  c #212C1C",
"5  c #21251E",
"6  c #22331C",
"7  c #263A1E",
"8  c #293A1F",
"9  c #1E1D22",
"0  c #211F20",
"q  c #232323",
"w  c #292A26",
"e  c #2B2B2B",
"r  c #272928",
"t  c #263323",
"y  c #2A3C22",
"u  c #2D332B",
"i  c #2E3627",
"p  c #33352D",
"a  c #312F30",
"s  c #2F3130",
"d  c #333433",
"f  c #3B3B3A",
"g  c #363837",
"h  c #2B2F30",
"j  c #403D3E",
"k  c #28401E",
"l  c #2D4324",
"z  c #2E4926",
"x  c #324928",
"c  c #39552E",
"v  c #3B5D2B",
"b  c #3D4A39",
"n  c #41433F",
"m  c #405A37",
"M  c #416532",
"N  c #446939",
"B  c #4B723C",
"V  c #517D3E",
"C  c #444444",
"Z  c #4C4C4B",
"A  c #484846",
"S  c #504D4D",
"D  c #4D5947",
"F  c #545453",
"G  c #585755",
"H  c #5A5956",
"J  c #5C5C5A",
"K  c #595758",
"L  c #515051",
"P  c #615F5D",
"I  c #557A43",
"U  c #5F625C",
"Y  c #4F7440",
"T  c #62615E",
"R  c #63755B",
"E  c #646462",
"W  c #686765",
"Q  c #656B64",
"!  c #696C66",
"~  c #6C6C6B",
"^  c #706F6E",
"/  c #677165",
"(  c #6A7365",
")  c #6C7A66",
"_  c #6A7469",
"`  c #6E7B69",
"'  c #72726F",
"]  c #737C6C",
"[  c #757473",
"{  c #797774",
"}  c #7B7976",
"|  c #7D7C7A",
" . c #787876",
".. c #807F7D",
"X. c #F75C7E",
"o. c #598647",
"O. c #608F4B",
"+. c #71AD59",
"@. c #6F8169",
"#. c #71846A",
"$. c #748A6B",
"%. c #708066",
"&. c #79966D",
"*. c #7B8375",
"=. c #7F827A",
"-. c #7D9E71",
";. c #7DA26F",
":. c #82827E",
">. c #829A7A",
",. c #83AA74",
"<. c #86B374",
"1. c #88BD73",
"2. c #8BD46D",
"3. c #8CC574",
"4. c #92CE7A",
"5. c #95DA79",
"6. c #89CF6C",
"7. c #95F66E",
"8. c #96F86F",
"9. c #9AE47B",
"0. c #9DEB7C",
"q. c #97E874",
"w. c #96F572",
"e. c #9AF575",
"r. c #96F872",
"t. c #9BF975",
"y. c #9DF47C",
"u. c #9EFA7A",
"i. c #92EF6D",
"p. c #A1F57E",
"a. c #A2FC7D",
"s. c #848483",
"d. c #8A8A86",
"f. c #8D8C8A",
"g. c #858983",
"h. c #918E8D",
"j. c #8E9488",
"k. c #92918E",
"l. c #959492",
"z. c #989693",
"x. c #9A9A96",
"c. c #9A9799",
"v. c #9D9D9B",
"b. c #979893",
"n. c #A19E9C",
"m. c #97A58F",
"M. c #9AA493",
"N. c #9FA19B",
"B. c #9AA696",
"V. c #8EA185",
"C. c #A2A29D",
"Z. c #A19FA0",
"A. c #A5A4A2",
"S. c #A9A6A4",
"D. c #AAA9A5",
"F. c #ADACAA",
"G. c #A6A8A4",
"H. c #B0AEAD",
"J. c #AEB1AA",
"K. c #ABB3A2",
"L. c #B1B1AE",
"P. c #B1B9AC",
"I. c #B1AFB1",
"U. c #B4B4B3",
"Y. c #B8B7B5",
"T. c #B3BAB1",
"R. c #BABAB6",
"E. c #BCBBBA",
"W. c #BAB7B8",
"Q. c #DA83B4",
"!. c #E087B9",
"~. c #99DE81",
"^. c #9FED80",
"/. c #9FF182",
"(. c #A1EC81",
"). c #A3F582",
"_. c #A6FE83",
"`. c #A8FE83",
"'. c #A8FD84",
"]. c #A9FF84",
"[. c #A9FE86",
"{. c #A9FE84",
"}. c #BBC3B6",
"|. c #C2C1BE",
" X c #C0F9AA",
".X c #BFBFC1",
"XX c #EA8DC1",
"oX c #F08FC4",
"OX c #C1BFC0",
"+X c #C4C3C3",
"@X c #CDCCCC",
"#X c #C8C7C7",
"$X c #D0CECF",
"%X c #D3D3D2",
"&X c #DBD8D8",
"*X c #DEE0DB",
"=X c #E3E3E3",
"-X c #ECEBEB",
";X c #E9E9E7",
":X c #F0EFED",
">X c #EAFBE4",
",X c #EDFAE7",
"<X c #F0F2EF",
"1X c #F2FDED",
"2X c #F1EFF1",
"3X c #F4F4F4",
"4X c #F8F6F7",
"5X c #F6FCF4",
"6X c #F9FAF6",
"7X c #F9F7F8",
"8X c #FCFCFC",
"9X c #F7F9F8",
/* pixels */
"].]._._._._.]._._._._.]._._._._._._._._._._._.[._._.[._._.[._.[._._._._.[.[._._._._._.].]._._._._._._._._._._._._._._.]._._._._.",
"]._._._._._.]._.].[._._._._._._._._._._._._._._._._.[._._._._._.]._.[._._._.[._._._._.].]._.]._._._._._._._._._._._.]._._._._.].",
"].].]._._.]._._.@ . ].].]._._._._._._._._._._._.[._._._._._.[._._._.[._._._._._._._._._.)._._._._.]._._._.]._._._._._.)._.)._.].",
"]._.].]._.].].> F.%X% . _._.]._.]._._._._._._._._._._._.[._._._._._.[._._._._._.)._._._.]._.)._.]._.]._.[.[._.)._._.[._._._.).].",
"_._._.].]._.].< ~ E l.s.  ).].]._.]._._._._._._._.[.[._._.[._.[._._.[._._._._.[._._.]._._.].].).)._.].]._.].]._.)._._._.).).)._.",
"_._.].]._._.].y Q P ^ [ d.. /._._._._._._._._._._._._._._._._._.[._._.[._._._._._._._.)./._.].]._._.[._.]._.].].l . _._.u._.]._.",
"_._._.]._._.).y.* T d...A.U.. ]._.].]._.a._._._.[.[._.[._._.[.[._._._._.]._.]._._._._.E       x _.).'.[._._._.).  @   _.r._._._.",
"_._.]._._.t.r.].+ J n.C.=.Q ~ @ _._._._.]._._._._._._._.[._._._._.[._._.[._._._._._._.  T.U.P.    ).).[.).].[._.  U.. 8.)._._._.",
"_._._.]._.u.a._._.. F.^ W W @Xe y._._._._.].]._._._._.[._.]._._._._._._._._._._.].]._.  U.oXXXT.    _.a.).[._._.+ U.F.M _._._._.",
")._._.].].].]._._., < E E W.R.|.t ]._.]._.]._._._.[._._.]._.].]._.[.]._._.[._._._.].[.. v.XXQ.XXU.  _._._.'._.Q I.U.F.  _._._._.",
"_.]._._._._._._._._.6 [ U.R.W.L.r ]._._.].]._._._.].]._.]._._.]._.[._._.]._._._.].[._.. [ Q.Q.XXU.m.> . O   o . o 9 s.. _._.].[.",
")._._._._._._.a._._.y l.|.}.L.] = /._.].]._._.]._._.].[._._.].]._._._.]._._.].]._.[.2.X t =.Q.U.T.I.N.Z H k.Z s.f.U.  . [._.[._.",
"_._._._._._.]._._.]._.p H.] E H % y.].]._._._.[.[.[._._._.]._.u._._.[._._.[._.]._._.X B.  A.D.F.f.k.G.F.F C I.C I.F.U.o e._._._.",
"_._._._.]._._.).].e.].1 ! E ~ T b y _.]._._.[._._._.].[.]._.)._._.[._._._._.[.]._.X X d. .U.N.x.| 8Xg     H U.Z Z 9X  E _.)._._.",
"_._._.u.t.8.a.p.u.u.).5 W { |.L.s.3 _.].[._.]._.]._._._._._.u._._._._._._._._.[.o..  .b.v.I.v.x.U.8Xo     I.I.U.J 8Xr $ /._._._.",
"_._._.t.8._.a.].a.y.y.< x.+X+XU.g.3 _.)._.[._._._._.]._._.u.]._.[._._.[.[._._.).o K H H K W I.F.c.O       U.U.T.U.n O X )._._.).",
"_._._.7.8._.r._._._.u.4 f.+XS. .{ 6 u.].]._._._._._._._.[._._._._._._._._._._.q.  E v.k.{ P v.l.A.O       U.U.U.U.    O . ).)._.",
"_._.7.8.r.t.a.a.u.u.e.t F [ W W J 7 u.]._.].]._._._.]._._._._.]._.[._._._._._.< k G P l.h.f. .E N.    $ X Y.U.I.U.    . . ).)._.",
"].).r.8.t.a.a.a.a._.r.t f ~ ^ ..d.7 [.]._.]._.].[._.].[._.[._._._._._._.]._.).X V.k.J :.J N.U.c.I.F.Y.U.U.U.U.U.U.U.I.U.x.  )._.",
"_._.u.t.a.a.u.a.a.y.7.5 ] k.E.H.| l ]._.].]._._._._._._.[._._._.).)._._._.[.7.. C.l.x.U.} k.U.E.Y.+X.X&X%X@X8Xq   @XU.U.U.. > + ",
"_._.]._._.a.a.[.t.e.p.4 c.W.U.l.j 6._._._._._._.]._._._._._.)._._.u.t._._.8.7.  _ } z.        C +XU.2X8X8XE.;     8X=Xo . u [._.",
"_._._.`._.a.a._.e._.p.2 c.H G H = _.[._._._._.[._._.]._._._._._.).u.u.r._.e.u.g.C G J P U.%X%X    X C 8X8X8X8XO 8X8X$Xh I.+X@ [.",
").]._._._.[._.[._._.p.* J G G J % _._._._.].]._.]._._.]._._._.u.u.t.t.r.r.t.a.).d.d.l.U.U.D.I.+XW.8X8X8X8X8X8Xo 8X8X8X8X8X^ . _.",
"_._._._._._._.`._._.).% J J S.F.d [._.[._.)._._.]._._._.].].]._.p.u.t.8.t.[._.].t g.x.U.U.%XY.+XE * o 8X8X8X.Xo g 8X8X5Xq   q.).",
")._._.)._._.[._._._.~.1 c.U.I.F.9 c 0.).6 X X 7 @   . X + X o . + o . o + q O O o O } C..XW.b   $ 8Xq ! o s o X.* O . . & . z . ",
"[._.'._.[._._._._.).o.4 U.I.U.W  .) 4 . D T ' k.A.C.R Q *.f.g.H J d.j.h.g.Z w s ] ( f.| A.O o W.3X2X9X8X3X7X8X8X7Xl >   X _.)._.",
"[._._._._._._.[.].).q B.H.F.F.[  ...J | T G ' D.F.z.E E G.D.T H E z.b.v.} l.C.v.v.x.c.U.E O s.#X2X2X2X;X  O o - o > y.].p._._._.",
").'.[._.[._._._._.).2 Z.F.F.d.W d.~ E G.G H h.L.F.h.E ~ S.A.J G f.x.N.k.P ! x.z.d.n.x.v.A.A.A.R.;X-X2X2X3Xv.C.C.t (.).).[._.[.).",
"_.[.]._._._._._.].^.1 l.J.F. .v.l.K :.C.H P C.Y.F...T  .S.A.J H h.l.x.d.J ^ z.v.E C.N.v.Z.v.G.$X-X-X;X-X-XA.S.W = )._.].`.[._._.",
"[.]._._._.]._._._.^.% G.F.} h.F.E P C.C.F T G.R.F.:.T [ C.n.J G f.l.z.l.P ~ x.n.E :.x.C.n.v.E.=X-X-X-X-X=XS.} H 6 ).).`._._._._.",
")._._._._._._._._.D , F...l.H.S.H | G.F.H T C.R.L.f.E ! A.C.P H W c.b.b.W T v.M.! W d.A.A.n.W.;X-X-X-X-X&XC.S.n.z _._._._.].[.).",
"_._._._.]._._.].).= p ! W W.H. .J C.G.J.J H C.}.K.v.T E A.n.| G H c.c.v.z.J N.A.s.E E h.C.v.U.;X;X-X-X-X+XZ.F.q )._.]._._._.].p.",
"_._._.].].`.[.[.2.- C.W U.L.F.W ! C.F.U.s.K } R.U.F.W E n.A.A.G P n.k.j.n.T T C.S.:.P T k.C.F.;X;X-X-X2Xv.S.j.1 p._._._.]._._._.",
"_._._.].].].].'.N V.U.L.H.L.L.P ..H.U.R.E.P ^ E.W.U.h.~ F.F.A.W T n.x.d.n.:.J x.G.A.l.P W n.l.=X;X;Xe 2Xl.C.W * _._._.]._._._.).",
")._._._._._.'._.= C.L.U.U.J.H.J k.Y.W.|.|.|...|.W.U.F.W J.F.S.f.T k.n.f.n.A.^ :.C.A.A.Z.P T k.@X2X-Xe &Xv.C.* _.)._.]._.]._.a._.",
"_._._._.]._.'.(.@ m.D.L.U.K.C.P z.W.E.E.|.|.W S.R.U.U.W d.S.A.S.W { x.n.n.C.d.! d.v.v.A.n.' x.;X2X3Xr 3XA.C.y )._._.].].].`._._.",
"_.)._.].].).'.(., -XE.H.L.U.l.E c.R.R.|.T.|.' ^ U.L.H.| T G.C.C.s.E z.v.C.C.f.w G E n.v.n.h.#X2X3X$Xs 8XF.r ).p.y.u._.[.]._.]._.",
"[._.]._.'.'.).l = 6X8X=XF.R.h.[ C.Y.Y.R.R.U.D.f.R.H.D.G.T ' C.v.z.E W x.C.A.D.w F H H W h.h.n.<X<Xe @X8X%Xy w.e.p.t._.[.a.]._._.",
"_._._.].[.).).4 , 6X6X8X*XE.F.v.F.F.L.P.F.F.7X8XE.F.S.A.b.T x.x.z.z.W v.n.C.A.n F ~ G H L d.~ <X3Xe 8X8Xd u.e.p.u.u._.t.r._._.`.",
"_._._._.`.'.x m., 8X8X8X8X8X=X#XL.F.M.d.@X3X8X8X;X#XH.A.C.} d.k.l.v.h.W.OXE.H.A.q S...J E J P -X-Xr 8XU.< w.t.e.e.t.t.t.t.].].].",
"_._.[._.)./.2 8X6 8X8X8X8X8X8X7X5X8X8Xf 8X8X8X8X8X8X8X8X8X8X8X8X8X8X8X8X8X8X8X3Xw F C.v.E T %X2XF.C 3X< i.r.w.w.e.t.t.t.u._._._.",
"_._._.[._._.2 8Xy 8X8X8X8X8X8X8X8X8X8Xi 8X8X8X8X8X8X7X8X8X8X8X8X8X8X8X8X8X8Xd d d ~ A.x.z.-X3X3Xs.f u w.t.u.u.r.t.p.r.t.`.[._.].",
"_._._._.].[.y 8Xz 8X8X8X9X8X8X8X8X6X8X6 8X>.m 4 y ,X8X8X8X9X8X8X8X7X8XY t 6 *.F.E.g F.A.%X<X3X3XS.f y.a.'._.u.u.e.8.e.[.].]._._.",
"_._._._.].p.v 8Xl =X8X8X8X9X8X8X8X8X,X< x M q.e.< , < < < 4 4 < 2 2 6 l /./.f A -Xs 3X-X3X3X3X7X4XZ _.].[.a.u.r.t.a._.[._.]._.].",
"_._._._._.u.c 8X8Xg 8X8X8X8X8X8X8X8X, +.q.y.y./.).p.y.e.y.u.)._.).).).).).).g 3X3XE h 2X3X3X3X3X3Xj _._.a._.u.]._._._._.]._._._.",
"]._._._.]._.N 8X9XC 8X8X8X8X8X8X8Xo.< t._._.)._._./.y._.).).).).).).).)./.d x.3X3XOXd g 3X2X9X3X4Xe F _._._.].]._._._._._.]._._.",
"]._.]._.].[.< 8X8XZ 7X8X8X8X8X8X8X, _.p.p._._.)._.u._.).).u._.)._.)._.p.a.9 4X9X3X7X7Xd C 9X4X3X3X3Xj _._._.]._._._._._._._._._.",
"_._.[._._.[.+.c 6 8X8X8X8X8X8X8X4 a._._._._._._._._.).).)._.).).a.'.)._.7Xf 7X7X7X8Xr 3Xf I.3X3X3X3XA _.)._.]._.]._._._._._._._.",
"].]._.].]._._.3 u 8X8X8X8X9Xn q _._._.a._._._._._._.]._._._._.)._._._._.r =X8X8X9XS u _.).r 3X3X4X4XE _._._._._._._._._.].]._._.",
"]._.]._._.].]., 5X8X8X1Xk.r r 8X> _._._._._._._._._._._._._._._._._.)._.s 9X8X7XJ r _._.].9 +X2X3X9X^ ).].p._.].]._._._._._._._.",
"_.]._._._._._.z >X8X8X8XQ o.8X8Xg., _._._.]._._._.[._._._._._._._.).[._.E 7X9X8X9 _.)._.].).* 3X3X9Xh [.a._._.]._.]._._._.]._.].",
"]._.]._._._.]._.7 6X8X8Xv , < 8X9X& _._.a.]._.]._._.[.[._._.)._._._.).a e 8X8X .d _._._._._.* 3X4X9Xj _._._.)._._._._._._._._._.",
"]._._.[._.]._._.q.8X8X8Xr ).].x 8X5X7 _._._._.a._.[._._._._.)._._._._.F 7X9X8X9 ]._.)._._._.9 ! 9X9Xj L _._.)._._._._._._._.]._.",
"]._._._.]._._.[.].6 ;X8X9X2 _.B >X8X> )._._.].]._._._.[._._._._._._._.L 8X8Xq E _.]._._.p._.l * 7X7X4Xe _._._._._._.)._._._._._.",
"_.]._._._._._._._._.w 8X8Xy N , < <X: _._._.a.].[._._._._.[._._._._._.f.-X8X* _._._._.u._._.).* 4X9X4Xq 3X_._._._._.)._._._._._.",
"_._._._._.[._._._.).3 2 8X8X3 q.2.2 _.a._.)._._._._._._._._._.).)._.c 8X8XA C _.).u._._.`.a.).= A 9X9X4Xh 9X]._._.u._._._._._.].",
"_.]._._._.]._._._._._.< 9X8Xw B 7 ).).a.a._._._._.a._._._._._._.)._.y 1X8XR , > _.u.)._.)._._._.* +X4X7X-Xg f )._.)._._._._._._.",
"]._._._._.a._._._.u._.p., 5X8X X> u.u.u.u.u.u.u.t.t.a.].t.r._._.a.).l M 8X8X1X> _.)._.].)._._._.).E 9X7X*X7Xq _.).)._._.)._._._.",
"]._._._.].t.).r.u.r.9.5.5.V z < o.u.r.).r.t.r.w.t.r.u.r.a._._._._.)._.o.u D u Y ).)._._._._._._.].f 9 * * q d _.).)._.)._._._._.",
"_._.]._._._._._._.0.$.E / ) @.<.3.1.3.4.2.5.9.y.u.r.a.`.[._._._._._.).;.~ / / _ _ &.<.5.p.)./.).).).).).).y.p.p.u._._._.u.).a._.",
"]._._._.]._._._.].4.Q E E E T / E E E Q E Q Q -.3.^._._.].]._.]._.].].5.;.&.@._ / Q ! / $.@._ _ ) @.#.%.` ` ( &.;.1.0.u.t.u.].].",
"_._._._._._.].].].,.) / Q Q / ) Q E Q E Q / ` $.$.$.5.).).)./.)./.).].]._.).y.^.9.<.$.~ $._ U E E ) &.( ( _ Q ( Q / ,._._.]._._.",
"]._.]._._.]._.).<.$._ ) ` Q E E E E _ -.$.@.#.@.%.( #.#.@.$.#.#.$.$.$.#.#.] ` ) ! Q Q Q / Q E E E Q / / @.@.@.` &.4.).]._._._._.",
"]._.]._._.].1.@.Q Q / ! E T T E P E Q @.#.#.@._ ) ) ( ) ) ( ( / / Q ! Q Q ( _ ) #.&.-./ Q T E E E E E Q E ! E E E $.9._.].)._._."
};
