/* XPM */
static char *_42ea3f005774fe4a206720c8c166c02Mf1z5K0Xi813KTaz[] = {
/* columns rows colors chars-per-pixel */
"64 64 214 2 ",
"   c #040504",
".  c #070906",
"X  c #090B06",
"o  c #0B0B0B",
"O  c #080708",
"+  c #0D130B",
"@  c #0D190E",
"#  c #0B1107",
"$  c #11140E",
"%  c #121A0D",
"&  c #141413",
"*  c #151B12",
"=  c #1B1C1B",
"-  c #181917",
";  c #151410",
":  c #162212",
">  c #192414",
",  c #1C2917",
"<  c #1F2D19",
"1  c #172118",
"2  c #1D3118",
"3  c #212C1C",
"4  c #20251C",
"5  c #23321D",
"6  c #263B1F",
"7  c #242424",
"8  c #2A2929",
"9  c #2A3325",
"0  c #263921",
"q  c #2A3D23",
"w  c #2D332A",
"e  c #30372E",
"r  c #343434",
"t  c #3A3A38",
"y  c #312D2E",
"u  c #433F3E",
"i  c #2D4724",
"p  c #344D2A",
"a  c #324B26",
"s  c #3B582E",
"d  c #3A4834",
"f  c #3D5B31",
"g  c #405E34",
"h  c #426634",
"j  c #4B733C",
"k  c #497539",
"l  c #50773E",
"z  c #4D4B4B",
"x  c #474744",
"c  c #4F524A",
"v  c #495D41",
"b  c #52524E",
"n  c #555453",
"m  c #595555",
"M  c #5A5957",
"N  c #5D5C5A",
"B  c #585856",
"V  c #514F50",
"C  c #615E5D",
"Z  c #54634E",
"A  c #527C42",
"S  c #5B6557",
"D  c #4E6344",
"F  c #62615E",
"G  c #68655E",
"H  c #646462",
"J  c #696765",
"K  c #656B64",
"L  c #696A66",
"P  c #6D6C6A",
"I  c #656968",
"U  c #726F6E",
"Y  c #697366",
"T  c #6D746A",
"R  c #6D7B68",
"E  c #697665",
"W  c #71716E",
"Q  c #707C6E",
"!  c #757472",
"~  c #7D7C7A",
"^  c #7A7876",
"/  c #817F7D",
"(  c #F65C7E",
")  c #598645",
"_  c #5F914C",
"`  c #6B9D58",
"'  c #60944A",
"]  c #75B35D",
"[  c #6CA254",
"{  c #6E8168",
"}  c #72856B",
"|  c #748B6C",
" . c #76926C",
".. c #7C986F",
"X. c #7C8C75",
"o. c #7EA76F",
"O. c #7DBE62",
"+. c #7EB467",
"@. c #7FA371",
"#. c #7EC164",
"$. c #82817F",
"%. c #818D79",
"&. c #82B56E",
"*. c #83AB72",
"=. c #88B774",
"-. c #81A86F",
";. c #8AD56E",
":. c #8CCC74",
">. c #8DC576",
",. c #91CC7A",
"<. c #96D97A",
"1. c #8CD46E",
"2. c #96F66F",
"3. c #96F86F",
"4. c #9BEC7B",
"5. c #97E877",
"6. c #95F571",
"7. c #9AF674",
"8. c #96F871",
"9. c #9BF975",
"0. c #9DF57B",
"q. c #9EFB7A",
"w. c #A1F47E",
"e. c #A2FC7E",
"r. c #858483",
"t. c #888685",
"y. c #8A8986",
"u. c #8C8C8A",
"i. c #868B83",
"p. c #928D8C",
"a. c #8F908B",
"s. c #92918F",
"d. c #918F90",
"f. c #959492",
"g. c #999795",
"h. c #969A94",
"j. c #9A9996",
"k. c #9D9C9B",
"l. c #98979C",
"z. c #A19E9D",
"x. c #9EA29C",
"c. c #9CA894",
"v. c #9CA48C",
"b. c #A2A29E",
"n. c #9E9EA0",
"m. c #A5A4A2",
"M. c #A8A6A4",
"N. c #A7AAA1",
"B. c #A9A9A6",
"V. c #ADACAB",
"C. c #B1ADAC",
"Z. c #B3A2A9",
"A. c #AFB1AB",
"S. c #AEB9A9",
"D. c #B2B1AE",
"F. c #B1AFB0",
"G. c #B4B3B3",
"H. c #B8B6B4",
"J. c #BABAB6",
"K. c #BDBCBB",
"L. c #B8B7B6",
"P. c #D982B3",
"I. c #CB8EAF",
"U. c #C2BEBC",
"Y. c #9BD284",
"T. c #9FFE80",
"R. c #A3F582",
"E. c #A6FE83",
"W. c #A8FE83",
"Q. c #A9FF84",
"!. c #A9FE85",
"~. c #A9FE84",
"^. c #A6FB88",
"/. c #ACFE8A",
"(. c #ABF68E",
"). c #BAC2B3",
"_. c #BEF4A8",
"`. c #C2C1BE",
"'. c #C1D9B9",
"]. c #BEBFC1",
"[. c #C1BFC1",
"{. c #E9BDD4",
"}. c #C4C4C3",
"|. c #CCCCCD",
" X c #C8C7C6",
".X c #D0CFCD",
"XX c #D1D1CE",
"oX c #D4D3D4",
"OX c #DCDCDC",
"+X c #D6DAD5",
"@X c #E0DEDF",
"#X c #D5F6CC",
"$X c #E1E3DF",
"%X c #E3ECDF",
"&X c #E1F0D9",
"*X c #DEDEE0",
"=X c #E0DEE1",
"-X c #E4E3E4",
";X c #ECECEC",
":X c #E7E8E5",
">X c #F0EEEE",
",X c #EBFCE4",
"<X c #EDF0EC",
"1X c #EBF7E8",
"2X c #F1F1EE",
"3X c #F0FBEB",
"4X c #EEEEF0",
"5X c #F1EFF0",
"6X c #EFF1F0",
"7X c #F4F4F4",
"8X c #F8F6F7",
"9X c #F8FBF6",
"0X c #FCFCFC",
"qX c #F7F9F7",
/* pixels */
"E.E.E.E.Q.E.Q.E.Q.E.E.E.E.E.O.s ) E.E.E.e.E.Q.E.Q.Q.E.Q.E.E./.E.E.Q.E.E.E.E.E.Q.Q.E.E.E.E.Q.E.E.E./.E.E.E.E.!.E.E.E.E.E.E.E.!.E.",
"E.E.E.E.E.E.E.E.E.E.E.E.w.g c i.> E.E.E.E.E.Q.e.E.E.E.E.Q.E.E.E.E.E./.E.E.E.E.E.E.E.Q.E.E.E.!.E.E.E.E.E.W.E.E.E.E.Q.E.E.E.E.E.E.",
"E.Q.E.e.E.E.E.Q.Q././.E.h ! L ! 1 w.e.E.E.E.E.E.Q.E.Q.E.Q.E.E.E.Q./.E.E.E.E.E.E.E.E.E.E.Q.!.E.E.E.Q.Q.E.E.E.R.^.E.^.E.E.E.E.E.!.",
"E.Q.Q.Q.E.Q.Q.E.(./.E.E.a W H H W 0 Q.E.E.E.E.E.E.E.Q.E.E.E.Q.E.E.E.E.E.E.E.Q.E.E.E.E.E.E.E.E.R.E.E.E.e.Q.e.E.E.E.E.E.E.E.E.E.E.",
"E.Q.Q.E.Q.E.E.E././.E.^.5 l.h.u.J : E.E.E.E.Q.Q.E.Q.E./.E.E.E.E.E.E.E.E.E.E.E.E.E.Q.E.E.E.E.E.E.E.Q.E.Q.E.E.Q.E.E.E.E.e.E.E.E.E.",
"E.E.E.E.Q.E.Q.E.Q.Q.E.E.& V.b.W s.% E.E.E.E.E.E.E.E.E.Q.E.E./.E.E.E.E./.E.Q.Q.E.E././.E.E.E.E.E.E.E.E.E.E.E.R.E.!.k E.E.0.E.E.E.",
"Q.Q.Q.E.E.E.q.E.E.E./.E.= G.t.N H + E.E.E.E.E.E.Q.E.E.E.E.E.Q.E.E.Q.E.E.E.!.E.E.E.E.E.Q.E.Q.E.E.Q.^.^.Q.E.E.R.E.O.o . E.8.E.E.E.",
"E.E.E.E.E.9.9.E.E.Q.E.E.& u.M N H @ E.E.E.E.E.E.E.Q.Q.E.Q.E.E.Q.E.E.E.Q.E.E.Q.E.Q.E.!./.i q * & #.R.R.R.E.E.E.E.+ r.# q E.E.E.E.",
"E.E.E.E.E.q.E.E.Q.E.E./.o M N C m.* E.E.E.E.E.E.E.Q.E.Q.Q.E.E.E.Q.E.!.E.E.E.Q.Q.E.E.E.E.=.V.Z.G.>   Q.e.E.R.E.E.. G.G.. E.E.E.E.",
"E.E.E.E.E.E.E.E.E.E.E.E.* N P m.B.% E.E.E.E.E.E.E.E.E.E.E.Q.Q.E.E.!.!.E.E.E.E.E.!.E.E.!.& m.P.P.A.+ . w.R.^.E.x & G.I.. E.E.E.E.",
"Q.E.E.Q.E.E.e.E.E.E.E.E.r D.g.k.V.% E.Q.E.E.E.Q.Q.E.Q.E.Q.E.E.Q./.E.E.E.!.E.E.E.E.E.E.!.} O Z.P.G.c..           . G.P.. E.E.E.Q.",
"E.E.E.E.E.E.E.E.E.Q.Q.+.b }.V.r.J , E.Q.E.E.E.E.Q.E.E.Q.E.E.Q.E.E.E.E.E.!.E.Q.E.E.E.E.E.  O u.F.G.A.b.i.M x z F C ~   O ^.!.E.E.",
"E.E.e.Q.E.E.E.E.!.E.E.s Z ~ F N n > E.E.E.Q.Q.E.E.E.E.Q.Q.E.E.e.E.E.Q.E.E.E.E.Q.E.Q.E.*   H B.B.u.f.B.G.G.m.n g.m z f.  e.E.E.Q.",
"E.E.E.Q.E.E.E.E.E.9.E.9 c K P G C.: E.Q.E.E.E.E.E.Q.E.E.E.E.E.e.E.E.E.Q.E.Q.E.E.E.E.E.- z z k.h.r.m.0Xx   t V.I F.z ;X= 0.0.E.E.",
"E.E.E.e.9.8.e.e.q.e.E.: L ^  XD.H.: E.E.E.E.E.Q.Q.Q.E.E.E.Q.q.E.E.E.E.E.E.E.E.E.Q.E.o y.g.V.h.g.F.G.0X  = o m.V r.N 0Xo R.R.Q.E.",
"E.E.E.9.3.E.q.E.q.E.q.: N.}. XG.G.% E.q.Q.E.E.E.E.E.Q.E.E.w.E.E.E.E.E.E.E.E.E.E.E.: $ m x J m.m.F.f.O   O O G.H.G.G.    ^.E.Q.E.",
"Q.E.Q.3.8.Q.9.E.E.e.q.* ). XB.~ t.% 0.e.Q.E.E.E.E.E.Q./.E.E.E.E.E.E.E.E.E.E.E.E.' . k.u.! n z f.F.G.O 7 O o F.G.G.L.  8 ^.E.E.!.",
"Q.E.2.8.2.9.q.w.q.e.8.: h.! U J J % 0.Q.E.E.E.E.E.E.E.E.E.E.E.e.E.E.!.E.E.E.E.q.  z b g.u.r.! H V.F.n o O O V.F.G.L.  & & E.^.T.",
"E.!.8.2.9.e.E.q.e.E.8.% T P ! r.n.% E.E.Q.E.E.E.E.E.E.E.E.E.!.E.e.E.E.!.!.E.E.6.  f.z z N k.G.G.G.G.L.G.F.G.F.H.G.G.F.G.H.g E.T.",
"E.E.q.7.e.e.q.E.e.q.8.- ~ s.K.G.V.% R.E.E.E.E.E.E.E.E.!.E.!.E.E.E.e.E.E.E.!.2.s M b.k.V.C z S . & G.].oXoX}.|.0Xy   G.F.F.  A 1 ",
"E.Q.e.E.e.e.e.Q.9.9.e.D n.K.H.g.X.+ E.E.Q.E.E.E.E.Q.E.E.E.e.e.E.E.q.q.E.Q.8.8.  b y.f.G.S.x.k.l.].O   V qX0X0XO O   *XF.    . R.",
"E.E.Q.Q.e.e.E.Q.6.E.W.* p.M N N S o E.E.E.E.Q.E.Q.E.E.!.E.E.E.E.q.q.7.9.e.7.0.H o J F M n.XXf.].G.+X0X    0X0X0XO L.0Xy.7 L.o E.",
"E.E.E.E.e.E.Q.E.!.E.E.- M M M N S o E.Q.E.Q.E.E.Q.E.E.Q.E.E.E.w.q.7.6.6.6.8.0.E.  y.s.m.l.! K.}.G.0X0XqXqX0X8X8XO 0X0X0Xb.OXX E.",
"E.E.Q.Q.Q.Q.E.E.E.E.E.* M N V.C.h.o E.E.Q.E.Q.Q.Q.E.E.E.E.E.E.E.E.q.9.6.q.E.Q.E.O 8 f.G.G.r.G.].0XqXqXO O *XqXo ; +X0X0X& . Q.E.",
"E.E.E.E.E.E./.E.E.E.E.9 g.H.G.V.g.X e.E.R.E.E.E.E.E.E.w.E.E.E.E.T.R.E.R.E.^.!.R.Y.  ! x.K.K.G.G.8Xu.o r.O O O O ( O X O < E.Q.E.",
"E.E.E.E.Q.E.E.E.E.E.<.4 F.F.C.J ! S o X Z             &           o   O     = x 7 7 r.~ L.G.x.  O ; 0X0X0X0X0X0X0X0X0Xo 6 Q.E.Q.",
"Q.E.E.Q.E.Q.E.E.E.E.d B F.V.B.! ! $.M ~ C m P B.V.j.H C m.B.H M J g.g.k.^ d.k.k.j.j.g.G.A.G.V.}.oX& = ;X5X7X5XO O O o l E.E.Q.E.",
"E.E.E.E.E.E.E.E.E.4.# b.V.V.y.L y.P F M.m N s.G.G.p.F U V.m.N M u.j.k.f.C P j.l.p.z.k.z.m.m.m.U.;X5X5X>X5Xz.b.M.= _.R.R.E.E.E.E.",
"E.!.E.E.!.E.E.E.R.: x.f.V.V.! j.s.N X.M.m N B.C.C./ F ^ M.m.N m p.f.j.u.C U j.k.J j.j.k.m.n.M.|.;X;X;X5X;Xb.m.J o R.^.!.E.Q.E.Q.",
"E.E.E.!.E./.E.R.% j.y.V.V.~ p.V.J N x.B.M C B.D.C.r.F W m.z.N M p.f.f.f.N P j.n.H i.n.m.m.k.U.;X5X;X;X;X-XB.%.M + R.R.Q.E.e.E.Q.",
"E.E.E.E.E.E./.R.7 L m.C.r.f.V.B.M X.B.V.M C V.G.G.p.H P M.b.F m J g.g.j.J H n.c.L J t.M.b.z.U.;X;X;X>X;XOXm.V.k.o Q.E.E.Q.E.Q.E.",
"^.E.E.E.E.E.E.p u.! C.J J H.V.~ N b.B.A.N N z.H.A.k.F J m.b./ M C j.j.j.g.N z.M.t.J J p.b.z.H.;X;X5X;X>X Xm.V.$ 4.E.Q.E.E.E.E.E.",
"^.E.Q.Q.Q.E.E.y y.N.m.J G.G.V.J J M.V.H.$.N ^ H.H.V.J H z.B.N.M M z.s.p.z.S J k.m.r.N H f.b.V.;X;X;X;X5Xm.B.v.X e.E.E.E.E.Q.E.E.",
"E.!.E.E.E.E.E.t y.V.D.D.C.C.G.C $.D.G.U.U.F W K.K.G.p.P V.V.B.J C z.z.y.b.y.C j.B.m.j.H J z.j.-X;X>XO 7Xf.m.J . E.Q.E.Q.Q.E.Q.E.",
"R.Q.E.E.E./.E.t ^ m.C.D.D.G.V.N p.H.H.U.U.}.$.}.J.G.D.J A.C.Z.u.H j.z.p.z.m.P r.B.m.m.m.F F s.XX7X5XO =Xx.m.& j E.E.Q.E.Q.E.E.Q.",
"E.E.E.E.E.E.R.w / z.k.b.M.G.m.S g.J.K.U.[.}.L m.H.G.G.J y.V.B.B.J ^ z.z.z.m.u.P u.j.m.m.b.! j.;X8X7XO -Xm.b., E.Q.E.E.Q.E.E.Q.E.",
"E.E.E.E.E.R.R.p y  XV.F.m.D.f.J j.K.J.K.K.].W W J.G.D.~ J N.m.z.r.J j.z.m.b.p.u M J k.n.z.p. X7X7X|.o 7XC.$ w.E.E.e.E.Q.E.E.E.Q.",
"^.E.Q.!.E.^.:.O 7 r ;X-XA.H.s.! k.J.J.K.x b B.u.G.D.V.B.F ! z.k.f.J J j.b.m.B.! m u V J p.p.n.7X5Xo L.7XOXo 9.q.e.q.Q.Q.E.E.E.E.",
"Q.E.Q.Q.Q.E.  oX+Xo ;X:X*XK.V.n.B.V.G.A.C.= XX-X`.B.B.m.g.F j.j.j.k.J z.z.n.B.^ B.P N M b y.P 5X0X- 7X0Xo q.7.E.E.9.E.7.2.Q.Q.Q.",
"E.E.E.E.E.E.O 5X4XO -X5X;X:X*X XG.V.B.D.|.}.o ;X-X XC.b.b.~ y.f.f.k.d.K.[.K.G.m.~ H / N J N N 4X5Xu |.o 7.8.q.9.9.9.9.7.9.E.Q.Q.",
"E.E.E.E.E.E.O 7X:X+Xo 8X7X4X5X8X;X;X-X2X%X;Xo ;X;X;X:X:X:X<X-X$X-X:X:X;X-X:X:X-Xo V.m.z.J N +X7X5Xo = 6.6.9.9.9.9.9.9.q.9.E.Q.Q.",
"E.E.E.E.E.E.. 8X7X7XO L.7X7X5X8X8X7X7X>X7X:Xo +X:X:X;X<X<X;X;X:X;X;X:X:X:X;X= & o F.m.k.h.;X7XqX- d 0.8.7.9.q.9.q.9.3.3.Q.Q.Q.E.",
"E.E.E.E.E.E.. 8X0X7XXXO 7XqXqX7X7X7X;X;X7X7XX * < #X&X2X7X<X;X<X<X2X=XM $ $ Q o 7X;XV.m.oX7XqX,Xo R.0.w.E.e.q.e.9.2.9.E.E.E.E.E.",
"E.E.E.R.E.0.. 8X8X7X0Xo ,X1X7X7X7X7X7X7X2X<X% a % + @ + + @ + % * + @ , w.w.&.X ;X7X8X>X7X8X0X# u.w.E.Q.Q.e.9.9.9.e.E.E.E.E.Q.E.",
"E.E.E.E.R.0.. 0X0XqX0XG.+ 0X0X0X0X8X7X7XqX8X# ) R.R.7.4.w.w.R.^.R.R.R.4.R.R.R.X $ l.7X7X8X8XqXo t 5.E.E.E.e.w.E.E.E.E.Q.Q.E.E.E.",
"E.E.R.E.E.E.. 0X8X0X0X0Xo = 0X0X0X;X9X0X,X3Xo E.W.w.E.^.e.w.R.R.R.R.T.R.R.R.e.h y o oXoX8X8XqX0X;X: . ` Q.E.E.E.E.Q.E.E.E.!.E.!.",
"E.E.0.E.E.q o 0XqX5X0X0X;Xo $ 0X0X*X0X0X0X9Xo R.W.R.W.R.e.E.T.R.E.R.e.w.R.E.w.3 0Xt.& & ;X0X0X0X;X0X#Xo q E.E.E.E.E.E.E./.E.E.E.",
"E.E.E.E.q o 0X0X0X7X0X0X* +.> b 0X0X0X0X0Xv $ e.R.E.e.e.E.E.E.0.R.E.R.E.R.R.R.% 0X8XoXp % +.0X8X8X0X9X0X+ ;.E.Q.e.E.E.E.E.E.E.E.",
"E.w.E.: o 0X0X0X0X0XoX= g /.f w 0X0X0X0X0X+ Q.E.E.E.E.E.e.E.E.E.E.E.R.E.E.R.E.- OX7X.Xp w., = G.9X0X0X0X-X3 E.E.E.E.E.E.Q.E.Q.E.",
"E.E.. . 0X0X;X0X0X8 7 E.E./.R.y 0X0X0X0X> i E.e.E.E.E.E.E.E.E.E.E.E.E.R.E.E.E.* XX-X0X3 w.1.w.1 = f.0X0X,Xi E.E.e.E.Q.E.E.E.E.Q.",
"E.E.# 0X0X0X'.f % O.E.E.E.E.E.V 0X0X0X# ) E.E.R.E.E.E.E.E.E.E.E.E.E.E.T.E.E.E.< S 0X0X* E.4.4.E.3 o 0X0Xn.h Q.E.E.Q.E.E.E./.!.E.",
"E.E.  0X0X0X  j Q.E.E.E.E.E.E.V 0X0X0X) 5.!.!.E.R.E.w.E.E.E.E.Q.E.E.E.E.R.E.E.[ + 0X0X, 5.E.0.e.O ;X0X0Xi E.E.E.E.Q.E.E.E.E.E.E.",
"E.E.. oX0X0X. 5.E.Q.E.e.E.E.E.h K.0X0X0Xo E.E.E.E.e.E.E.E.E.e.E.E.E.E.E.E.E.E.4.o 0X0XM _ R.R.w.$ 0X:X0Xa ^.E.E.E.E.E.E.E.E.E.E.",
"E.Q.R.O 0X0Xo E.E.e.E.E.E.E.E.e.: ..0XqX# l E.E.E.E.E.E.E.E.E.E.Q.E.E.Q.E.Q.E.E.X 0X0X*X9 E.4.5 n {.0XqXa E.E.Q.E.E.E.E.E.E.E.Q.",
"E.E.E.  0X0Xt O.E.e.E.w.E.E.E.E.E.2 OX7X0X, > ;.Q.E.E.E.E.E.E.E.E.E.Q.E.Q.E.E.E.O 0X0X0X- E.E.< G P.0X-Xf E.Q.Q.E.E.E.E.E.Q.Q.E.",
"E.E.E.] o 0X8X& X   E.e.E.E.w.E.E.E.w 0X0X0X{ o . X E.E.E.E.E.E.E.E.E.E.E.Q.Q.E.o Y.0X0Xo O o T.o 7 }.w 1.Q.E.E.E.E.E.E.E.E.E.E.",
"E.E.E.E.. 3X0X0X0X& e.E.e.E.E.E.T.T.5.d qX0X0X0X0X> E.E.Q.E.E.E.E.E.E.E./.Q.E.Q.A * 0X0X0XqX. E.E.] 6 j E.E.E.E.Q.E.E.E.Q.!.E.E.",
"E.E.E.E.) o 0X0X0X* w.e.E.e.E.q.T.q.0.p a 9X0X7X8X% e.e.9.9.E.E.e.E.E.E./.E.Q.E.E.O > V.0Xa . E.E.Q.Q.Q.E.Q.E.e.E.E.Q.Q.E.E.E.Q.",
"E.E.E.E.E.k - o 0 6 q.Q.e.q.0.o.:.q.6.0.h 2 6 e # 2 9.3.E.E.E.E.E.E.E.Q.E.E.E.E.T.>.` * & o E.E.E.E.E.E.E.E.E.E.E.E.E.E.E.E.Q.E.",
"E.E.E.E.E.q.<.R Y L -.R.E.w.5.R Y  .| E E { ..&.&.&.<.E.E.Q.E.E.Q.Q.E.E.Q.E.E.E.=.I I H K &.E.E.E.e.4.<.E.w.E.E.E.E.E.Q.E.E.E.E.",
"E.e.E.E.E.^.} H H F H } o.=.,.=.I H H H H I H E  ...<.E.E.R.R.R.T.R.R.T.^.R.R.0.@.H I F H I >.=.-.-.| | T.R.R.E.E.q.E.T.q.E.E.E.",
"E.E.E.E.E.E.>.K F H J H K K K K I H H H I K K K K R | R E K K L J E } } } Q R Y K K F H F H R } } Y Y K Y E { | =.E.E.E.E.E.E.E.",
"Q.E.E.E.E.E.^.-.K K K H H H H H H H H H H H H H F H S H H H H H C H J K K K K J H H K H H H H H H H J H H H J Y *.E.E.E.E.E.E.E.",
"E.Q.E.E.E.E.E.T.o.| K J I H F H H H H H H H H H H J L Y H H H I I H H J H K Y R Y Y K I I H H F H F H H K J K  .*.,.E.E.E.Q.E.Q."
};
