/* XPM */
static char *_c7ea0f5d517446ebb1cdef748b90ab848hd5SqcjkaZBavM[] = {
/* columns rows colors chars-per-pixel */
"64 64 201 2 ",
"   c #020202",
".  c #060A06",
"X  c #080A06",
"o  c #060608",
"O  c #0A0B0A",
"+  c #080708",
"@  c #100E0F",
"#  c #0D120A",
"$  c #0B1107",
"%  c #11140F",
"&  c #111A0E",
"*  c #0F1110",
"=  c #121312",
"-  c #141C11",
";  c #1C1C1B",
":  c #171719",
">  c #192513",
",  c #1E2A19",
"<  c #1C2319",
"1  c #212D1B",
"2  c #23341B",
"3  c #273D1F",
"4  c #211F20",
"5  c #212122",
"6  c #2B2C2B",
"7  c #262C24",
"8  c #353434",
"9  c #3A3A3A",
"0  c #363937",
"q  c #283F22",
"w  c #2C4324",
"e  c #2E4925",
"r  c #334C28",
"t  c #3A592C",
"y  c #384A33",
"u  c #3F5A31",
"i  c #42473E",
"p  c #436636",
"a  c #4C733D",
"s  c #444444",
"d  c #4C4B4B",
"f  c #474846",
"g  c #52574E",
"h  c #545352",
"j  c #5A5956",
"k  c #5D5C5A",
"l  c #595556",
"z  c #4E5548",
"x  c #605F5E",
"c  c #547E43",
"v  c #5E7951",
"b  c #586C50",
"n  c #62615E",
"m  c #606C54",
"M  c #615F60",
"N  c #646462",
"B  c #696765",
"V  c #666B64",
"C  c #696A66",
"Z  c #6C6B6A",
"A  c #676968",
"S  c #716E6D",
"D  c #677265",
"F  c #697366",
"G  c #6B7867",
"H  c #6E7C69",
"J  c #72726E",
"K  c #707F68",
"L  c #757573",
"P  c #797675",
"I  c #797976",
"U  c #7D7C7A",
"Y  c #797778",
"T  c #807E7D",
"R  c #5B8A48",
"E  c #699B55",
"W  c #72AD5A",
"Q  c #70AD5A",
"!  c #6E8268",
"~  c #72866A",
"^  c #748B6A",
"/  c #78936D",
"(  c #7F8279",
")  c #7CA36C",
"_  c #7BBB61",
"`  c #7DA171",
"'  c #81807E",
"]  c #80A26F",
"[  c #84B371",
"{  c #8ABD75",
"}  c #84AD73",
"|  c #85C96C",
" . c #8AD86A",
".. c #8CC376",
"X. c #8EC678",
"o. c #92CC79",
"O. c #8EDB72",
"+. c #96DC7C",
"@. c #96D97C",
"#. c #95F66F",
"$. c #96F96E",
"%. c #9AE37D",
"&. c #9CEB7B",
"*. c #95E675",
"=. c #96F572",
"-. c #9AF675",
";. c #96F972",
":. c #9BF975",
">. c #9EF47C",
",. c #9EFB7A",
"<. c #8CE766",
"1. c #A2F47E",
"2. c #A2FC7E",
"3. c #817F80",
"4. c #BA7A9F",
"5. c #FC5E81",
"6. c #D77FB1",
"7. c #C07CA3",
"8. c #858482",
"9. c #898685",
"0. c #8A8986",
"q. c #8D8C8B",
"w. c #898788",
"e. c #8F908B",
"r. c #8D9D82",
"t. c #92918E",
"y. c #95988F",
"u. c #969493",
"i. c #999695",
"p. c #9A9996",
"a. c #9D9C9A",
"s. c #999798",
"d. c #928E8D",
"f. c #A09F9D",
"g. c #B2859C",
"h. c #9AA58F",
"j. c #9EA19D",
"k. c #A2A19E",
"l. c #A0A797",
"z. c #A19FA0",
"x. c #A5A4A3",
"c. c #A8A6A4",
"v. c #A7AAA2",
"b. c #A9A9A6",
"n. c #A9A7A8",
"m. c #ADACAB",
"M. c #A7A7A9",
"N. c #B0AEAC",
"B. c #AFB2AC",
"V. c #B2B1AE",
"C. c #B2BAAF",
"Z. c #AFAFB1",
"A. c #B1AFB0",
"S. c #B4B4B3",
"D. c #B8B6B5",
"F. c #BABAB6",
"G. c #BCBBBA",
"H. c #B7B7B7",
"J. c #D483B1",
"K. c #CE8AB1",
"L. c #C1BDBC",
"P. c #A1EE81",
"I. c #A3F682",
"U. c #A6FE83",
"Y. c #A9FE84",
"T. c #AAFF89",
"R. c #ABE293",
"E. c #B0FE91",
"W. c #B1E39A",
"Q. c #BBC6B7",
"!. c #BEF2A8",
"~. c #C2C1BF",
"^. c #BEBFC1",
"/. c #C3BFC0",
"(. c #C4C4C3",
"). c #CCCBCA",
"_. c #CAC7C6",
"`. c #D0CFCD",
"'. c #CFCDD0",
"]. c #D5D4D4",
"[. c #DBDBDB",
"{. c #DFEBDD",
"}. c #E2E5DE",
"|. c #E5F4DF",
" X c #E1DFE0",
".X c #E4E4E3",
"XX c #EDECEC",
"oX c #E8E9E7",
"OX c #F0EDEE",
"+X c #EEF6EC",
"@X c #F1F1EE",
"#X c #F1FBED",
"$X c #EFEEF0",
"%X c #F1EFF1",
"&X c #EFF1F0",
"*X c #F4F3F3",
"=X c #F8F5F6",
"-X c #F9FAF6",
";X c #F6F6F8",
":X c #FDFDFD",
">X c #F7F8F6",
/* pixels */
"U.U.U.Y.U.U.U.Y.U.U.T.U.U.U.U.U.Y.Y.Y.Y.U.U.Y.Y.U.U.Y.U.Y.U.U.U.Y.U.Y.U.U.U.U.U.Y.U.Y.U.Y.U.U.U.U.U.U.U.U.U.U.U.U.U.U.U.U.U.U.U.",
"U.Y.U.U.U.U.U.U.U.Y.U.U.Y.U.U.Y.U.U.U.U.U.U.Y.U.Y.U.Y.U.U.U.Y.U.U.T.U.U.T.U.U.Y.U.Y.U.U.U.U.U.U.U.U.U.U.U.U.U.U.U.U.I.U.U.U.U.U.",
"Y.U.Y.U.U.T.U.U.U.Y.Y.U.U.U.Y.Y.U.Y.Y.U.Y.U.Y.U.U.Y.U.U.U.Y.T.U.U.U.Y.Y.U.U.U.Y.U.Y.U.U.U.U.U.I.U.U.U.U.U.U.U.U.U.U.I.U.U.U.U.U.",
"Y.U.U.Y.Y.U.Y.Y.Y.U.U.Y.U.U.U.Y.U.Y.U.U.U.U.U.Y.U.U.U.Y.U.U.U.U.U.U.U.U.Y.Y.U.U.U.U.U.U.I.U.U.I.I.I.I.U.I.I.I.U.U.U.T.T.U.U.U.U.",
"Y.U.U.U.U.Y.U.Y.U.Y.Y.U.I.V l f +   e q U.U.U.Y.Y.U.Y.U.U.Y.U.Y.U.U.U.Y.U.U.U.U.U.U.U.Y.U.U.U.I.1.1.I.U.U.T.U.T.U.U.U.U.T.U.U.U.",
"U.U.U.Y.U.U.Y.Y.U.U.U.m s i.i.n f B j % U.U.Y.Y.Y.U.U.U.U.U.U.Y.Y.Y.U.U.T.U.Y.U.U.U.Y.1.I.U.I.U.I.U.I.T.U.I.U.U.w   U.U.,.U.U.U.",
"Y.T.U.U.U.U.,.2.U.Y.z 9 c.c.i.s.n k j & I.U.Y.Y.U.U.U.Y.T.U.U.U.U.U.U.U.U.Y.U.U.U.U.U.        r U.I.U.U.U.U.Y.Y.  &   U.;.U.U.I.",
"U.U.U.U.U.-.;.Y.I.P.6 f.( C u.i.k C d 2 U.U.Y.U.T.U.U.U.U.U.Y.U.U.Y.U.T.U.U.U.Y.U.U.U.  C.S.C.    T.U.Y.U.U.U.U.$ S.  <.U.U.U.U.",
"U.U.U.U.U.,.2.U.U.w k k C C B 3.    # | U.U.U.Y.Y.U.U.U.Y.U.U.U.T.U.U.U.T.U.U.U.Y.U.U.  S.K.J.S.    U.U.U.Y.2.U.# H.m.  U.U.U.U.",
"U.Y.I.U.U.U.U.U.O.< N j j B U   Y Y.U.U.2.U.Y.U.U.U.Y.U.U.Y.Y.U.U.U.U.Y.U.Y.U.U.U.U.U.. a.J.6.4.m.  >.2.U.U.U.0 S.S.m.  U.U.U.U.",
"U.U.U.U.U.U.U.U.3 S.S.C B A = = T.Y.U.U.U.U.U.U.U.Y.Y.U.Y.U.U.Y.Y.U.U.Y.U.U.Y.U.U.U.U.X L 7.6.J.S.h.+ > .   O . . 5 3.  U.Y.U.U.",
"U.U.U.U.U.U.1.I.2 m u.a.f.s.  | Y.U.Y.Y.U.U.U.U.U.U.Y.U.U.U.Y.Y.U.U.U.U.Y.U.U.U.U.U.&.X 6 L g.S.S.V.l.d j t.d 8.q.S.o . U.U.U.U.",
"U.U.U.U.U.U.U.I.W , i.i.x.U o _ 2.Y.Y.Y.U.T.U.Y.U.U.Y.U.U.U.U.2.U.U.Y.U.U.Y.U.U.U.U.$ z.o x.m.b.q.e.k.V.h s Z.f m.m.S.O ,.U.U.U.",
"U.U.U.U.U.U.U.U.U.  i.Z Z B 6   Y.2.U.U.U.Y.U.U.Y.U.U.U.U.Y.U.2.U.U.U.U.U.U.U.U.U.. + w.I S.p.a.U :X0     j S.d d :X. B >.2.U.U.",
"U.U.U.,.;.;.U.>.,.  j k Z I (.  2.2.U.U.U.U.U.Y.Y.Y.Y.U.Y.Y.,.U.U.U.U.U.Y.U.U.U.R . I u.a.Z.a.p.H.:X      Z.m.S.k :X8 O 1.Y.U.U.",
"U.U.I.:.$.U.,.U.>. .  8.N.(.(.  Q.U.2.2.U.U.Y.U.U.U.U.U.2.2.U.U.T.U.U.Y.U.T.U.U.O j j h j A b.m.s.+       m.m.H.H.f o o U.U.U.U.",
"U.U.U.#.#.U.:.I.,.U.  v._._.c.h   U.2.U.U.Y.U.U.Y.U.U.T.Y.U.U.Y.Y.Y.Y.U.U.U.U.*.  n a.q.L N i.i.x.  o     Z.m.S.S.    @ Q I.I.U.",
"U.U.#.;.=.:.2.2.2.,. .  x.A C B 8   2.2.U.U.U.Y.Y.U.Y.U.U.U.U.U.U.U.U.U.U.U.U.> w j M q.q.0.Y N z.    = o S.S.m.S.    o   I.I.U.",
"U.U.=.$.;.2.2.2.2.U.#.. j j N U a.  U.U.U.U.U.U.U.U.Y.U.U.U.U.U.2.U.U.U.U.U.U.. r.u.j 8.M a.S.a.Z.m.H.H.H.H.S.S.S.S.S.S.a.  I.U.",
"U.U.:.,.2.2.2.U.2.,.#.7 6 ' H.B.m.  E U.U.U.U.U.U.U.U.U.U.U.U.U.U.2.U.U.U.U.#.X j.i.a.S.P d.S.G.H.(.G.[.]._.:X    ).S.S.H.. . # ",
"Y.2.Y.U.U.2.2.U.:.:.1.X.@ G.S.u.q.b.  U.U.U.Y.U.U.U.U.Y.U.2.2.U.2.2.,.U.U.$.#.$ Z Y i.        d (.H.$X:X:XF.      :X.XO   o T.T.",
"Y.U.U.U.2.2.U.U.:.I.U.>.= j j k k 8.  U.U.U.U.U.U.Y.U.U.U.U.U.U.2.2.,.:.2.:.,.; s l n M S.'.].    O 0 oX:X:X:Xo :X:XB.6 S.(.e U.",
"Y.U.U.U.U.U.U.U.I.U.U.U.@ j j k B J X I.U.U.U.U.U.U.Y.2.U.U.U.,.,.,.$.$.=.:.U.O.o q.t.S.S.^.G.(.H.:X:X:X:X:X:X+ :X:X:X:X XS   I.",
"Y.U.U.U.U.U.U.U.U.Y.U.U.@ k m.A.a.i.+ I.I.Y.Y.Y.U.I.U.U.U.U.U.U.2.,.,.-.,.U.U.I.# 8.p.S.S.].H.(.N : O :X:X-XH.+ 0 :X:X&Xo . . U.",
"I.Y.Y.U.U.U.U.U.U.Y.U.P.@ F.S.m.i.s.  I.& . X                                   T ; U z.G.F.s o @ :X4 C + O + 5.; + + O - o e . ",
"Y.I.U.Y.U.U.Y.U.U.U.>.b @ S.D.B 9.9.  o i n J y.x.k.Z Z 8.a.t.k x 0.t.t.u.k y.U J 9.q.U x.o . G.%X*X:X:X[.:X:X:X:Xa.< o O U.I.1.",
"Y.U.U.U.U.Y.U.Y.U.2.I.O c.A.m.L P ' j Y n j J b.m.a.B n n.m.n j B i.i.a.J k a.f.a.a.i.V.N o 8.(.*X*X*XoX  + + + o 4 A P.>.U.U.I.",
"I.I.U.U.Y.U.U.U.U.2.) s m.m.q.Z 0.Z N b.l j u.V.V.q.N S c.x.k k q.i.f.t.n C s.a.q.a.a.f.M.x.c.F.oX$X*X%X*Xf.f.x.O !.I.Y.U.U.U.I.",
"Y.Y.Y.Y.Y.U.Y.U.U.$   9.N.n.L a.u.j ' b.h n c.N.V.T n I c.x.j j t.i.i.w.k J i.f.n k.f.f.c.z.x.'.OXXXOX*XXXx.c.C + I.U.U.U.U.U.I.",
"U.U.I.Y.U.U.U.P.& o Y b.N.U t.m.B x l.v.j k b.V.N.8.n L k.f.k k 0.t.i.i.k S i.f.n 9.k.x.z.a.Q.oXXX$XOX*XoXx.J k O I.I.U.U.U.U.U.",
"U.U.U.U.U.U.U.P.  S c.N.8.u.m.b.j T c.b.j n m.S.V.t.x Z c.k.x j C i.i.i.B M k.k.Z B 8.c.x.f.L.XXXXXXOX@X Xf.j Z . U.I.I.U.U.U.U.",
"U.I.Y.U.Y.U.U.- f J m.C B D.m.Y x x.b.B.k k k.D.B.j.n N c.k.T j j p.a.a.s.k l.b.8.B B q.f.T S.XXXX*XXX*X_.c.n.+ _ U.U.T.U.U.U.U.",
"U.U.U.U.U.Y.U.o 9.c.x.C V.S.m.B C k.N.D.' k I D.D.N.B n x.c.c.j x f.t.d.f.x n f.n.8.k x Z k u.XX$XXX*X*Xx.b.h.X I.Y.I.U.Y.U.U.U.",
"I.U.U.U.U.U.U.o 9.m.V.V.V.V.V.n ' N.D.G.~.x J L.F.V.t.S N.b.b.B x f.f.0.k.0.k p.b.x.i.n k C 8..XXXXX*X*Xi.k.u.. I.U.U.U.U.U.U.Y.",
"I.T.U.U.Y.U.U.= J b.V.S.S.V.m.k t.D.F.~.L.(.T (.F.S.V.C m.N.b.q.N i.k.0.k.c.S 8.b.x.x.x.k j u.].*X=X;X.Xf.x.+ p I.Y.I.I.U.U.U.U.",
"I.U.Y.U.U.U.Y.- ' m.m.V.S.S.k.x i.F.L.L.L.(.C x.D.S.V.B 0.m.m.c.B Y f.f.k.k.0.S k = f.x.k.L i.oX;X-X;X.Xx.k.X I.U.U.U.U.Y.Y.U.U.",
"U.Y.U.U.Y.U.U.& a.oX^.S.B.V.i.B a.F.F.~.F.G.J S D.V.V.U n b.x.k.9.N p.f.k.k.y.x   n U k.z.d.).;X=X=X*X*Xm.H.# 2.2.1.I.U.Y.U.Y.Y.",
"U.U.Y.Y.U.U.Y.o @XOX$X XV.H.t.L f.F.F.F.F.S.m.q.D.S.m.b.n L k.j.i.N B f.k.b.c.  5 j j C u.q.z.*X*X*X6 XX.X2 r >.1.,.2.U.2.U.U.U.",
"U.Y.U.Y.U.Y.Y.O .XXX$XXX XF.m.z.N.m.S.V.m.N..XoX(.b.b.c.p.n s.i.i.i.N f.f.x.f.6 b.S j j h 9.Z *X-X%X+ -X#X  =.1.U.,.I.,.:.Y.Y.Y.",
"U.U.T.U.Y.U.T.R.  *X*X&X@XoX.X(.S.m.m.V.).XXXXoXoX_.V.x.j.U q.u.u.a.t.L.(.F.@ b.b.m.T x N k k *X*X  *X:X1 . -.-.-.,.,.;.,.U.U.Y.",
"T.U.U.U.Y.U.U.I.  a.*X*X*X*X%X*XXXXXoX@X|.XXG.XXXXXXoXoXXXXX.X}.oXXXoX$XoX  XXXXF.n.x.B j N ].;X+ %X-XXX  =.-.=.:.,.,.,.,.U.U.U.",
"U.I.Y.2.Y.U.U.Y.E 9 *X;X;X%X&X;X*X=X*X*X%XXXx XXOXOX@X*X$XXXXXXXoXXXXXXX&X: XXXX[.H.k.B L *X_.  o -X-X  -.-.,.,.,.,.:.;.U.U.U.U.",
"U.I.U.U.U.U.U.=.>.O >X>X*X;X-X;X*X-X*X*X>X*X  '.*X*X|.@X*X+XXX*X@X*X Xg - 1 $X*X*X@Xm.x.:     s.-X:X  r U.U.:.1.;.-.:.Y.U.Y.U.U.",
"U.U.U.U.U.,.#.>.=.= V >X#X#X-X;X-X*X;X*X;X@X      $ $ O + O $ . O O O > I.% %X*X*X*X(.    :X-X:X:X-X  U.U.2.:.,.;.2.U.U.Y.U.U.Y.",
"U.U.U.Y.U.,.U.U.1.8 : :X:X:X:X-X:X;X:X;X>Xj   I.I.1.,.2.,.2.I.U.U.U.U.U.I.O -X-X-X:X= 6   ;X-XXX;XL.= U.U.U.2.U.U.U.2.U.Y.U.Y.U.",
"U.U.T.U.U.U.U.U.E.f s a.:X:X:X:X:X:X-X-X{.  U.U.U.Y.U.U.T.U.U.U.U.U.U.U.U., .X:X:X-X  U.W   :X:X:X:X  &.Y.2.U.Y.U.U.Y.U.U.U.U.Y.",
"U.U.U.Y.U.U.U.U.E.9 :X4 :X:X:X:X:X:X:X.X  I.U.T.I.U.U.U.U.U.U.U.U.2.I.U.U.I.; :X;X:X  %.Y.. O :X:X:X  *.U.U.U.U.Y.U.U.Y.U.Y.Y.U.",
"U.U.U.Y.U.U.U.U.R.h :Xa.r :X:X:X:X:Xj.  U.U.U.I.U.I.2.U.U.U.U.U.U.U.Y.U.U.U.O XX:X:X  a Y.I.  .X:X:X-X  Y.U.Y.U.Y.U.U.U.U.U.U.U.",
"U.U.U.Y.U.U.U.U.6 `.-X:X- oX:X:X%Xs   U.U.U.U.U.U.U.U.U.U.U.U.U.U.U.U.U.U.U.W 4 :X:Xq.  U.I.1.  -X:X:X  1.U.U.U.I.U.Y.U.U.U.Y.Y.",
"U.U.U.U.U.U.U.U.5 F.:X:X  y :X:X:X  U.U.U.U.U.U.U.U.U.U.U.U.U.U.U.U.T.U.T.U.U.o :X:XXX  U.U.U.1   :X:XXXu U.U.U.U.U.Y.Y.U.Y.U.U.",
"U.U.T.U.U.U.U.2 ).XX:Xt     :X:X:XF.  U.U.U.U.U.U.I.U.U.U.U.U.U.U.U.U.U.U.U.U.# .X:X:X  I.U.U.U.  *X:X:X  U.U.U.U.2.U.Y.Y.Y.U.Y.",
"Y.U.U.U.U.U.1.$ :X:XC O U.  7 :X:X:X  O.U.U.U.U.U.U.U.U.U.U.U.U.U.U.U.U.U.U.U.c f :X:X  *.U.U.U.W.o :X:X].  U.U.U.U.U.2.U.U.U.Y.",
"U.Y.U.T.U.U.U.a # :X:X  U.Y.o # :X:X:X  Y.U.R # R U.U.U.U.U.U.U.U.U.U.U.Y.U.U.*.< :XM.  Y.U.U.Y.U.O o :X:X  O.U.Y.2.2.U.U.U.U.U.",
"Y.U.U.U.Y.U.Y.U.  :X:X  >.2.U.X $ :X:X%   *  X6 > U.U.U.U.U.U.U.U.U.U.U.U.U.T.$ j :X  v Y.Y.U.U.U.U.o -X:XoX  U.U.U.U.U.Y.U.U.U.",
"U.U.U.U.U.U.U.U.1 + :X[.% p 2.Y.*.. :X:X:X:X:X:X, U.U.T.U.U.U.U.Y.U.U.U.Y.U.O N :X:X  U.2.Y.U.U.U.U.&.  :X:Xo O.U.U.U.U.U.U.U.U.",
"U.U.T.U.U.T.Y.U.>.  :X:XoX% u .   E o :X:X:X:X:X7 U.U.U.U.U.U.U.Y.U.U.U.Y.U.  :X:Xy   U.U.U.U.U.U.U.U.  6 :X X    *.U.U.U.U.Y.Y.",
"Y.U.U.Y.U.U.U.U.U.R O :X X:X:X:Xv.. >.  . u.9 % b 2.U.U.U.U.U.U.U.U.U.Y.Y.T.o _..X  U.U.U.U.U.U.U.U.>.U.  :X:X:X:X+ U.Y.U.U.U.U.",
"U.U.U.Y.U.1.2.U.U.1.p ].:X:X:X:X& 2 ,.*.:.,.,.,.;.,.2.I.:.:.U.U.U.U.U.U.Y.Y.I.    $ >.U.U.T.U.U.U.U.U.U.R   :X:X:XX U.U.U.U.U.U.",
"U.U.U.Y.U.:.U.;.:.;.2.1 * o b.    ,.;.U.;.,.:.:.,.;.,.;.U.Y.Y.Y.U.U.U.U.2.I.U.>.P.I.U.U.Y.U.U.Y.U.U.U.U.o.0 5 , % & U.U.U.U.U.U.",
"U.U.U.U.U.U.U.U.U.U.U.) F ! ^ ^ ! / I.U.,.,.U.,.2.$.,.U.U.U.U.U.U.U.U.U.Y.U.U.U.U.P.I.U.U.U.U.2.&.{ { { ~ N N V %.U.U.U.2.U.U.U.",
"U.U.U.Y.U.U.Y.U.Y.U.U.P.^ V N N N ! ..%.I.U.1.U.U.U.U.U.U.U.Y.Y.U.U.U.U.Y.U.U.I._ J D G ^ +.%.P.` V B N A M N A ^ [ >.>.,.2.U.Y.",
"U.I.U.U.Y.U.U.U.U.Y.U.&.] H G D D V A V ) &.I.%...{ { { ..X.o.o.o.o.....[ { X.} ~ V A M N D ! ~ ! G D V D V D G H F { U.U.Y.T.U.",
"U.1.U.U.Y.Y.I.I.U.U.@.H G V V V D D D V V V D V N V V V V V V V D V C N N V F V V N N N N V A M N N N M N M M N V / P.I.Y.Y.U.U.",
"U.U.U.U.&.o.{ ` ~ K H D N N N N N M A N N N N N n B V D G G H H ! H F N N N N N N M N N M N N N M N M N N M N N C +.U.U.U.U.U.Y."
};
