/* XPM */
static char *_5390d7b33954d15fc7027e23e6c4d16DSVKOonDrfcVlKV5[] = {
/* columns rows colors chars-per-pixel */
"64 64 209 2 ",
"   c #020302",
".  c #080607",
"X  c #060A05",
"o  c #090B07",
"O  c #0A0B0A",
"+  c #050808",
"@  c #0D130A",
"#  c #0E180F",
"$  c #121B0E",
"%  c #12170F",
"&  c #131313",
"*  c #141B12",
"=  c #191B16",
"-  c #1B1C1C",
";  c #191718",
":  c #201E1F",
">  c #251402",
",  c #162312",
"<  c #1A2514",
"1  c #1C2917",
"2  c #21331B",
"3  c #24381A",
"4  c #202D19",
"5  c #222222",
"6  c #2C2B2B",
"7  c #302E2F",
"8  c #293B20",
"9  c #2A3626",
"0  c #31332F",
"q  c #353533",
"w  c #3D3C3D",
"e  c #373837",
"r  c #2D4625",
"t  c #334B29",
"y  c #37552B",
"u  c #3C5632",
"i  c #424D3F",
"p  c #446835",
"a  c #4D793A",
"s  c #3F4140",
"d  c #444343",
"f  c #4B4B4A",
"g  c #484846",
"h  c #524F4D",
"j  c #4C5946",
"k  c #595756",
"l  c #5A5957",
"z  c #5C5B5A",
"x  c #555453",
"c  c #605E5D",
"v  c #537942",
"b  c #55644F",
"n  c #62615E",
"m  c #63705E",
"M  c #625F60",
"N  c #646462",
"B  c #696665",
"V  c #656A64",
"C  c #696A66",
"Z  c #6D6C6B",
"A  c #696768",
"S  c #706E6E",
"D  c #6A7365",
"F  c #6B7867",
"G  c #6D7C68",
"H  c #697367",
"J  c #71716E",
"K  c #737B6E",
"L  c #716F70",
"P  c #767574",
"I  c #797775",
"U  c #797975",
"Y  c #7C7B7A",
"T  c #777A75",
"R  c #807F7D",
"E  c #FA5F7F",
"W  c #5D9348",
"Q  c #64964E",
"!  c #6EA358",
"~  c #78B65E",
"^  c #6CAD54",
"/  c #6F8369",
"(  c #71856A",
")  c #748A6B",
"_  c #758A6B",
"`  c #79956E",
"'  c #799A6D",
"]  c #7EAE6C",
"[  c #7DC55F",
"{  c #82817E",
"}  c #82A873",
"|  c #86B472",
" . c #86CB68",
".. c #8BD96D",
"X. c #8FDA73",
"o. c #95DB7B",
"O. c #99DB7C",
"+. c #91DC73",
"@. c #8DCD76",
"#. c #94F26E",
"$. c #95E376",
"%. c #9BE47D",
"&. c #9CEB7C",
"*. c #97EA75",
"=. c #96F471",
"-. c #9AF475",
";. c #9BF975",
":. c #9EF37B",
">. c #9EFA7A",
",. c #96F871",
"<. c #8EE570",
"1. c #A1F57E",
"2. c #A2FC7D",
"3. c #BF7DA3",
"4. c #D67EAF",
"5. c #858482",
"6. c #898683",
"7. c #8A8986",
"8. c #8D8C8B",
"9. c #888B86",
"0. c #918D8C",
"q. c #8E9489",
"w. c #92918E",
"e. c #959492",
"r. c #999695",
"t. c #9A9996",
"y. c #9D9C9B",
"u. c #969E91",
"i. c #A19E9D",
"p. c #B2859C",
"a. c #9CA398",
"s. c #9CA48D",
"d. c #A2A19E",
"f. c #A3BB9C",
"g. c #9FA1A0",
"h. c #A5A4A2",
"j. c #A9A6A4",
"k. c #A7A8A3",
"l. c #AAA9A6",
"z. c #ADACAB",
"x. c #A8A7A8",
"c. c #B0AEAC",
"v. c #AEB2AB",
"b. c #B2B1AE",
"n. c #B2BAAF",
"m. c #AFAFB1",
"M. c #B4B4B3",
"N. c #B8B6B4",
"B. c #BABAB6",
"V. c #BCBBBA",
"C. c #B8B7B7",
"Z. c #CE8BB1",
"A. c #D583B1",
"S. c #C0BDBD",
"D. c #9CDB80",
"F. c #9FEC81",
"G. c #A2EC83",
"H. c #A1E284",
"J. c #A3F583",
"K. c #A5FF84",
"L. c #A6FE84",
"P. c #A7FF84",
"I. c #A7FF85",
"U. c #A6FF84",
"Y. c #A6FD86",
"T. c #A6FE83",
"R. c #A8FE83",
"E. c #A8FD82",
"W. c #A9FF84",
"Q. c #A9FE85",
"!. c #A9FE84",
"~. c #A9FC8A",
"^. c #A7FF88",
"/. c #B9FF9D",
"(. c #BEC0BD",
"). c #BDF1A7",
"_. c #C2C1BF",
"`. c #BFBFC1",
"'. c #C3BFC0",
"]. c #C4C4C3",
"[. c #CBCBCB",
"{. c #C8C8C6",
"}. c #D0CFCD",
"|. c #CECED0",
" X c #DCDBDC",
".X c #D6D5D4",
"XX c #D1DDCF",
"oX c #E0DFDE",
"OX c #DBE5D9",
"+X c #DDFCD3",
"@X c #E4F0DE",
"#X c #E3DFE0",
"$X c #E4E4E4",
"%X c #E8E6E6",
"&X c #E9E9E7",
"*X c #EDECEC",
"=X c #E7EAE6",
"-X c #F1EEEF",
";X c #EFF7EC",
":X c #F1F1EE",
">X c #F2FAED",
",X c #EFEFF1",
"<X c #F1EFF0",
"1X c #EFF1F0",
"2X c #F4F3F3",
"3X c #F8F6F6",
"4X c #FAF7F9",
"5X c #FDFDFD",
"6X c #F7F8F8",
/* pixels */
"P.P.P.P.T.T.T.T.P.P.T.P.T.P.P.P.W.P.P.P.P.P.T.T.W.T.W.P.P.P.P.R.P.P.P.P.P.P.P.P.P.T.T.P.P.K.T.P.T.P.P.P.P.P.P.P.P.P.K.P.P.T.W.P.",
"P.P.T.T.P.T.T.T.T.P.W.T.T.T.P.T.P.W.P.Y.E.W.T.T.T.W.P.P.P.P.P.P.P.P.P.P.P.P.P.P.P.P.P.P.P.P.P.T.P.P.T.T.P.P.P.P.P.J.K.P.T.P.P.P.",
"W.W.T.R.P.P.T.T.P.P.T.P.T.P.P.K.        J.K.2.W.P.P.P.P.P.P.P.P.P.P.T.T.P.P.P.P.P.P.P.R.P.P.P.T.K.P.R.P.E.E.P.P.P.K.Y.P.K.P.P.E.",
"P.R.R.R.P.T.P.P.P.P.P.P.P.a @   j Z S   u T.W.T.P.P.P.P.T.P.P.P.P.P.P.P.P.P.P.T.P.P.R.T.P.T.T.T.K.P.P.T.K.T.P.P.J.Y.P.K.P.P.P.J.",
"T.T.P.P.Y.Y.T.P.Y.P.T.J.&.    P P J Z g   P.P.P.P.P.P.P.P.P.P.P.P.P.T.T.P.P.P.P.T.T.T.T.T.T.W.P.T.P.E.P.P.P.P.P.E.K.T.P.P.P.P.P.",
"T.T.P.P.P.Y.W.P.P.~.W.K.7   T e.l.M.S . @ P.P.Y.P.P.P.P.P.P.P.P.P.P.P.P.P.P.P.T.W.T.T.1.J.K.P.J.Y.J.Y.T.P.P.P.P.u . T.T.>.P.P.T.",
"P.P.P.J.Y.E.>.2.P.P.W.P.  w.6.y.M.z.P   J.P.P.P.P.P.P.T.T.P.P.P.P.P.P.P.P.P.P.P.R.T.T.      + t Y.J.W.P.P.P.P.P.  $   K.#.T.P.P.",
"P.T.K.Y.Y.-.;.T.P.P.W.~.O _ 9.8.e.8.  p P.P.P.P.P.P.P.P.T.P.P.P.P.P.P.P.P.P.P.P.W.T.T.  n.M.n.    J.W.P.J.P.W.P.  n.  W 2.T.T.T.",
"J.E.Q.Y.E.>.2.R.P.P.T.P.& C P Z Z N   P.E.P.P.P.P.T.P.P.P.T.T.K.P.W.T.P.P.P.P.P.P.T.W.  M.Z.A.m.  , T.T.2.T.T.T.@ M.z.  K.2.W.P.",
"E.J.Y.E.J.W.P.T.P.P.P.! O 6.c.5.7.  T.P.P.T.P.P.P.Y.P.Y.P.P.W.P.T.T.P.P.P.P.P.P.P.T.W.+ y.A.4.Z.M.@ T.2.W.T.T.6 M.M.l.  T.K.P.P.",
"E.E.Y.J.W.E.T.T.P.T.P.  7.V.V.M.z.  P.Y.T.P.E.P.J.P.P.P.P.P.P.P.R.T.P.P.P.P.P.T.P.W.T.X P 3.A.4.M.s., 2 X X o X + : 5.+ P.P.P.T.",
"Y.J.E.P.J.J.J.T.P.P.P.  y.].b.{ h   P.P.Y.P.J.P.P.P.P.P.P.P.P.P.T.T.T.P.P.P.P.Y.P.W.W.+ 6 I p.M.M.v.a.h l 8.f 5.8.M.+   Y.T.T.T.",
"Y.J.E.Y.T.Y.T.R.E.P.W.o N Y n z   @ P.P.T.P.T.T.P.P.T.P.J.K.K.>.T.P.P.P.P.P.P.W.J.P.t a.+ h.l.x.8.q.h.z.h f m.f m.z.m.& :.P.P.P.",
"Y.Y.J.Q.J.P.K.J.J.-.Y.& k B Z n .   W.P.P.T.P.T.K.T.P.P.P.P.K.K.P.P.P.P.T.P.P.J.P.X o 6.Y M.y.y.Y 5Xw     z M.f f 5X+ M *.>.T.P.",
"J.Q.Y.:.-.#.2.:.:.:.J.O n U ].b.P . T.P.K.T.T.K.T.P.T.P.P.P.>.P.T.P.P.P.P.T.T.E.W X U r.y.M.y.r.M.5XO     m.M.M.z 5X  & 1.P.T.P.",
"R.Y.J.-.#.J.:.J.&.:.:.o r.].{.M.Y o E.:.T.T.T.K.T.T.P.T.P.>.P.P.P.P.P.P.P.P.P.E.+ k l l k A j.z.y.o       M.M.C.M.s + o $.P.P.P.",
"E.E.J.#.=.Y.#.G.J.1.&.O 5.].l.U P o :.J.T.T.T.T.T.T.T.T.T.T.P.P.W.P.P.P.T.P.K.*.+ M e.9.P N r.r.h.        M.z.M.M.  +   . J.E.J.",
"Y.Q.#.#.*.-.:.1.&.:.=.; d P Z B z @ :.E.T.T.T.T.T.T.P.T.T.P.W.T.K.P.P.P.T.T.K.< 8 l z ` 8.9.P A g.+   & + C.M.M.M.    + + :.J.J.",
"E.J.=.=.-.:.1.:.:.J.*.& 6 C S Y 6.O J.J.P.P.E.J.J.T.T.P.P.T.T.T.2.P.P.P.T.P.2.X q.q.z 3.c a.M.t.M.z.M.M.M.M.M.M.M.M.m.M.y.  E.Y.",
"E.K.;.=.1.1.1.:.J.-.<.O J e.V.m.P @ J.T.P.P.J.T.Y.K.R.W.K.T.T.2.K.K.W.P.P.P.,.X g.u.t.M.I 8.M.V.M.].`. X.X[.5X    |.M.M.M.X + O ",
"Y.E.E.E.2.1.:.J.-.*.&.O r.C.M.e.e , J.K.T.P.P.J.J.P.J.T.T.T.P.T.2.2.>.T.2.,.,.  H Z e.+       g ].M.*X5X5XC.>     5XY O   + T.W.",
"Y.J.E.J.J.:.J.E.*.J.&.. r.l l z O J.T.P.T.T.T.T.P.K.2.P.T.T.T.T.>.2.;.,.2.-.2.; g x M M M.|.5.    O e &X5X5X5X. 5X5Xz.6 M.].t P.",
"J.W.E.J.Y.J.E.J.1.1.G.  z k l z . P.P.J.P.P.P.P.P.T.P.P.W.R.T.>.2.;.;.,.,.;.P. .+ 8.w.M.M.7.C.z.V.5X5X5X5X5X5Xo 5XoX].5XOXJ X E.",
"J.Y.J.J.J.Y.J.J.J.J.J.. z z j.b.+ J.Y.P.P.J.E.J.J.J.T.R.T.T.P.T.2.>.;.=.>.P.J.J.@ 5.t.M.z.V.C.].N ; O 5X5X6XC.O e 5X5X*X. X X J.",
"Q.J.J.J.E.J.J.J.J.J.D.+ r.N.M.x.. O E.W.$.                            X       i J - Y y.'.B.i   O 5X5 M O o . E - + o o * + r + ",
"Q.Q.J.Y.J.T.K.J.J.J.v & M.m.b.A T J . *   n P y.h.t.Z Z 6.i.w.z z 7.8.w.t.e.q & -   8.Y e.. + V.2X2X5X5X%X3X5X4X5Xz.- . O K.J.2.",
"Y.Y.E.J.W.W.T.R.J.J.O u.m.c.x.P P R z Y N k L l.b.t.B n x.x.n l B e.r.g.Y e.y.y.t.y.r.M.n + 5.A 2X<X<X$Xg w g + . 5 A :.J.P.Q.E.",
"J.Y.Y.P.W.2.T.T.J.F.. h.z.z.7.C 7.Z N l.k z e.M.z.8.n S l.j.c z 0.t.a.e.M Z y.y.8.i.y.y.h.h.j.V.*X<X,X2X2Xg.h.d.o ).J.T.T.T.P.J.",
"Y.J.E.Y.P.P.T.T.F.G.O r.c.l.I t.w.c { d.k n j.b.b.5.n U j.j.l l w.e.t.7.z P r.t.N i.i.y.j.y.h.[.*X<X*X2X*Xj.j.A . J.Y.P.T.P.P.P.",
"Q.Q.T.R.T.T.T.T.G.H.+ j.c.Y 0.z.B c d.l.x n l.b.c.5.n P h.y.z l 0.w.r.r.c Z t.d.N 6.y.j.h.t.`.&X<X*X-X<X&Xh.6.z X J.J.E.T.P.T.P.",
"J.J.R.T.T.P.T.T.H.k o l.5.e.c.l.k R j.l.l n v.b.M.0.N Z j.d.M k C r.e.t.A n y.h.C A 6.l.h.y.'.*X*X<X-X:XoXh.x.i.X Y.J.Y.P.P.W.P.",
"E.Y.W.T.T.T.T.T.H.& 6 A A M.z.U c h.l.v.l z d.N.v.a.n B h.d.Y z l t.t.y.r.z d.l.6.B B 8.h.d.M.*X-X*X:X2X{.h.c.O ~ Y.Y.J.P.P.P.P.",
"J.K.P.P.P.P.P.P.5.o d.A b.b.z.B B l.c.N.{ z U B.M.b.B n h.l.j.k c i.w.w.i.c B y.j.5.z n e.d.z.*X*X*X2X2Xh.l.s.X 1.R.Y.P.T.T.W.P.",
"J.P.P.P.P.P.P.P.X d.b.b.c.b.b.c { b.b.V._.c S S.V.b.w.S c.x.l.B c i.i.7.d.9.c r.l.h.t.n B d.t.$X,X1X2X2Xr.h.N X J.Y.E.T.T.P.W.T.",
"Y.P.P.P.P.P.P.T.O j.M.b.M.b.z.c w.M.B.S.'._.R ].B.b.b.B c.z.z.7.n r.d.0.d.l.S { x.j.h.h.c n e..X2X3X2Xe 7.h.o p T.E.E.T.T.T.P.P.",
"J.P.P.P.P.P.P.T.  e.l.b.b.N.h.c r.B.S.S._.].C j.N.N.b.B 0.x.x.j.C I t.i.i.d.7.Z 8.d.d.h.d.J t.&X6X6X`.& h.d.@ J.E.Y.1.J.P.T.T.T.",
"Y.P.Y.T.P.P.P.P.O %X'.m.b.b.r.N y.V.V.V.V.V.J J B.M.b.Y N l.j.h.{ B t.i.d.d.e.z z n Y d.i.0.[.2X2X6X; x.z.V.@ K.J.>.J.E.E.T.P.P.",
"Y.P.P.P.P.P.P.P.  <X*X$XM.M.w.K i.B.V.B.B.M.l.7.M.M.l.l.M I i.y.r.N C i.d.l.l.w.c z z A 0.0.g.2X2X3Xo ,X$X9 t -.>.>.J.E.J.T.P.T.",
"Y.P.P.P.P.P.P.P.  *X*X*X#XV.x.a.c.z.b.b.z.c.$X%X].l.l.j.t.M t.t.r.t.B i.d.j.j.l.j.S z z x 9.Z 2X4X&X+ 4X%X5 [ 1.2.>.E.:.;.P.P.P.",
"P.P.P.P.P.P.P.P.0 <X2X2X2X=X$X{.M.v.l.b.[.*X*X&X&X{.b.h.h._ 7.w.e.y.0.V.]._.M.l.z l.R c N z z 2X2X& *X.X6Xo :.;.-.>.;.#.;.P.T.K.",
"P.P.P.P.P.P.P.P.3 [.2X2X2X:X:X2X*X*X=X1X@XoX6.,X*X:X&X*X&X,X$X$X$X*X&X*X*X*X*Xw y.l.h.h.N M  X3Xd ; 6X5X5X  -.-.:.;.;.-.;.P.P.W.",
"P.W.T.W.P.T.P.J.< $X3X3X2X2X2X3X3X3X2X1X,XV 5 *X-X*X1X*X,X-X*X-X*X*X*X*X*X*X& 5. XM.h.y.y.3X3X3X; 3X5X5X  a ;.>.-.>.=.;.W.P.P.P.",
"W.P.P.P.E.P.J.=.< 3X6X6X3X6X3X3X2X3X2X2X2X& x %X2X2X@X2X2X;X:X:X2X2X*X<X,X6 z 2X2X2Xc.j..X3X6X; &X6X6X5X  E.;.>.;.=.;.T.P.P.P.P.",
"P.P.P.T.J.>.#.:.3 6X5X6X>X>X6X6X3X3X2X6X6X  N     O @ @ + o o o O o o q P g 2X2X2X2X2X-X5X6X5 `.6X5X5X  O 2.>.;.;.2.K.R.P.P.P.P.",
"R.T.P.T.T.>.T.<.8 5X5X5X5X5X6X5X5X6X6X6X6X  4XM.  2.-.-.J.>.J.J.2.J.Y.J.J.z 6X6X6X6X4X4X6Xw 7 *X5X6X5X= ..W.2.T.T.T.T.K.P.P.P.P.",
"T.T.T.T.T.K.T.@ 5X5X5X5X5X5X5X5X5X5X6X5X; e 4X5X5 J.J.T.E.J.J.E.E.1.J.J.J.; 5X5X5X5X3X5X& .X& 5X5X5X6X0 Q T.R.P.2.T.J.K.P.P.P.P.",
"W.T.T.W.P.P., I 5X5X5X5X5X5X5X5X5X5X5Xh   5X5X2Xi T.>.J.J.>.:.Y.J.1.J.J.Y.$ g 6X6X5X5Xw %.E.: 5X5X5X5X@ :.T.T.W.T.2.P.K.P.P.P.P.",
"W.P.K.T.K.Q : 5X5X4X6X5X5X5X5X5X5X2Xe Y *X5X5XA v J.J.E.K.T.E.2.E.E.~.P.J.T.  5X5X5X5X% ~   &X5X5X5X5X@ P.R.T.R.R.R.Y.K.P.P.P.P.",
"P.P.T.P.E.r 5X5X&X2X5X5X5X5X5X5XY : .X5X5X5X5X2 &.P.E.J.T.P.K.J.E.K.K.K.J.K.$ V 5X5X5Xj   P 6X5X6X5X& 9.P.P.R.T.T.T.P.W.P.P.P.P.",
"P.P.T.1.u 5X5X5X5X5X5X5X5XY w 6 D 5 5X5X5X5X X@ T.E.K.K.J.K.K.K.J.P.K.K.T.T.T.  5X5X5XP ; 5X5X5X+X& 1 T.P.T.T.T.T.T.W.T.P.P.P.P.",
"P.P.T.r 5X5X5X5X5X5X5X7 q 0 $.P.3 5.5X$X5XM.; T.P.T.P.P.T.K.2.K.K.P.P.K.T.T.T.@ P 5X5X5XO 5X5X*   p W.P.T.P.P.T.T.T.P.T.P.P.P.P.",
"P.T.P.- 5X5X5X5Xf.n j +.T.P.W.P.$ XX2X5X[.8 K.T.K.J.J.P.P.J.E.P.P.P.J.K.P.E.T.J.X 5X5X5X  8.  2 ~.P.P.T.P.T.P.P.T.R.P.T.P.T.P.P.",
"T.R.T.< 5X5X5Xu p T.T.J.T.K.T.T. .  5X5X5 ^ W.T.T.P.T.T.2.T.T.T.K.P.P.P.P.T.T.W.% f.5X5X+ . J.Y.P.P.Y.P.R.R.T.T.P.T.K.P.P.T.P.P.",
"W.W.T.4 $X5X5X1 T.T.T.P.T.T.E.2.T.  5X5X5X= y P.P.P.T.T.P.P.P.W.P.P.P.P.P.P.P.P.*.@ 2X5Xp , E.E.K.P./.P.P.W.T.T.T.T.T.K.P.P.P.P.",
"T.P.P.8 h.5X5X0 E.T.2.E.T.T.T.T.R.X.  5X5X5X1 v $.P.P.T.T.T.T.T.P.P.T.W.T.R.P.W.W.1 K 5X5X+ T.P.Y.W.P.P.P.T.T.T.T.T.T.T.T.P.T.P.",
"P.P.P.p N 5X2X;   y K.2.T.T.T.2.2.T.X ; 5X5X5X. X $ P.P.P.T.T.R.P.P.P.P.P.T.P.P.J.~ @ 5X5X.   @ p P.P.P.P.T.T.R.P.T.T.P.P.P.P.P.",
"R.T.T.&.1 5X5X5X5X  J.T.2.2.T.T.K.K.2.  *X5X5X5X5X4 T.T.P.P.P.P.Y.T.P.W.T.P.T.P.J.T.+ 5X5X5X&X{..   R.R.T.T.R.T.T.P.P.P.P.P.P.P.",
"T.T.T.P.8 O 5X5X5X  :.2.K.2.T.K.>.>.>...X OX5X5X8.y 2.T.;.;.K.K.T.P.P.W.T.P.P.P.P.T., f 5X5X5X5XC   T.R.T.T.T.T.P.P.P.P.P.P.P.Y.",
"T.R.R.W.T.^ O     ^ >.E.T.;.>.;.K.>.,.&.! 9 < , 1 ;.;.;.K.T.K.K.T.P.P.Y.T.T.T.P.P.K.P.O + X   .   T.T.T.T.T.K.T.P.P.P.P.P.P.W.P.",
"T.W.T.T.T.J.W.W.X.E.E.J.1.:.:.J.J.F.J.F.D V V G ' <.o.o.%.%.F.F.F.:.Y.E.T.T.T.T.P.K.G.] ) } ] } o.T.T.R.T.K.K.K.K.2.2.E.J.K.K.K.",
"K.T.P.T.P.T.K.&.` ) ) ( ( ( ) ( ( ) ) ) H V V H ( ' D H / ) ) ) ) ) ] o.%.o.O.o.F.%.| H N N V N / O.O.%.%.%.%.@.| | F.;.;.K.T.T.",
"T.T.T.T.J.F.&.| H N V V C C V G H N N H H H V V V G D V V H ( ) ) V A H G ` ` ` / H N V N N N H F F V B V V V V N H o.K.W.T.P.T.",
"P.P.T.] H V H V N N V N N N N N N N N N N N N N N M n N N M N N A V B N V V C D H V N N N V H H H V D D V N N N F | J.T.T.T.P.P.",
"T.P.J.K N N N N N A V N N N N N N N N N N n N N N N n n M N N n N N N N N N N N n N N N n N n N n N N V V V N N ( J.T.R.R.T.P.T."
};
