/* XPM */
static char *_c89ebd31b7140dd8251590a4ab32bf2F7cn9EOkEh0eeBH9[] = {
/* columns rows colors chars-per-pixel */
"64 64 205 2 ",
"   c #8EF367",
".  c #8FF468",
"X  c #8EF568",
"o  c #91F368",
"O  c #91F668",
"+  c #93F56A",
"@  c #92F46B",
"#  c #93F56C",
"$  c #91F56E",
"%  c #92F66F",
"&  c #94F46C",
"*  c #95F56D",
"=  c #96F76C",
"-  c #95F56F",
";  c #97F46F",
":  c #95F76E",
">  c #94F66F",
",  c #96F66E",
"<  c #97F76F",
"1  c #99F76F",
"2  c #93F86E",
"3  c #97F86D",
"4  c #96F86F",
"5  c #92F670",
"6  c #93F770",
"7  c #95F770",
"8  c #95F671",
"9  c #96F670",
"0  c #96F671",
"q  c #97F771",
"w  c #97F772",
"e  c #98F570",
"r  c #99F671",
"t  c #99F672",
"y  c #9AF772",
"u  c #9AF773",
"i  c #9EF775",
"p  c #94F871",
"a  c #97F970",
"s  c #96F871",
"d  c #95FA70",
"f  c #95F972",
"g  c #97F972",
"h  c #97F873",
"j  c #98F870",
"k  c #99F971",
"l  c #98F872",
"z  c #98F873",
"x  c #99F973",
"c  c #9BF873",
"v  c #99FB72",
"b  c #98FA73",
"n  c #9CF873",
"m  c #9CFA72",
"M  c #98F974",
"N  c #99F974",
"B  c #9BF874",
"V  c #99FB74",
"C  c #9AFA74",
"Z  c #9AFA75",
"A  c #99F876",
"S  c #98F976",
"D  c #9BF876",
"F  c #9AF977",
"G  c #99FA77",
"H  c #9AFB76",
"J  c #9BFB76",
"K  c #9CF974",
"L  c #9DF974",
"P  c #9DF875",
"I  c #9CF975",
"U  c #9DFA75",
"Y  c #9CF977",
"T  c #9EF976",
"R  c #9DFA76",
"E  c #9EFB76",
"W  c #9FFA77",
"Q  c #9EFB77",
"!  c #9CFC77",
"~  c #9FFC77",
"^  c #9BF778",
"/  c #9AF979",
"(  c #9BFA78",
")  c #9AFB78",
"_  c #9EF978",
"`  c #9DFA78",
"'  c #9CFB79",
"]  c #9FFA79",
"[  c #9EFB79",
"{  c #9EF97A",
"}  c #9CFB7B",
"|  c #9EFA7B",
" . c #9FFA7B",
".. c #9DFD78",
"X. c #9FFC78",
"o. c #9EFE79",
"O. c #9DFC7A",
"+. c #9FFC7A",
"@. c #9EFD7B",
"#. c #9EF87C",
"$. c #9FF97D",
"%. c #9FFB7C",
"&. c #9FFB7E",
"*. c #9DFC7C",
"=. c #9EFD7D",
"-. c #9FFE7E",
";. c #A1FA78",
":. c #A0FB78",
">. c #A2FB79",
",. c #A1FA7A",
"<. c #A0FB7A",
"1. c #A0FD78",
"2. c #A1FC79",
"3. c #A1FC7B",
"4. c #A0FD7B",
"5. c #A2FD7A",
"6. c #A3FE7B",
"7. c #A2FF7B",
"8. c #A1FA7C",
"9. c #A0FB7C",
"0. c #A2FB7D",
"q. c #A1FB7F",
"w. c #A5FB7C",
"e. c #A5FB7E",
"r. c #A0FC7D",
"t. c #A1FC7D",
"y. c #A3FC7C",
"u. c #A2FD7C",
"i. c #A1FE7C",
"p. c #A3FE7D",
"a. c #A2FF7D",
"s. c #A1FD7E",
"d. c #A0FC7F",
"f. c #A3FC7E",
"g. c #A2FD7E",
"h. c #A3FF7E",
"j. c #A2FE7F",
"k. c #A3FE7F",
"l. c #A4FD7D",
"z. c #A4FF7C",
"x. c #A4FD7F",
"c. c #A4FF7E",
"v. c #A6FF7F",
"b. c #A2FA80",
"n. c #A3FB80",
"m. c #A7FB81",
"M. c #A1FD80",
"N. c #A2FC80",
"B. c #A2FC81",
"V. c #A3FD81",
"C. c #A3FF80",
"Z. c #A2FE81",
"A. c #A3FD82",
"S. c #A2FE82",
"D. c #A3FF82",
"F. c #A4FC81",
"G. c #A6FC81",
"H. c #A5FE80",
"J. c #A4FF80",
"K. c #A5FF81",
"L. c #A6FF81",
"P. c #A4FC82",
"I. c #A5FD82",
"U. c #A5FD83",
"Y. c #A7FD82",
"T. c #A7FC83",
"R. c #A4FE82",
"E. c #A4FE83",
"W. c #A4FF83",
"Q. c #A5FF83",
"!. c #A6FF82",
"~. c #A7FF82",
"^. c #A6FE83",
"/. c #A4FC84",
"(. c #A4FF84",
"). c #A5FF84",
"_. c #A6FE84",
"`. c #A6FF84",
"'. c #A7FF84",
"]. c #A6FF85",
"[. c #A7FF85",
"{. c #A5FE86",
"}. c #A6FE86",
"|. c #A7FF86",
" X c #A7FF87",
".X c #A9FD81",
"XX c #A9FF80",
"oX c #A8FE81",
"OX c #A9FF82",
"+X c #A8FE83",
"@X c #A8FF83",
"#X c #AAFE82",
"$X c #AAFF83",
"%X c #A8FD84",
"&X c #A9FF84",
"*X c #A9FE85",
"=X c #A8FF85",
"-X c #AAFE84",
";X c #AAFE85",
":X c #AAFF85",
">X c #ABFF85",
",X c #A8FD86",
"<X c #A8FF86",
"1X c #A9FE87",
"2X c #AAFF86",
/* pixels */
"'.^.oX'.'.'.'.'.'.'.'.'.'.'.'.'.'.'.'.'.'.'.'.'.'.'.'.'.'.'.'.'.'.'.'.'.'.'.'.'.'.'.'.'.'.'.'.'.'.'.'.'.'.'.'.'.'.^.^.*X'.'.'.'.",
"^.'.'.'.'.'.'.'.'.'.'.'.'.'.'.'.'.'.'.'.'.'.'.'.'.'.'.'.'.'.'.'.'.'.'.'.'.'.'.'.'.'.'.'.'.'.'.'.'.'.'.'.'.'.'.'.*X'.^.^.'.'.'.'.",
"'.'.'.^.^.^.'.'.'.'.'.'.'.'.'.'.'.'.'.'.'.'.'.'.'.'.'.'.'.'.'.'.'.'.'.'.'.'.'.'.'.'.'.'.'.'.'.'.'.'.'.'.'.'.'.'.^.'.'.^.'.'.'.*X",
"'.'.'.*X^.^.*X'.'.'.'.'.'.'.'.'.'.'.'.'.'.'.'.'.'.'.'.'.'.'.'.'.'.'.'.'.'.'.'.'.'.'.'.'.'.'.'.'.'.'.'.'.'.'.'.'.*X'.'.'.'.'.'.'.",
"'.'.'.'.*X'.'.'.'.'.'.'.'.'.'.'.'.'.'.'.'.'.'.'.'.'.'.'.'.'.'.'.'.'.'.'.'.'.'.'.'.'.'.'.'.'.'.'.'.'.'.'.'.'.'.'.*X'.'.'.'.*X'.'.",
"'.'.'.^.'.'.*X'.'.'.'.'.'.'.'.'.'.'.'.'.'.'.'.'.'.'.'.'.'.'.'.'.'.'.'.'.'.'.'.'.'.'.'.'.'.'.'.'.'.'.'.'.'.'.'.'.^.'.'.'.=.n.'.'.",
"'.*X^.*X'.'.} N.'.'.'.'.'.'.'.'.'.'.'.'.'.'.'.'.'.'.'.'.'.'.'.'.'.'.'.'.'.'.'.'.'.'.'.'.'.'.'.'.'.'.'.'.'.'.'.'.'.'.'.'.g ^.'.'.",
"'.'.^.^.'.C C ^.'.'.'.'.'.'.'.'.'.'.'.'.'.'.'.'.'.'.'.'.'.'.'.'.'.'.'.'.'.'.'.'.'.'.'.'.'.'.'.'.'.'.'.'.'.'.'.'.'.'.*X4 s.*X^.^.",
"'.oX'.^.N.<.c.^.'.'.'.'.'.'.'.'.^.^.^.^.*X^.'.'.'.'.'.oXoX^.'.^.'.'.'.'.'.'.'.'.*X^.'.'.^.'.'.'.'.'.^.^.N.'.'.^.'.'._ ! '.'.'.'.",
"'.^.^.*X'.'.'.^.'.'.'.'.'.'.'.'.^.'.^.^.'.^.'.'.*X'.'.^.'.^.*X'.'.'.'.'.'.'.'.'.'.'.'.'.'.'.'.'.'.oXs.^.'.'.'.*X'.N./.P.'.'.'.'.",
"'.'.^.^.'.^.^.^.'.^.^.oX'.^.'.'.'.^.'.'.'.oX'.'.'.'.*X'.^.*X^.*X'.'.'.'.'.'.'.'.'.'.'.'.^.'.*X^.*XC g =.N /.oX^.^.'.'.'.'.^.^.'.",
"*X'.^.^.^.'.^.^.^.^.oX^.'.'.^.,X'.'.'.'.'.^.*X'.'.'.^.*X^.'.*X'.^.^.'.'.'.'.'.'.'.'.'.'.'.^.^.^.N N g R R _ N +.=.*XP.'.^.*X'.'.",
"'.'.'.^.^.^.*X^.'.*X'.,XN.oX'.N.'.'.'./.'.'.'.'.'.'.'.'.'.'.^.s.^.^.^.'.'.'.'.'.'.'.'.'.'.'.^.R _ } C C ! 7 R u ^.^.R R N '.'.'.",
"^.'.^.^.^.^.^.^.'.N '.'.N.'.N C '.'.'.'.'.,X'.'.'.'.'.'.'.'.s.s.'.'.'.'.'.'.'.'.'.,X'.'.'.'.N.%.'.s.s.% N.'.^.^.oX1.1 > s.+.N.^.",
"^.^.*X<.M > =.s._ <.oXN.*X_ g R ^._ ^.*X'.{.'.'.'.'.'.'.'.'._ '.'.'.'.'.'.'.'.'./.'.'./.'.,X'.'.^.^.^.^.'.'.'.^.^.% g ^.s.'.'.^.",
"^.^.*XN 4 ^.1.^.s.N.=.+.*XC R s.%.9.'.=.'.'.*X'.'.'.'.'.'.%.'.'.'.'.'.'.'.'.'.'.'.'.'.'.'.'.'.,X^.^.*XoX'.'.'.*X1.s.'.^.*X'.oX^.",
"*X^.^.> > >XN ^.s.^._ +.%.u _ +.s.^.+.^.'.'.'.'.'.'.'.'.'.'.'./.*X'.'.^.'.'.'.*Xs.^.s.^.N.^.^.*X'.'.'.'.^.oX'.'.'.'.'.'.'.'.'.'.",
"'.'.> > > n s.s.s.=.g s.g +.s.^.<.~ 9.'.'.^.^.*X'.^.'.'.'.'.'.'.P.'.'.'.'.'.'.9.C +.+._ +.oX^.^.'.'.'.'.^.^.*X'.'.'.^.*X'.'.'.'.",
"^.oXg g C w.^.<._ ^.u g %.^.s.1.i g ^.'.'.'.'.'.'.^.'.'.'.'.'.N.s.oX'.'.oX'.c.7 R _ =.s.^.^.^.^.'.'.'.*X*X^.'.*X'.'.'.^.'.'.'.'.",
"^.^._ C s.s.1.s.s._ = <.s.s.=.R 7 *X*X'.*X'.'.^.'.'.'.'.'.'.'.b.n.P.'.,X'.'.% ^.^.N.~ ^.'.oXN.c.n.'.N.'.'.'.^.oX'.'.'.^.'.'.'.'.",
"*X'.'.'.^.e.s.oXR C c.s.^.s.R > ^.^.'.^.'.'.'.'.'.'.'.'.'.^.N.^.^.9.R *X*XC > c.'.^.s.^.'.^.N.s.'.^.^.'.'.'.^.'.'.'.'.'.'.'.'.'.",
"'.'.*X'.s.<.^.*Xu ^.c.n.^.^.g C ^.'.'.'.^.oX'.'.'.'.'.'.^.'.'.^.9.s.n C 1.u <.s.1.*Xs.^.^.1.^.^.c.N.c.s.*X'.*X^.1X'.'.'.'.'.'.'.",
"*X'.'.'.'.*X'.'.'.^.'.'.^.*XN.^.oX'.'.'.'.*X*X'.'.^.^.'.'.^.^.s.+.R C % > C ^.s.^.s.s.^.s.^.^.N.^.s.N.*X^.'.N.s.'.'.'.'.'.'.'.'.",
"^.'.'.'.*X^.'.'.'.'.'.'.'.^.^.^.'.'.'.'.'.'.'.'.^.^.'.'.'.'./.^.N._ R g ~ ^.^.^.*X^.^.*X^.^.N.'.s.N _ N.^.R +.R P.'.'.'.'.'.'.'.",
"'.'.'.'.'.'.'.'.'.'.'.'.'.'.'.'.*X'.'.'.*X^.^.*X*X'.'.'.'.'.'.'.'.'.'.'.'.'.'.'.'.^.'.^.^.^.^.oXN.'.%._ _ '.'.9.P.N.,X'.'.'.'.'.",
"'.'.'.'.'.'.'.'.'.'.'.'.'.'.'.'.'.'.'.'.^.'.*X^.'.'.*X'./.'.'.'.'.'.'.oX'.'.'.'.'.'.^.^.oX^.^.'.'.N._ =.'.'.1X'.'.'.'.'.'.'.'.'.",
"'.'.'.'.'.'.'.'.'.'.'.'.'.'.'.'.'.'.'.'.'.'.'.'.'.'.*X^.'.'.'.'.'.^.'.^.'.'.'.'.'.'.^.*X'.^.'.'.'.'.'.'.'.'.'.'.'.'.'.'.'.'.'.'.",
"'.'.'.'.'.'.'.'.'.'.'.'.'.'.'.'.'.'.'.'.'.^./.'.^.'.^.^.'.'.'.*X'.'.*X*X'.'.'.'.*X'.'.^.'.'.'.'.'.'.,X'.'.'.'.'.'.'.'.'.'.'.'.'.",
"'.'.'.'.'.'.'.'.'.'.'.'.'.'.'.'.'.'.'.'.^.^.'.'.'.^.*X'.'.'.'.^.s.N.'.'.'.'.'.'.'.'.^.^.'.'.'.'.'.'.^.'.'.'.'.'.'.'.'.'.'.'.'.'.",
"'.'.'.'.'.'.'.'.'.'.'.'.'.'.'.'.'.'.'.'.'.'.'.'.*X^.'.*X*XN.+.R =.^.N.'.'.'.'.'.'.'.^.^.'.'.^.'.'.'.'.,X'.'.'.'.'.'.'.'.'.'.'.'.",
"'.'.'.'.'.'.'.'.'.'.'.'.'.'.'.'.'.'.'.'.'.'.'.'.1.+.^._ g   O N s.c.'.'.'.'.'.'.'.'.*XN././.'.'.'.'.'.'.'.*X'.'.'.'.'.'.'.'.'.'.",
"'.'.'.'.'.'.'.'.'.'.'.'.'.'.'.'.'.'.'.'.'.'.^.N g M o u >   N 1.9.R _ N ^.'.'.'.'.'.R ~ s.'.^.'.'.'.'.'.'.'.'.'.'.'.'.'.'.'.'.'.",
"'.'.'.'.'.'.'.'.'.*X'.'.'.^.*Xc.'.'.1Xn.^.s.} _ u O R % > R 1.+._ s.R > ^.} % N N _ R N +._ '.'.'.'.'.'.*X^.oXs.*X^.'.'.'.'.'.'.",
"'.'.'.'.'.'.'.'.'.'.'.'.^.'.^.^.'.'.*XN _ } ^.7 c.^.N _ <.9.=.+.R N s.7 6 C _ =.N u 7 _ 7 7 '.'.'.^.'.*X^.^.N.N.^.^.*X'.'.'.'.'.",
"'.'.'.'.'.'.'.'.^.'.'.*X'.'.^.^.'.*X'.N s.*X'.'.^.'.'.P.<.oX+.g R *X7 N N.*Xs._ g 7 N g u <.^.'.'.'.*X^.1.^.^.^.'.*X'.'.'.'.*X'.",
"'.'.'.'.'.'.'.'.'.'.'.^.'.'.*X'.'.'.'.'.^.^.*X'.*XoX'.'.^.^.N N.*XoX*X^.*Xc.^.^.N +.1.s.'.oXoX'.'.'.1.^.^.^.^.^.*X'.'.*X'.'.'.^.",
"'.'.'.'.'.'.'.'.'.'.'.'.'.N.% 7 '.'.'.'.'.*X'.oX'.'.*X*X*X'.'.'.'.'.^./.oX'.'.'.*X'.^.^.*X^.*XoX^.=.*X'.'.'.c.^.s.s.'.'.'.'.'.'.",
"'.'.'.'.'.'.'.'.'.'.'.'.oX'.oX^.^.'.'.^.,X'.'./.'.'.^.'.*X^.'.'.'.'.'.'.'.'.'.'.*X*X^.*X^.*X^.^.^.^.'.oX/.i N _ s.N '.oX/.'.'.'.",
"'.'.'.'.'.'.'.'.'.'.'.'.'.*X*X^.'.'.'.'.'.'.'.'.'.'.^.^.^.^.'.'.'.'.'./.'.'.'.'.'.'.*X'.oX^.^.^.'.'.'.%.g R u ^.c.<.N.+.7 '.'.'.",
"'.'.'.'.'.'.'.'.'.^.'.'.'.^.*X^.N./.^.'.'.'.'.'.'.'.'.'.'.'.'.'.^.*X^.'.'.'.'.'.^.oX^.'.%.'.'.'.'.9.u > N > R N R R _ u N '.'.'.",
"^.'.'.oX*X^.'.'.^.*X'.N.'.'.^.^.'.'.'.'.'.'.'.'.^.^.^.^.^.^.'.'.'.'.'.'.'.'.'.'.'.^.'.9.'.^.N.^.<.<.> 4 g M N N n R R R _ '.^.'.",
"^.^.*X'.^.^.^.'.oX^.'.'.'.'.*X^.'.*X'.*X'.^.'.'.*X*X'.'.^.^.'.'.'.'.'.'.'.'.'.'.^.'.'.*X'.'.'.'.^.9.1.g ~ _ _ _ _ ~ g g '.'.*XoX",
"'.^.^.^.^.*Xs.C } R R <.N N.s.N.N.s.'.N.s.N.s.s.s.s.^.s.=.'.'.'.'.'.'.'.'.'.'.'.'.^.^.^.'.'.'.'.<.^.+.s.oX*X_ 1.N 7 _ oX'.'.'.'.",
"'.'.^.'.^.s.= +.N ^ R 7 <.<.1.^.N _ <.R R _ i N N.9._ s.<.oX'.'.'.'.'.'.'.'.'.'.'.^.^.'.'.'.'.9.+.s.^.^.^.^.N } } 1.^.^.'.'.'.'.",
"*X^.^.*X^.+.^.^._ N P.s.'._ ^.N C c.g ~ ~ s.s.'.'.N._ +.N.'.'.'.'.'.'.'.'.'.'.'.'.'.,X'.'.'.^.'.*X^.^.^.*X'.P.oX'.'.'.'.'.,X'.'.",
"^.*XoX^.'.*X^.^.'.'.^.^.^.'.'.%.^.C ^.s.'.'.*X'.'.*X'.^.*X'.'.'.'.'.'.'.'.'.'.'.'.'.oX^.'.'.'.'.^.'.'.oX'.'.^.^.'.'.'.'.'.'.'.'.",
"*X^.^.^.^.*X^.oX'.'.'.'.^.^.'.^.oX'.^.oX'.'.^.'./.'.'.'.'.'.'.'.'.'.'.'.'.'.'.'.'.'.'.^.'.'.'.'.'.^.'.^.'.'.'.'.'.'.,X'.'.'.'.'.",
"'.*X'.'.'.'.'.*X^.*X^.'.oX^.^.'.'.'.^.'.'.'.'.'.'.'.'.'.'.*X'.'.'.'.'.'.'.'.'.'.'.^.^.^.'.'.^.'.'.'.^.*X'.'.'.'.'.'.'.'.'.'.'.'.",
"'.'.'.'.'.'.'.'.'.'.'.^.^.'.'.'.'.'.'.'.'.'.'.'.'.'.'.'.'.'.'.'.'.'.'.'.'.'.'.'.'.'.'.'.'.'.'.*X'.'.'.'.'.'.'.'.'.'.'.'.'.'.'.'.",
"'.'.'.'.'.'.'.'.'.'.'.'.^.'.'.'.'.'.'.'.'.'.'.'.'.'.'.'.'.'.'.'.'.'.'.'.'.'.'.'.'.'.'.'.'.'.'.'.'.'.'.'.'.'.'.'.'.'.'.'.'.'.'.'.",
"'.'.'.'.'.'.'.'.'.'.'.^.'.'.^.^.'.'.^.^.'.'.'.'.'.'.'.'.'.'.'.'.^.^.'.'.'.^.'.'.'.'.'.'.'.'.'.*X'.'.'.^.'.'.'.^.'.'.'.'.'.'.'.'.",
"'.'.'.'.'.'.'.'.'.^.'.'.'.'.^.*XoX^.^.^.^.'.'.'.'.'.'.'.'.'.'.'.'.'.'.'.^.'.'.N.! N.'.*X'.'.'.'.'.'.'.'.'.'.'.'.'.'.'.'.'.'.'.'.",
"'.'.'.'.'.'.'.'.'.'.'.'.'.'.'.'.^.'.^.^.'.^.^.^.'.'.'.'.'.'.'.'.'.'.'.'.'.'.,X%.R N.~ ^.'.'.*X'.'.'.'.'.'.'.'.'.'.'.'.'.'.'.'.'.",
"'.'.'.'.'.'.'.'.'.'.'.'.N.'.'.'.'.^.^.^.^.^.^.'.'.'.'.'.'.'.'.'.'.'.'.'.'.'.'./.^.^.^.*X'.'.'.'.'.'.'.'.'.'.'.'.'.'.'.'.'.'.'.'.",
"'.'.'.'.'.'.'.'.'.'.'.n.'.'.'.n.^.^.^.'.'.^.^.^.'.'.'.'.'.'.'.'.'.'.'.'.^.^.'.^.'.*X'.^.^.'.'.'.'.^.^.^.'.'.^.^.'.'.'.'.'.'.'.'.",
"'.'.'.'.'.'.'.'.P.P.'.n.'.'.n.'.^.^.'.N.^.^.^.'.'.'.'.'.'.'.'.'.'.'.'.'.^.s.N.^.'.s.N.^.s.=._ s.^.P.^.^.'.P.^.*X'.'.'.'.'.'.'.'.",
"*X^.'.'.^.^.'.'./.^.^.^.s.^.N.^.'.N.s.e.N.^.N.'.^.^.^.^.*X'.*X'.n.'.1.9.u ^.R '.j C R +.R N %.+.s.s.s.%.=._ '.'.'.'.'.'.'.'.'.'.",
"^.^.^.'.^.P.P.^.n.s.e.^.s.c.N.^.N.9.s.s.R ~ %._ g u <.^.R N '.oXP.'.M N.N N R O   > 4 g > C _ s.1.N R R 7 _ '.'.'.'.'.'.'.'.'.'.",
"'.'.*X'.^.N '.g <.g 9.*X'.1._ s.^._ M 9.N R N C <.C } g ^.^.'.'.'.N '.u ^.> > 7 R ! C N R _ 1.N u N N N *Xs.'.'.'.'.'.'.'.'.'.'.",
"^.*X^.'.'.^.'.*XoX'.^.'.s.s._ '.'.=.'.'.N =.^.1._ % s.'.^.^.'.'.'.'.'.'.c.P.R 1.*XR N ~ R oX9._ 1.<.<.'.N.1.N.^.^.'.^.N.N.'.'.N.",
"*X'.'.'.^.'.'.'.*XoX'.^.,X^.*X^.'.*X'.'.'.'.'.'.oX*X'.'.'.'.^.'.*X*X'.'.'.*X^.^.'.'.s.N.P.^.^.N./.s.'.^.^.'.^.N.^.s.N.%._ s.'.'.",
"'.'.^.'.'.*X'.'.^.'.'./.^.*X^.'.'.'.*X'.'.'.'.'.'.'.'.'.'.'.'.'.'.'.'.'.n.*X*X'.'.^.^.oXP.^.'.*X*X*X^.s.'.'.'.'.'.^.*X^.'.'.'.^.",
"oX^.oX'.'.'.'.*X*X'.'.'.'.'.^.'.'.'.'.^.'.'.'.'.'.'.'.^.'.'.,X'.'.'.'.'.'.*X^.*X'.'.'.'.oX^.'.'.'.'.*X^.'.'.'.'.^.*X'.'.'.'.'.'.",
"'.^.'.'.'.'.^.^.*X'.'.'.'.^.'.'.'.'.^.'.'.'.'.'.'.'.'.'.'.^.'.'.'.'.'.'.'.oX^.oX'.'.'.'.'.^.'.'.'.'.oX^.'.'.'.'.'.'.'.'.'.'.'.'."
};
