/* XPM */
static char *_7738ef0d1274de9b635fe2cfa1d0d03cb1sd5neNYaNDCQT[] = {
/* columns rows colors chars-per-pixel */
"32 32 12 1 ",
"  c None",
". c #3D2D51",
"X c #48385E",
"o c #256750",
"O c #5FB535",
"+ c #3D9756",
"@ c #8AD44F",
"# c #B8EC76",
"$ c #675480",
"% c #937EAE",
"& c #B69ED5",
"* c #D8C1F6",
/* pixels */
"                                ",
"                                ",
"                                ",
"                                ",
"                                ",
"                 %%             ",
"                $&&.            ",
"             %%$&*%%.           ",
"           %%&&$&%%$.           ",
"          %&&%%$X$X$$.          ",
"         %&*%%%%XX$%$.          ",
"         %$%%%$$XXX$.           ",
"          %$$$%X$XX.###         ",
"           XX%X$XX.@O@@         ",
"        ###$X$$XXX.O@OOO        ",
"        OO$&%XXXX&.@O+OO        ",
"         $&%&$%%$%$.+@@@OO      ",
"         O$&%%*&%$.X.O@OO       ",
"        O#$%%$@@%%$O+.OO        ",
"       O#O+$$+O$$@++++@@O       ",
"        O#@++O+.@O+.+OOO        ",
"         O@O+@@OO+ooOOO         ",
"          OO#@+++O@O@@@O        ",
"          O#O#O@O@O OOOO        ",
"           O O@@OO              ",
"              OO                ",
"                                ",
"                                ",
"                                ",
"                                ",
"                                ",
"                                "
};
