/* XPM */
static char *_df13c2df0d14e8fa51c740aef5896d02yPgPlu5xffFTw85[] = {
/* columns rows colors chars-per-pixel */
"64 64 198 2 ",
"   c None",
".  c #3A2A4E",
"X  c #37274C",
"o  c #3D2C52",
"O  c #3C3C55",
"+  c #422F59",
"@  c #46355C",
"#  c #473A5B",
"$  c #48395D",
"%  c #4D3C63",
"&  c #503E66",
"*  c #523E6A",
"=  c #374B52",
"-  c #3C5654",
";  c #285951",
":  c #377D4D",
">  c #3C6A54",
",  c #2E7B51",
"<  c #306C51",
"1  c #43534C",
"2  c #49594D",
"3  c #4C4C53",
"4  c #424857",
"5  c #554F5E",
"6  c #535158",
"7  c #48514F",
"8  c #4B654B",
"9  c #4F7D40",
"0  c #546B48",
"q  c #636F58",
"w  c #54436B",
"e  c #57486A",
"r  c #5B5964",
"t  c #594771",
"y  c #5C4A73",
"u  c #614E79",
"i  c #65527D",
"p  c #4F7A6B",
"a  c #5A756B",
"s  c #53766C",
"d  c #5C6177",
"f  c #646B6C",
"g  c #706C79",
"h  c #6B7172",
"j  c #5D9C3C",
"k  c #54AD3C",
"l  c #5DAD3C",
"z  c #5DB434",
"x  c #5BB33C",
"c  c #61A13E",
"v  c #61B736",
"b  c #63B63B",
"n  c #66BB3A",
"m  c #6ABD3B",
"M  c #6FC23E",
"N  c #71C43E",
"B  c #75C93F",
"V  c #3F9B4F",
"C  c #3D944F",
"Z  c #3C8255",
"A  c #3C8F56",
"S  c #3B9154",
"D  c #3D9A54",
"F  c #43884D",
"G  c #439D4F",
"H  c #479748",
"J  c #5E9D41",
"K  c #559447",
"L  c #488A55",
"P  c #4B9255",
"I  c #449E51",
"U  c #4F9458",
"Y  c #51965C",
"T  c #5B854A",
"R  c #688D55",
"E  c #74945C",
"W  c #4CA644",
"Q  c #45A34D",
"!  c #4AA34A",
"~  c #47A547",
"^  c #5FA241",
"/  c #51AB42",
"(  c #55AD4E",
")  c #56A444",
"_  c #5EB241",
"`  c #4BA353",
"'  c #4AA451",
"]  c #56AB50",
"[  c #56AA52",
"{  c #5EB153",
"}  c #6DAB47",
"|  c #61B540",
" . c #6DBE42",
".. c #6EBD4B",
"X. c #68B746",
"o. c #73B14B",
"O. c #73BA49",
"+. c #71A951",
"@. c #69B955",
"#. c #7BB851",
"$. c #71A94A",
"%. c #458461",
"&. c #599662",
"*. c #778B6A",
"=. c #6D8172",
"-. c #6F8864",
";. c #7EB565",
":. c #74C244",
">. c #78C744",
",. c #7ACA45",
"<. c #71C34A",
"1. c #7DCA4B",
"2. c #7ED045",
"3. c #7DCA51",
"4. c #869C69",
"5. c #96BF6D",
"6. c #97B47E",
"7. c #86A76E",
"8. c #81CD4A",
"9. c #80CC47",
"0. c #85D14B",
"q. c #8AD44E",
"w. c #82CC55",
"e. c #81C051",
"r. c #8FD654",
"t. c #96D75D",
"y. c #97DB5B",
"u. c #9ADB5F",
"i. c #93D957",
"p. c #91C266",
"a. c #8DD062",
"s. c #9ADA62",
"d. c #9AD56C",
"f. c #9ED375",
"g. c #A1DF65",
"h. c #A4DC69",
"j. c #A3C972",
"k. c #A3E065",
"l. c #ADE76C",
"z. c #ADE86C",
"x. c #BBEE78",
"c. c #B7E976",
"v. c #BEF576",
"b. c #BCF178",
"n. c #675282",
"m. c #695681",
"M. c #6D5986",
"N. c #6F5B88",
"B. c #725D8B",
"V. c #666582",
"C. c #6B6F80",
"Z. c #75628E",
"A. c #726F82",
"S. c #737182",
"D. c #7B7686",
"F. c #776391",
"G. c #7A6594",
"H. c #7C6896",
"J. c #7E6B99",
"K. c #7D669A",
"L. c #857E8F",
"P. c #826E9C",
"I. c #85709F",
"U. c #8671A1",
"Y. c #8A75A5",
"T. c #8C78A6",
"R. c #8E79AA",
"E. c #8C76A9",
"W. c #927DAD",
"Q. c #957FB1",
"!. c #876FA5",
"~. c #868592",
"^. c #918C9D",
"/. c #9685AE",
"(. c #9592A0",
"). c #9781B3",
"_. c #9A84B6",
"`. c #9D86B9",
"'. c #9E88BB",
"]. c #9B8AB2",
"[. c #A18BBD",
"{. c #AEACB8",
"}. c #A48DC2",
"|. c #A790C4",
" X c #AA93C7",
".X c #AC95CA",
"XX c #AF98CD",
"oX c #B099CE",
"OX c #B69ED4",
"+X c #B89ED8",
"@X c #BDA6DB",
"#X c #B8A1D7",
"$X c #B9B4C6",
"%X c #C1AADF",
"&X c #C6AEE5",
"*X c #C8B1E6",
"=X c #CBB3E9",
"-X c #C3C4CA",
/* pixels */
"                                                                                                                                ",
"                                                                                                                                ",
"                                                                                                                                ",
"                                                                                                                                ",
"                                                                                                                                ",
"                                                                                                                                ",
"                                                                                                                                ",
"                                                                                                                                ",
"                                                                                                                                ",
"                                                                                                                                ",
"                                                                    W.W.W./.                                                    ",
"                                                                    ).`._.).                                                    ",
"                                                                u G.'.XXOXQ.y X                                                 ",
"                                                                F.Y.oX@XOX).i %                                                 ",
"                                                    W.W.W.U.N.F.Q..X&X&X XW.I.B.& .                                             ",
"                                                    `.'.'.T.B.G.}.&X*X@X[.W.T.F.% .                                             ",
"                                            W.W.W._. XOX.X`.Z.G.}.#X.X[.).T.H.i $ .                                             ",
"                                            _._._.[. X.XoX`.F.B.T._.T.I.P.H.M.y & @                                             ",
"                                        W._.|..X.X X'.`.`.T.Z.i i i M.M.u y u i u e @ .                                         ",
"                                        _.}.#X@XOX X).W.W.E.H.n.% % t t w t m.B.M.y @ o                                         ",
"                                    W._. X#X=X&X X)./.W.Q.W.T.F.e $ % w t m.P.P.B.y @ o                                         ",
"                                    W.).'.XX%X@X'.W.W.W.Y.Y.T.F.t @ @ % t M.P.P.m.w + .                                         ",
"                                    W.T.J.I._.[.)./.).T.F.B.B.m.w @ @ $ & t M.n.* +                                             ",
"                                    /.Y.Z.Z.P.Y.Y.Y.U.I.F.M.i e w % % @ @ % w t r q                                             ",
"                                        Y.P.F.B.B.B.B.F.I.H.y w t t % $ $ @ @ r 4.j.l.b.x.x.                                    ",
"                                        ).P.m.y y i M.F.P.Z.y w y y % @ @ # 3 q p.l.z.z.z.z.                                    ",
"                                            w & w y H.P.m.t y y e % % @ + 3 R o.:.1.r.y.y.y.                                    ",
"                                            e $ @ t F.H.y w y t % @ @ @ + 2 o.B N m ,.1.9.9.                                    ",
"                                x.x.x.b.v.j.g w $ w m.N.i y w % $ @ @ + + 1 j m ,.,.:.m m m v v                                 ",
"                                h.k.k.h.g.(.L.B.u e y u u t % @ @ & u t + 1 j N ,.>.b k z z z z                                 ",
"                                :.:.>.+.*.L.].[.Y.Z.t % % % $ @ @ y U.I.* 2 $.9.N | ! ! k z z z                                 ",
"                                z l l R g Y.[.oX}.Y.u % e t t e & i [._.u 6 R $.b / ` ] | m m m                                 ",
"                                    f S.Q.}.`.}..X`.N.i F.J.J.F.i B.T.R.N.e 5 0 F ( <.3.1.1.0.,.m z z z                         ",
"                                    f S./.}.`.[. X}.J.J._.}.}.Q.P.P.P.P.i w + # > F ..0.q.q.0.:.n z z z                         ",
"                                    J R S.U.}. X}.Q.T._.@X&X#X|.T.P.F.i & @ + @ O 8 c B 0.0.:.n v z                             ",
"                                    :.+.f F.`. X`.T.Y./.$X-X{.{./.Y.P.u & # 3 7 # = j c :.,.n z z v                             ",
"                                z :.y.p.g Z.W.`.).E.G.D.(.k.s.6.(.W.E.H.n.r T K F > - 8 l n z z                                 ",
"                                 .w.s.p.=.V.J.Y.Y.J.V.a o.9.3.7.~.Y.^.~.C.a ) / Q Z - 2 J m M m                                 ",
"                            z :.t.s.w.X.U s V.B.Z.V.p U | } -.g V.D.7.5.&.L I ' I A Z P o.1.9.1.m z                             ",
"                            z :.t.s.8.X.[ Y a d d s P W / K r u d *.#.<.` A Z Z A D G ( <.9.9.1.m z                             ",
"                                :.8.t.s.w.@.Y L %.P W k ~ Z 4 5 E e.O.x Q Z - - Z Q ! x n m m m                                 ",
"                                z O.t.g.y.1.( D S I | X.( P 2 0 o.,.b W S , = = F ! x z z z z z                                 ",
"                                    :.>.0.9.X.W D ` <.8.1.O.J l b | ! D , ; ; < j k z z z z                                     ",
"                                    z n ,.>.n x { @.3.q.3.<._ / l / Q H 9 : : C k M m M m m                                     ",
"                                        m n v  .a.d.i.1.{ ` Q I G ! W _ ..X.l l <.1.0.9.0.,.m z                                 ",
"                                        z v  .8.t.h.u.w.[ I ` ` I ! b N 1.>.m m ,.9.1.9.9.:.m z                                 ",
"                                        v  .t.t.8.8.h.s..._ ..<._ b :.1.N m     m M m m m m v z                                 ",
"                                        z :.t.t.:.:.t.t.>.m 0.0.m m ,.>.n z     z z z z z z z v                                 ",
"                                            :.:.    :.:.1.8.q.9.m v m m                                                         ",
"                                            z z     z m ,.9.9.,.m z z z                                                         ",
"                                                        m m m m                                                                 ",
"                                                        z z z z                                                                 ",
"                                                                                                                                ",
"                                                                                                                                ",
"                                                                                                                                ",
"                                                                                                                                ",
"                                                                                                                                ",
"                                                                                                                                ",
"                                                                                                                                ",
"                                                                                                                                ",
"                                                                                                                                ",
"                                                                                                                                ",
"                                                                                                                                ",
"                                                                                                                                "
};
